<svg width="172" height="134" viewBox="0 0 172 134" fill="none" xmlns="http://www.w3.org/2000/svg">
<rect x="70.4961" y="21.3169" width="85.5607" height="79.1835" rx="5.31433" transform="rotate(3.458 70.4961 21.3169)" stroke="black" stroke-opacity="0.2" stroke-width="2.65717" stroke-linecap="round" stroke-dasharray="10.63 7.97"/>
<rect x="3" y="30.1206" width="112.226" height="103.861" rx="6.97056" transform="rotate(-11.542 3 30.1206)" fill="white" stroke="black" stroke-opacity="0.2" stroke-width="3.48528" stroke-linecap="round" stroke-dasharray="13.94 10.46"/>
<g clip-path="url(#clip0)">
<path d="M62.8828 64.6664C65.3757 64.1573 66.9839 61.7237 66.4748 59.2308C65.9657 56.7379 63.5321 55.1297 61.0392 55.6388C58.5463 56.1478 56.9381 58.5814 57.4472 61.0743C57.9563 63.5672 60.3899 65.1754 62.8828 64.6664Z" fill="black" fill-opacity="0.2"/>
<path d="M102.406 69.1989C99.8647 67.6281 96.9001 66.8621 93.8768 67.0877L89.191 44.1425C88.6917 41.6976 87.2406 39.7082 85.3404 38.3983C83.3776 37.1012 80.9913 36.6089 78.5464 37.1082L42.1852 44.5337C39.7402 45.033 37.7509 46.4842 36.441 48.3843C35.1439 50.3472 34.6516 52.7334 35.1509 55.1784L41.0529 84.0792L41.6034 86.775L42.794 92.6053C43.2933 95.0503 44.7445 97.0396 46.6447 98.3495C48.6075 99.6467 50.9937 100.139 53.4387 99.6396L88.6087 92.4574C91.3124 93.8644 94.4395 94.4666 97.6367 93.8137C101.336 93.0584 104.351 90.8752 106.247 88.0064C108.142 85.1377 108.969 81.5077 108.213 77.8089C107.458 74.1101 105.275 71.0947 102.406 69.1989ZM38.4735 54.4998C38.1663 52.9952 38.5115 51.488 39.3097 50.2801C40.108 49.0722 41.3592 48.1636 42.8638 47.8564L79.2249 40.4308C80.7295 40.1236 82.2367 40.4688 83.4447 41.2671C84.6526 42.0653 85.5611 43.3165 85.8684 44.8211L89.8628 64.3809L78.7025 57.06C77.9475 56.5611 76.869 56.716 76.3202 57.5465L65.2077 74.4444L53.7953 66.8485C53.0404 66.3496 51.9618 66.5045 51.413 67.335L43.5562 79.3884L38.4735 54.4998ZM52.7103 96.3925L52.6975 96.3298C51.1929 96.637 49.6857 96.2918 48.4777 95.4936C47.3325 94.6825 46.424 93.4314 46.1167 91.9268L44.926 86.0964L44.5164 84.0903L53.3966 70.6523L64.7962 78.1856C65.5512 78.6844 66.6169 78.4668 67.1785 77.6991L78.291 60.8012L89.3259 68.1476C89.1507 68.2487 88.9754 68.3498 88.8001 68.4509C88.5621 68.5648 88.3242 68.6787 88.0363 68.8681C87.7984 68.982 87.5732 69.1586 87.3352 69.2725C87.16 69.3736 87.0474 69.4619 86.8849 69.6257C86.6598 69.8023 86.4845 69.9034 86.322 70.0672C86.047 70.3193 85.7719 70.5714 85.4969 70.8235C85.3344 70.9873 85.2218 71.0756 85.0593 71.2394C84.9468 71.3277 84.8969 71.4031 84.7843 71.4914C84.2969 71.9828 83.885 72.5241 83.5485 73.1152C81.6528 75.984 80.8267 79.6139 81.5821 83.3127C81.7741 84.2531 82.0787 85.1052 82.4588 86.0072C82.5727 86.2451 82.6738 86.4204 82.7877 86.6584C83.1038 87.2469 83.4199 87.8354 83.7987 88.4111L83.8115 88.4738C84.1647 88.9241 84.5307 89.4371 84.9338 89.8119L52.7103 96.3925ZM103.315 86.1235C101.868 88.3128 99.6411 89.8779 96.8827 90.4412C94.2496 90.9789 91.587 90.4124 89.486 89.0782C89.184 88.8787 88.8692 88.6164 88.5673 88.4169C88.3408 88.2672 88.1015 88.0548 87.875 87.9052C87.5602 87.6429 87.2953 87.3052 87.0304 86.9674C86.8539 86.7423 86.6901 86.5798 86.5135 86.3546C86.3241 86.0668 86.1219 85.7162 85.9824 85.3529C85.8685 85.1149 85.6791 84.8271 85.5652 84.5891C85.3118 83.9878 85.1082 83.311 84.9674 82.6214C84.4041 79.863 85.0332 77.1875 86.4173 75.011C87.8641 72.8217 90.0914 71.2566 92.8499 70.6933C95.6083 70.13 98.2837 70.7591 100.46 72.1432C102.637 73.5273 104.215 75.8173 104.778 78.5758C105.328 81.2715 104.699 83.9469 103.315 86.1235Z" fill="black" fill-opacity="0.2"/>
<path d="M99.9673 77.7297L96.1431 78.5107L95.3621 74.6865C95.1701 73.7461 94.2642 73.1474 93.3238 73.3395C92.3834 73.5315 91.7848 74.4374 91.9768 75.3778L92.7577 79.202L88.9336 79.983C87.9932 80.175 87.3945 81.0809 87.5866 82.0213C87.7786 82.9617 88.6845 83.5604 89.6249 83.3683L93.4491 82.5874L94.2301 86.4115C94.4221 87.3519 95.328 87.9506 96.2684 87.7585C97.2088 87.5665 97.8074 86.6606 97.6154 85.7202L96.8344 81.896L100.659 81.1151C101.599 80.923 102.198 80.0171 102.006 79.0767C101.814 78.1363 100.908 77.5377 99.9673 77.7297Z" fill="black" fill-opacity="0.2"/>
</g>
<defs>
<clipPath id="clip0">
<rect width="67.0568" height="67.0568" fill="white" transform="translate(32.5781 42.5774) rotate(-11.542)"/>
</clipPath>
</defs>
</svg>
