<svg width="254" height="178" viewBox="0 0 254 178" fill="none" xmlns="http://www.w3.org/2000/svg">
<rect x="114.936" y="11.0444" width="141.067" height="130.552" rx="8.7619" transform="rotate(15 114.936 11.0444)" stroke="black" stroke-opacity="0.2" stroke-width="4.38095" stroke-linecap="round" stroke-dasharray="17.52 13.14"/>
<rect x="3" y="3" width="185.031" height="171.24" rx="11.4926" fill="white" stroke="black" stroke-opacity="0.2" stroke-width="5.74629" stroke-linecap="round" stroke-dasharray="22.99 17.24"/>
<g clip-path="url(#clip0)">
<path d="M88.3368 78.5594C92.5318 78.5594 95.9325 75.1588 95.9325 70.9638C95.9325 66.7688 92.5318 63.3682 88.3368 63.3682C84.1419 63.3682 80.7412 66.7688 80.7412 70.9638C80.7412 75.1588 84.1419 78.5594 88.3368 78.5594Z" fill="black" fill-opacity="0.2"/>
<path d="M150.687 98.9196C147.1 95.5438 142.564 93.3284 137.606 92.6954V54.0843C137.606 49.97 135.918 46.2776 133.28 43.5348C130.537 40.7919 126.845 39.2095 122.731 39.2095H61.5437C57.4294 39.2095 53.7371 40.8974 50.9942 43.5348C48.2514 46.2776 46.6689 49.97 46.6689 54.0843V102.717V107.254V117.065C46.6689 121.179 48.3569 124.871 50.9942 127.614C53.7371 130.357 57.4294 131.94 61.5437 131.94H120.726C124.63 135.104 129.482 137.109 134.863 137.109C141.087 137.109 146.678 134.577 150.687 130.568C154.696 126.559 157.228 120.968 157.228 114.744C157.228 108.52 154.696 102.928 150.687 98.9196ZM52.2602 54.0843C52.2602 51.5524 53.3151 49.2315 55.003 47.5436C56.691 45.8557 59.0119 44.8007 61.5437 44.8007H122.731C125.263 44.8007 127.584 45.8557 129.271 47.5436C130.959 49.2315 132.014 51.5524 132.014 54.0843V86.9987L116.401 71.4909C115.346 70.436 113.553 70.3305 112.392 71.4909L88.8669 95.1218L72.9372 79.0866C71.8822 78.0316 70.0888 77.9261 68.9284 79.0866L52.2602 95.9657V54.0843ZM61.4382 126.454V126.348C58.9064 126.348 56.5855 125.293 54.8975 123.605C53.3151 121.917 52.2602 119.597 52.2602 117.065V107.254V103.878L71.0383 85.0998L86.968 101.029C88.023 102.084 89.8164 102.084 90.9768 101.029L114.502 77.3986L129.904 92.9064C129.588 93.0119 129.271 93.1174 128.955 93.2229C128.533 93.3284 128.111 93.4339 127.584 93.6449C127.162 93.7503 126.74 93.9613 126.318 94.0668C126.001 94.1723 125.79 94.2778 125.474 94.4888C125.052 94.6998 124.735 94.8053 124.419 95.0163C123.891 95.3328 123.364 95.6493 122.836 95.9657C122.52 96.1767 122.309 96.2822 121.992 96.4932C121.781 96.5987 121.676 96.7042 121.465 96.8097C120.515 97.4427 119.671 98.1811 118.933 99.0251C114.924 103.034 112.392 108.625 112.392 114.849C112.392 116.432 112.603 117.909 112.92 119.491C113.025 119.913 113.131 120.23 113.236 120.652C113.553 121.707 113.869 122.761 114.291 123.816V123.922C114.713 124.766 115.135 125.715 115.663 126.454H61.4382ZM146.573 126.559C143.513 129.619 139.399 131.412 134.757 131.412C130.326 131.412 126.212 129.619 123.258 126.77C122.836 126.348 122.414 125.821 121.992 125.399C121.676 125.082 121.359 124.66 121.043 124.344C120.621 123.816 120.304 123.183 119.988 122.55C119.777 122.128 119.566 121.812 119.355 121.39C119.144 120.863 118.933 120.23 118.827 119.597C118.722 119.175 118.511 118.647 118.405 118.225C118.194 117.17 118.089 116.01 118.089 114.849C118.089 110.208 119.988 106.093 122.942 103.034C126.001 99.9746 130.115 98.1811 134.757 98.1811C139.399 98.1811 143.513 100.08 146.573 103.034C149.632 105.988 151.425 110.208 151.425 114.849C151.425 119.386 149.526 123.5 146.573 126.559Z" fill="black" fill-opacity="0.2"/>
<path d="M143.935 111.896H137.5V105.461C137.5 103.878 136.234 102.612 134.651 102.612C133.069 102.612 131.803 103.878 131.803 105.461V111.896H125.368C123.785 111.896 122.52 113.162 122.52 114.744C122.52 116.327 123.785 117.593 125.368 117.593H131.803V124.028C131.803 125.61 133.069 126.876 134.651 126.876C136.234 126.876 137.5 125.61 137.5 124.028V117.593H143.935C145.517 117.593 146.783 116.327 146.783 114.744C146.783 113.162 145.517 111.896 143.935 111.896Z" fill="black" fill-opacity="0.2"/>
</g>
<defs>
<clipPath id="clip0">
<rect width="110.559" height="110.559" fill="white" transform="translate(46.6699 32.8799)"/>
</clipPath>
</defs>
</svg>
