<svg width="70" height="70" viewBox="0 0 70 70" fill="none" xmlns="http://www.w3.org/2000/svg">
<g clip-path="url(#clip0)">
<path d="M55.6462 68.9064H14.3539V57.9114C14.3539 49.1178 21.4825 41.9893 30.276 41.9893H39.7241C48.5177 41.9893 55.6462 49.1178 55.6462 57.9114V68.9064Z" fill="#9EC8FC"/>
<path d="M14.3539 66.4453H55.6464V68.9062H14.3539V66.4453Z" fill="#80B6FC"/>
<path d="M40.3015 41.9893C40.3015 41.9893 40.5446 48.3143 34.9995 48.3143C29.4545 48.3143 29.6977 41.9893 29.6977 41.9893H40.3015Z" fill="#E2AE84"/>
<path d="M52.0683 25.9655C52.2107 23.514 52.1951 21.2849 52.0408 19.2593H17.9587C17.8043 21.2849 17.7888 23.5141 17.9312 25.9655H52.0683Z" fill="#26457D"/>
<path d="M52.862 19.2594C52.1662 5.18752 43.3691 1.09375 34.9996 1.09375C26.63 1.09375 17.8329 5.18752 17.1371 19.2594H52.862Z" fill="#DC4955"/>
<path d="M17.353 16.7983C17.2524 17.5827 17.1795 18.4022 17.1371 19.2593H52.862C52.8196 18.4022 52.7466 17.5827 52.6461 16.7983H17.353Z" fill="#D82F3C"/>
<path d="M43.6729 19.2593H26.3274C23.866 23.312 22.0779 23.8868 22.0773 23.8869V29.0661C22.0773 36.2031 27.863 41.9888 35.0001 41.9888C42.1371 41.9888 47.9229 36.2031 47.9229 29.0661V23.8869C47.9229 23.8869 46.1345 23.3123 43.6729 19.2593Z" fill="#F0C69E"/>
<path d="M35.0001 39.5281C27.8631 39.5281 22.0773 33.7425 22.0773 26.6055V29.0664C22.0773 36.2034 27.863 41.9891 35.0001 41.9891C42.1371 41.9891 47.9229 36.2034 47.9229 29.0664V26.6055C47.9229 33.7425 42.1371 39.5281 35.0001 39.5281Z" fill="#E6BA94"/>
<path d="M22.0772 29.0663V23.8871C21.9308 23.872 21.782 23.8643 21.6317 23.8643C19.2519 23.8643 17.3227 25.7934 17.3227 28.1732C17.3227 30.5529 19.2518 32.4822 21.6317 32.4822C21.9327 32.4822 22.2265 32.4512 22.5102 32.3922C22.2283 31.3309 22.0772 30.2163 22.0772 29.0663Z" fill="#E2AE84"/>
<path d="M48.3685 23.8643C48.2181 23.8643 48.0693 23.872 47.9229 23.8871V29.0663C47.9229 30.2162 47.7718 31.3309 47.4899 32.3922C47.7736 32.451 48.0674 32.4822 48.3685 32.4822C50.7482 32.4822 52.6774 30.5529 52.6774 28.1732C52.6774 25.7934 50.7482 23.8643 48.3685 23.8643Z" fill="#E2AE84"/>
<path d="M21.6317 30.0214C19.6796 30.0214 18.0316 28.7229 17.5019 26.9429C17.3859 27.3329 17.3227 27.7457 17.3227 28.1733C17.3227 30.5531 19.2518 32.4823 21.6317 32.4823C21.9327 32.4823 22.2265 32.4513 22.5102 32.3923C22.3049 31.6191 22.1698 30.8171 22.1111 29.994C21.9536 30.0115 21.7938 30.0214 21.6317 30.0214Z" fill="#D7A379"/>
<path d="M48.3684 30.0212C48.2062 30.0212 48.0464 30.0115 47.8889 29.994C47.8303 30.8171 47.6953 31.6189 47.49 32.3923C47.7737 32.4511 48.0675 32.4823 48.3685 32.4823C50.7482 32.4823 52.6775 30.5531 52.6775 28.1733C52.6775 27.7457 52.6143 27.3329 52.4982 26.9429C51.9684 28.7227 50.3204 30.0212 48.3684 30.0212Z" fill="#D7A379"/>
<path d="M40.4949 19.2595H29.505V15.1342C29.505 12.0994 31.9652 9.63916 34.9999 9.63916C38.0346 9.63916 40.4948 12.0993 40.4948 15.1342V19.2595H40.4949Z" fill="#26457D"/>
<path d="M29.5051 15.4785H40.4949V19.2596H29.5051V15.4785Z" fill="#F6E080"/>
<path d="M29.5051 16.7983H40.4949V19.2593H29.5051V16.7983Z" fill="#ECCD61"/>
<path d="M55.6867 63.0105C55.1192 63.0105 54.6593 63.4706 54.6593 64.0379V67.9452H48.5416V59.9283C48.5416 59.3609 48.0817 58.9009 47.5142 58.9009C46.9467 58.9009 46.4868 59.3609 46.4868 59.9283V67.9452H23.5131V59.9283C23.5131 59.3609 23.0532 58.9009 22.4856 58.9009C21.9181 58.9009 21.4582 59.3609 21.4582 59.9283V67.9452H15.3406V57.956C15.3406 55.6937 15.8336 53.5208 16.8059 51.498C17.0516 50.9866 16.8364 50.3728 16.325 50.1269C15.8138 49.8814 15.1998 50.0963 14.9539 50.6079C13.8471 52.9108 13.2857 55.3831 13.2857 57.9561V68.9727C13.2857 69.5401 13.7456 70.0001 14.3131 70.0001H55.6864C56.2539 70.0001 56.7139 69.5402 56.7139 68.9727V64.0379C56.7141 63.4704 56.2542 63.0105 55.6867 63.0105Z" fill="black"/>
<path d="M42.0269 41.1307C44.9255 39.4376 47.1631 36.7314 48.2501 33.5009C48.2982 33.5021 48.3463 33.5046 48.3946 33.5046C51.3417 33.5046 53.7393 31.1069 53.7393 28.1598C53.7393 27.277 53.5229 26.4443 53.1423 25.7098C53.2448 23.7841 53.2522 21.9438 53.1644 20.2193C53.3446 20.1707 53.51 20.0747 53.6411 19.937C53.8351 19.7332 53.9369 19.4589 53.9232 19.1779C53.5893 12.4266 51.4249 7.33756 47.49 4.05221C44.315 1.40123 39.9959 0 34.9995 0C30.478 0 26.4716 1.15924 23.4132 3.35207C22.952 3.68266 22.8462 4.32455 23.1769 4.7857C23.5078 5.24686 24.1494 5.3524 24.6104 5.02195C27.3176 3.08082 30.9101 2.05475 34.9994 2.05475C48.1848 2.05475 51.2369 11.7121 51.7975 18.2011H43.6895H41.5329V15.0951C41.5329 11.4927 38.6022 8.56201 34.9998 8.56201C31.3974 8.56201 28.4667 11.4927 28.4667 15.0951V18.2012H26.3101H18.1994C18.5623 13.8399 19.79 10.299 21.8553 7.66445C22.2054 7.21793 22.1271 6.57207 21.6805 6.22207C21.234 5.87193 20.5884 5.95 20.2382 6.3968C17.738 9.58617 16.3377 13.8863 16.0759 19.1778C16.0621 19.4588 16.1639 19.7332 16.3579 19.9369C16.4889 20.0746 16.6546 20.1705 16.8347 20.2192C16.7469 21.9447 16.7543 23.7858 16.857 25.7111C16.4769 26.4452 16.2606 27.2774 16.2606 28.1597C16.2606 31.1068 18.6582 33.5044 21.6053 33.5044C21.6535 33.5044 21.7016 33.502 21.7499 33.5007C22.8368 36.7311 25.0742 39.4372 27.9725 41.1303C23.869 41.6883 20.0884 43.7309 17.3575 46.9235C16.9886 47.3547 17.0392 48.0032 17.4704 48.3721C17.9015 48.7411 18.5501 48.6903 18.919 48.2591C21.4227 45.332 24.9301 43.5051 28.7161 43.1111C28.8484 44.3226 29.2757 46.2435 30.6256 47.6465C31.7244 48.7884 33.1959 49.3672 34.9994 49.3672C36.8029 49.3672 38.2744 48.7884 39.3732 47.6465C40.7235 46.2432 41.1507 44.3215 41.2829 43.11C48.7876 43.8878 54.659 50.2489 54.659 57.9558V59.9281C54.659 60.4954 55.1189 60.9555 55.6865 60.9555C56.254 60.9555 56.7139 60.4954 56.7139 59.9281V57.9558C56.714 49.3706 50.3092 42.2542 42.0269 41.1307ZM51.1623 23.5889C50.2933 23.0569 49.2244 22.7663 48.1441 22.8214C47.7972 22.6237 46.865 21.9812 45.604 20.256H51.1091C51.165 21.321 51.1827 22.4349 51.1623 23.5889ZM48.773 31.4274C48.9055 30.6559 48.9755 29.8635 48.9755 29.0548V24.9223C50.5134 25.1975 51.6846 26.5441 51.6846 28.16C51.6844 29.8458 50.4094 31.239 48.773 31.4274ZM35 10.6169C37.2374 10.6169 39.0967 12.2661 39.4262 14.4128H30.5735C30.9032 12.2661 32.7625 10.6169 35 10.6169ZM30.5217 16.4675H39.4783V18.2012H30.5217V16.4675ZM18.3155 28.1598C18.3155 26.5439 19.4866 25.1974 21.0246 24.9222V29.0546C21.0246 29.8633 21.0944 30.6559 21.2269 31.4273C19.5905 31.239 18.3155 29.8458 18.3155 28.1598ZM21.8561 22.8215C20.7753 22.7664 19.7062 23.0572 18.8368 23.5895C18.8164 22.4355 18.8341 21.3216 18.89 20.256H24.3956C23.1355 21.9801 22.2032 22.6234 21.8561 22.8215ZM23.0793 29.0546V24.4836C23.8828 23.9772 25.2456 22.8241 26.881 20.256H43.1187C44.7522 22.819 46.1265 23.9755 46.9205 24.4807V29.0546C46.9205 35.6277 41.573 40.9753 34.9998 40.9753C28.4266 40.9753 23.0793 35.6277 23.0793 29.0546ZM34.9995 47.3126C33.7629 47.3126 32.8187 46.9581 32.113 46.2287C31.212 45.2974 30.8899 43.9439 30.7756 43.03H39.2233C39.1089 43.9446 38.7868 45.2977 37.886 46.2287C37.1803 46.9581 36.2362 47.3126 34.9995 47.3126Z" fill="black"/>
<path d="M28.7259 24.0479C28.1583 24.0479 27.6984 24.5078 27.6984 25.0753V27.9781C27.6984 28.5455 28.1583 29.0055 28.7259 29.0055C29.2934 29.0055 29.7533 28.5455 29.7533 27.9781V25.0753C29.7532 24.5078 29.2933 24.0479 28.7259 24.0479Z" fill="black"/>
<path d="M41.2741 29.0056C41.8416 29.0056 42.3015 28.5455 42.3015 27.9781V25.0753C42.3015 24.5079 41.8416 24.0479 41.2741 24.0479C40.7066 24.0479 40.2466 24.5078 40.2466 25.0753V27.9781C40.2468 28.5456 40.7067 29.0056 41.2741 29.0056Z" fill="black"/>
<path d="M38.7796 33.557C38.9955 33.0323 38.7453 32.432 38.2207 32.2158C37.6959 31.9998 37.0955 32.25 36.8795 32.7747C36.8761 32.7833 36.4811 33.6417 34.9999 33.6417C33.5187 33.6417 33.1239 32.7833 33.1203 32.7747C32.9043 32.25 32.3038 31.9999 31.7791 32.2158C31.2544 32.4318 31.0043 33.0323 31.2202 33.557C31.5474 34.3516 32.7117 35.6965 34.9999 35.6965C37.2882 35.6965 38.4523 34.3516 38.7796 33.557Z" fill="black"/>
</g>
<defs>
<clipPath id="clip0">
<rect width="70" height="70" fill="white"/>
</clipPath>
</defs>
</svg>
