<svg width="70" height="70" viewBox="0 0 70 70" fill="none" xmlns="http://www.w3.org/2000/svg">
<path d="M52.4028 64.3158L52.4024 64.3162L51.6339 63.3089L51.9457 62.3018C51.5306 60.7844 50.9954 59.4309 50.4042 58.2361L49.0906 57.4259L49.3683 56.3744C47.1751 52.8494 44.7445 51.1929 44.7445 51.1929H25.2548C25.2548 51.1929 22.8242 52.8496 20.631 56.3748L20.6229 57.5899L19.5979 58.234C19.0061 59.4299 18.469 60.7822 18.0536 62.3015L18.5318 63.7017L17.5969 64.3162C17.3367 65.7448 17.1851 67.2959 17.1851 68.9746H25.067L25.9275 68.2958L27.1177 68.9746H33.9742L34.9996 68.2958L36.025 68.9746H42.8814L44.0717 68.2958L44.9322 68.9746H52.814C52.8142 67.2959 52.6631 65.7443 52.4028 64.3158Z" fill="#FF889E"/>
<path d="M21.5295 63.424C21.5295 58.5127 23.9481 53.5595 27.4441 51.1929H25.2547C25.2547 51.1929 22.8241 52.8496 20.6309 56.3748L20.6228 57.5899L19.5978 58.234C19.006 59.4299 18.4689 60.7822 18.0534 62.3015L18.5317 63.7017L17.5968 64.3162C17.3366 65.7448 17.185 67.2959 17.185 68.9746H21.9715C21.6145 67.3071 21.5295 65.4213 21.5295 63.424Z" fill="#FF748F"/>
<path d="M6.42377 29.6015C6.42377 13.8446 19.2431 1.02539 34.9999 1.02539C50.7567 1.02539 63.576 13.8446 63.576 29.6015H6.42377Z" fill="#5C586F"/>
<path d="M58.6825 37.6872C62.3758 37.6872 65.3698 34.6931 65.3698 30.9998C65.3698 27.3065 62.3758 24.3125 58.6825 24.3125C54.9892 24.3125 51.9952 27.3065 51.9952 30.9998C51.9952 34.6931 54.9892 37.6872 58.6825 37.6872Z" fill="#FFBD86"/>
<path d="M15.3183 27.3101C15.3183 17.2406 19.6337 8.25256 26.3887 2.35205C14.8272 6.01393 6.42377 16.8442 6.42377 29.6013H15.3948C15.3452 28.8443 15.3183 28.0806 15.3183 27.3101Z" fill="#4F4C5F"/>
<path d="M58.099 24.3577C57.6859 22.5318 56.3971 21.0369 54.654 20.3544C49.0214 18.1493 45.3053 12.668 45.3053 12.668C40.3648 21.0365 29.2739 21.2382 29.2739 21.2382C32.6012 17.9109 30.5846 12.668 30.5846 12.668C26.742 17.0927 20.9133 18.7943 16.6731 19.4422C14.4784 19.7776 12.6775 21.3653 12.1078 23.5113C11.5791 25.5026 11.3033 27.597 11.3173 29.7579C11.4005 42.6593 21.9316 53.1951 34.8329 53.284C47.9891 53.3745 58.6824 42.7369 58.6824 29.6017C58.6825 27.7995 58.4807 26.0444 58.099 24.3577Z" fill="#FED2A4"/>
<path d="M25.1486 51.1262C19.1094 45.2399 15.3181 36.7496 15.3181 27.3102C15.3181 24.6295 15.6259 22.0263 16.202 19.5366C14.2239 20.0131 12.6362 21.5211 12.1079 23.511C12.0349 23.7861 11.9678 24.0637 11.9045 24.3426C11.7231 24.3233 11.5288 24.3122 11.3169 24.3122C7.62357 24.3122 4.6297 27.3062 4.6297 30.9995C4.6297 34.6929 7.6237 37.6869 11.3169 37.6869C11.8722 37.6869 12.3174 37.6179 12.6756 37.4904C14.8255 43.5306 19.3676 48.4611 25.1486 51.1262Z" fill="#FFBD86"/>
<path d="M20.6228 38.4665C23.5526 38.4665 25.9276 36.5752 25.9276 34.2421C25.9276 31.9089 23.5526 30.0176 20.6228 30.0176C17.693 30.0176 15.318 31.9089 15.318 34.2421C15.318 36.5752 17.693 38.4665 20.6228 38.4665Z" fill="#FF9DB0"/>
<path d="M49.3763 38.4665C52.3061 38.4665 54.6811 36.5752 54.6811 34.2421C54.6811 31.9089 52.3061 30.0176 49.3763 30.0176C46.4465 30.0176 44.0715 31.9089 44.0715 34.2421C44.0715 36.5752 46.4465 38.4665 49.3763 38.4665Z" fill="#FF9DB0"/>
<path d="M22.6882 28.0068V30.1753C22.6882 30.7416 23.1473 31.2007 23.7136 31.2007C24.28 31.2007 24.739 30.7416 24.739 30.1753V28.0068C24.739 27.4405 24.28 26.9814 23.7136 26.9814C23.1473 26.9814 22.6882 27.4405 22.6882 28.0068Z" fill="black"/>
<path d="M46.2843 26.9814C45.718 26.9814 45.2589 27.4405 45.2589 28.0068V30.1753C45.2589 30.7416 45.718 31.2007 46.2843 31.2007C46.8506 31.2007 47.3097 30.7416 47.3097 30.1753V28.0068C47.3097 27.4405 46.8506 26.9814 46.2843 26.9814Z" fill="black"/>
<path d="M37.2011 29.4371C36.6452 30.075 35.8425 30.4408 34.9988 30.4408C34.1551 30.4408 33.3524 30.075 32.7965 29.4372C32.4245 29.0102 31.7769 28.9658 31.3498 29.3378C30.9228 29.7098 30.8784 30.3576 31.2504 30.7846C32.1959 31.8696 33.562 32.4918 34.9988 32.4918C36.4354 32.4918 37.8015 31.8696 38.7472 30.7847C39.1192 30.3577 39.0748 29.7101 38.6478 29.3379C38.2209 28.9658 37.5732 29.0102 37.2011 29.4371Z" fill="black"/>
<path d="M54.7277 7.55152C49.2915 2.68188 42.285 0 34.9989 0C29.2145 0 23.6059 1.67768 18.7792 4.85146C18.306 5.16264 18.1747 5.79838 18.4858 6.27156C18.7968 6.74475 19.4328 6.87627 19.9059 6.56496C24.3971 3.6117 29.6162 2.05078 34.9989 2.05078C41.7792 2.05078 48.2998 4.54672 53.3593 9.07908C57.7859 13.0442 60.7939 18.2844 61.98 24.0244C61.0202 23.5695 59.9241 23.3114 58.8477 23.2887C58.2087 21.5615 56.8404 20.1096 55.027 19.3994C51.6187 18.0651 48.0859 14.9036 46.1533 12.0925C45.7342 11.4743 44.8066 11.4953 44.4215 12.1466C41.7286 16.7088 36.6219 19.1676 31.4103 19.9857C33.1104 16.4887 31.6179 12.4999 31.5409 12.2999C31.2658 11.585 30.3192 11.4086 29.8096 11.9957C26.5175 15.7868 21.4419 17.6761 16.5174 18.4286C13.8738 18.8326 11.7583 20.7617 11.105 23.2899C10.0728 23.3174 8.98916 23.5643 8.01763 24.0246C9.21255 18.2402 12.2559 12.9685 16.7386 8.99145C17.1622 8.61561 17.2009 7.96756 16.8252 7.54387C16.4494 7.12031 15.8013 7.08148 15.3776 7.45732C10.0085 12.2209 6.56322 18.7153 5.64761 25.7765C4.37968 27.1515 3.60339 28.9863 3.60339 30.9996C3.60339 35.5153 7.49222 39.0994 12.0316 38.6773C14.2054 44.126 18.2715 48.6391 23.4027 51.3927C19.1226 55.3278 16.1591 61.5445 16.1591 68.9746C16.1591 69.5409 16.6182 70 17.1845 70H52.8135C53.38 70 53.8389 69.5409 53.8389 68.9746C53.8389 61.6239 50.925 55.3871 46.6172 51.413C48.4916 50.4124 50.2457 49.1641 51.8341 47.6848C52.2485 47.2988 52.2716 46.6499 51.8855 46.2355C51.4995 45.8212 50.8508 45.798 50.4363 46.1841C45.7426 50.5557 39.6623 52.5675 33.6904 52.2214C19.5671 51.4058 9.39726 37.7225 13.0982 23.7742C13.5605 22.033 15.0249 20.7312 16.8274 20.4557C21.6255 19.7222 26.4822 17.977 30.0358 14.7008C30.2914 16.3146 30.2947 18.7666 28.5481 20.513C27.9102 21.1511 28.3483 22.2711 29.2919 22.2633C30.814 22.2353 33.4043 21.8261 35.7519 21.0667C39.5626 19.8343 43.0085 17.6792 45.3647 14.4417C47.7018 17.3123 50.8459 19.9646 54.2796 21.309C56.716 22.2629 57.0871 24.5556 57.095 24.571C58.5343 30.6686 57.295 37.692 53.0712 43.2681C52.7293 43.7195 52.818 44.3626 53.2695 44.7046C53.7208 45.0464 54.3641 44.9578 54.706 44.5063C56.0765 42.6969 57.1754 40.7407 57.9908 38.6792C65.0221 39.3084 69.0915 30.9177 64.3504 25.7763C63.4411 18.7657 60.0339 12.3047 54.7277 7.55152ZM42.8806 53.0254V56.3743H36.0243V54.2881C38.4456 54.1896 40.7648 53.7391 42.8806 53.0254ZM50.8861 62.3015H44.9316V58.425H49.3518C49.9862 59.6574 50.499 60.9502 50.8861 62.3015ZM42.8806 62.3015H36.0243V58.425H42.8806V62.3015ZM20.6461 58.4251H25.0663V62.3016H19.1118C19.4989 60.9502 20.0117 59.6574 20.6461 58.4251ZM27.1171 58.4251H33.9736V62.3016H27.1171V58.4251ZM27.1171 53.0149C29.3276 53.7659 31.6231 54.1911 33.9736 54.2871V56.3743H27.1171V53.0149ZM33.9736 64.3523V67.9492H27.1171V64.3523H33.9736ZM36.0243 64.3523H42.8806V67.9492H36.0243V64.3523ZM25.0663 52.6576V56.3743H21.853C22.8623 54.8626 23.9645 53.6231 25.0663 52.6576ZM18.6299 64.3523H25.0663V67.9492H18.2292C18.2762 66.7131 18.4121 65.5144 18.6299 64.3523ZM44.9314 67.9492V64.3523H51.3679C51.5857 65.5144 51.7216 66.7131 51.7686 67.9492H44.9314ZM48.1447 56.3743H44.9314V52.6576C46.022 53.6133 47.1325 54.8562 48.1447 56.3743ZM11.3251 36.6614C6.164 36.6614 3.72781 30.3475 7.45189 26.8648C7.5372 26.8064 8.66171 25.6095 10.6519 25.3777C10.0219 29.0347 10.2006 32.9178 11.3251 36.6614ZM58.6883 36.6613C59.8001 32.9197 59.9725 29.0011 59.3466 25.3779C62.1599 25.7049 64.3434 28.1073 64.3434 30.9996C64.3436 34.1194 61.8072 36.6577 58.6883 36.6613Z" fill="black"/>
</svg>
