<svg width="67" height="57" viewBox="0 0 67 57" fill="none" xmlns="http://www.w3.org/2000/svg">
<path d="M58.711 1.28271H8.28903C4.25385 1.28271 0.981445 4.59293 0.981445 8.67496V38.3916C0.981445 42.4736 4.25385 45.7838 8.28903 45.7838H26.7113L24.8698 53.0489C24.3875 54.9515 26.4876 56.4464 28.0954 55.3464L42.0733 45.7838H58.711C62.7462 45.7838 66.0186 42.4736 66.0186 38.3916V8.67483C66.0186 4.59293 62.7462 1.28271 58.711 1.28271V1.28271Z" fill="white"/>
<path d="M58.711 1.28271H57.8333C52.0926 22.7159 32.5352 38.4985 9.29102 38.4985C6.4604 38.4985 3.68448 38.2642 0.981445 37.8145V38.3916C0.981445 42.4735 4.25385 45.7838 8.28903 45.7838H26.7113L24.8698 53.0489C24.3875 54.9515 26.4876 56.4464 28.0954 55.3464L42.0733 45.7838H58.711C62.7462 45.7838 66.0186 42.4736 66.0186 38.3916V8.67483C66.0186 4.59293 62.7462 1.28271 58.711 1.28271V1.28271Z" fill="#F2F2F2"/>
<path d="M58.7108 0.30127H22.3268C21.7847 0.30127 21.3454 0.740695 21.3454 1.28271C21.3454 1.82473 21.7847 2.26416 22.3268 2.26416H58.7108C62.199 2.26416 65.037 5.14006 65.037 8.67483V38.3916C65.037 41.9265 62.199 44.8022 58.7108 44.8022H45.0092C44.4671 44.8022 44.0278 45.2417 44.0278 45.7837C44.0278 46.3257 44.4671 46.7651 45.0092 46.7651H58.7108C63.2815 46.7651 66.9999 43.0087 66.9999 38.3916V8.67483C66.9999 4.05772 63.2815 0.30127 58.7108 0.30127V0.30127Z" fill="black"/>
<path d="M40.435 45.7154L27.5413 54.5362C26.9528 54.9389 26.425 54.6336 26.2772 54.5305C26.1237 54.4233 25.6369 54.017 25.8213 53.2899L27.6628 46.0248C27.7371 45.7313 27.6718 45.4199 27.4858 45.1809C27.2999 44.942 27.0141 44.8022 26.7113 44.8022H8.28903C4.80084 44.8022 1.96289 41.9263 1.96289 38.3916V8.67483C1.96289 5.13993 4.80084 2.26416 8.28903 2.26416H17.7409C18.283 2.26416 18.7223 1.82473 18.7223 1.28271C18.7223 0.740695 18.283 0.30127 17.7409 0.30127H8.28903C3.71837 0.30127 0 4.05772 0 8.67483V38.3916C0 43.0088 3.71837 46.7651 8.28903 46.7651H25.4501L23.9185 52.8076C23.5954 54.0824 24.0802 55.3903 25.1535 56.1398C25.6868 56.5122 26.2999 56.6985 26.9131 56.6985C27.5168 56.6985 28.1209 56.5179 28.6496 56.1562L41.5433 47.3354C41.9907 47.0293 42.1053 46.4186 41.7992 45.9712C41.493 45.5239 40.8823 45.4093 40.435 45.7154V45.7154Z" fill="black"/>
<path d="M7.24 32.68V28.416C7.24 27.9307 7.264 27.456 7.312 26.992C7.36 26.5227 7.424 26.0267 7.504 25.504H8.84C8.92 26.0267 8.98133 26.5227 9.024 26.992C9.072 27.456 9.096 27.9307 9.096 28.416V32.68H7.24ZM6.936 22.864C6.936 22.6933 6.96533 22.536 7.024 22.392C7.088 22.2427 7.17333 22.1147 7.28 22.008C7.38667 21.9013 7.51467 21.8187 7.664 21.76C7.81333 21.696 7.97333 21.664 8.144 21.664C8.30933 21.664 8.46667 21.696 8.616 21.76C8.76533 21.8187 8.89333 21.9013 9 22.008C9.112 22.1147 9.2 22.2427 9.264 22.392C9.328 22.536 9.36 22.6933 9.36 22.864C9.36 23.0347 9.328 23.1947 9.264 23.344C9.2 23.488 9.112 23.6133 9 23.72C8.89333 23.8267 8.76533 23.912 8.616 23.976C8.46667 24.04 8.30933 24.072 8.144 24.072C7.97333 24.072 7.81333 24.04 7.664 23.976C7.51467 23.912 7.38667 23.8267 7.28 23.72C7.17333 23.6133 7.088 23.488 7.024 23.344C6.96533 23.1947 6.936 23.0347 6.936 22.864ZM25.2431 18.432V30H23.0831V24.944H17.6511V30H15.4911V18.432H17.6511V23.408H23.0831V18.432H25.2431ZM30.8893 21.664C31.4973 21.664 32.0493 21.7627 32.5453 21.96C33.0466 22.1573 33.4733 22.4373 33.8253 22.8C34.1826 23.1627 34.4572 23.6053 34.6493 24.128C34.8413 24.6507 34.9373 25.2347 34.9373 25.88C34.9373 26.5307 34.8413 27.1173 34.6493 27.64C34.4572 28.1627 34.1826 28.608 33.8253 28.976C33.4733 29.344 33.0466 29.6267 32.5453 29.824C32.0493 30.0213 31.4973 30.12 30.8893 30.12C30.2759 30.12 29.7186 30.0213 29.2173 29.824C28.7159 29.6267 28.2866 29.344 27.9293 28.976C27.5773 28.608 27.3026 28.1627 27.1053 27.64C26.9133 27.1173 26.8173 26.5307 26.8173 25.88C26.8173 25.2347 26.9133 24.6507 27.1053 24.128C27.3026 23.6053 27.5773 23.1627 27.9293 22.8C28.2866 22.4373 28.7159 22.1573 29.2173 21.96C29.7186 21.7627 30.2759 21.664 30.8893 21.664ZM30.8893 28.6C31.5719 28.6 32.0759 28.3707 32.4013 27.912C32.7319 27.4533 32.8973 26.7813 32.8973 25.896C32.8973 25.0107 32.7319 24.336 32.4013 23.872C32.0759 23.408 31.5719 23.176 30.8893 23.176C30.1959 23.176 29.6813 23.4107 29.3453 23.88C29.0146 24.344 28.8493 25.016 28.8493 25.896C28.8493 26.776 29.0146 27.448 29.3453 27.912C29.6813 28.3707 30.1959 28.6 30.8893 28.6ZM38.4448 18.112V30H36.4688V18.112H38.4448ZM44.7495 26.496C44.1788 26.5227 43.6988 26.5733 43.3095 26.648C42.9202 26.7173 42.6082 26.808 42.3735 26.92C42.1388 27.032 41.9708 27.1627 41.8695 27.312C41.7682 27.4613 41.7175 27.624 41.7175 27.8C41.7175 28.1467 41.8188 28.3947 42.0215 28.544C42.2295 28.6933 42.4988 28.768 42.8295 28.768C43.2348 28.768 43.5842 28.696 43.8775 28.552C44.1762 28.4027 44.4668 28.1787 44.7495 27.88V26.496ZM40.2215 22.936C41.1655 22.072 42.3015 21.64 43.6295 21.64C44.1095 21.64 44.5388 21.72 44.9175 21.88C45.2962 22.0347 45.6162 22.2533 45.8775 22.536C46.1388 22.8133 46.3362 23.1467 46.4695 23.536C46.6082 23.9253 46.6775 24.352 46.6775 24.816V30H45.7815C45.5948 30 45.4508 29.9733 45.3495 29.92C45.2482 29.8613 45.1682 29.7467 45.1095 29.576L44.9335 28.984C44.7255 29.1707 44.5228 29.336 44.3255 29.48C44.1282 29.6187 43.9228 29.736 43.7095 29.832C43.4962 29.928 43.2668 30 43.0215 30.048C42.7815 30.1013 42.5148 30.128 42.2215 30.128C41.8748 30.128 41.5548 30.0827 41.2615 29.992C40.9682 29.896 40.7148 29.7547 40.5015 29.568C40.2882 29.3813 40.1228 29.1493 40.0055 28.872C39.8882 28.5947 39.8295 28.272 39.8295 27.904C39.8295 27.696 39.8642 27.4907 39.9335 27.288C40.0028 27.08 40.1148 26.8827 40.2695 26.696C40.4295 26.5093 40.6348 26.3333 40.8855 26.168C41.1362 26.0027 41.4428 25.8587 41.8055 25.736C42.1735 25.6133 42.6002 25.5147 43.0855 25.44C43.5708 25.36 44.1255 25.312 44.7495 25.296V24.816C44.7495 24.2667 44.6322 23.8613 44.3975 23.6C44.1628 23.3333 43.8242 23.2 43.3815 23.2C43.0615 23.2 42.7948 23.2373 42.5815 23.312C42.3735 23.3867 42.1895 23.472 42.0295 23.568C41.8695 23.6587 41.7228 23.7413 41.5895 23.816C41.4615 23.8907 41.3175 23.928 41.1575 23.928C41.0188 23.928 40.9015 23.8933 40.8055 23.824C40.7095 23.7493 40.6322 23.664 40.5735 23.568L40.2215 22.936ZM54.6371 18.432V23.008C54.6371 23.4933 54.6131 23.9707 54.5651 24.44C54.5171 24.904 54.4558 25.3973 54.3811 25.92H53.0371C52.9625 25.3973 52.9011 24.904 52.8531 24.44C52.8051 23.9707 52.7811 23.4933 52.7811 23.008V18.432H54.6371ZM52.4691 28.912C52.4691 28.7467 52.4985 28.5893 52.5571 28.44C52.6211 28.2907 52.7065 28.1627 52.8131 28.056C52.9251 27.9493 53.0558 27.864 53.2051 27.8C53.3545 27.736 53.5145 27.704 53.6851 27.704C53.8505 27.704 54.0078 27.736 54.1571 27.8C54.3065 27.864 54.4345 27.9493 54.5411 28.056C54.6531 28.1627 54.7411 28.2907 54.8051 28.44C54.8691 28.5893 54.9011 28.7467 54.9011 28.912C54.9011 29.0827 54.8691 29.2427 54.8051 29.392C54.7411 29.536 54.6531 29.6613 54.5411 29.768C54.4345 29.8747 54.3065 29.9573 54.1571 30.016C54.0078 30.08 53.8505 30.112 53.6851 30.112C53.5145 30.112 53.3545 30.08 53.2051 30.016C53.0558 29.9573 52.9251 29.8747 52.8131 29.768C52.7065 29.6613 52.6211 29.536 52.5571 29.392C52.4985 29.2427 52.4691 29.0827 52.4691 28.912Z" fill="#1E1E1E"/>
</svg>
