<svg width="118" height="80" viewBox="0 0 118 80" fill="none" xmlns="http://www.w3.org/2000/svg">
<path d="M103.401 3.99951H14.5986C7.49185 3.99951 1.72852 9.82945 1.72852 17.0187V47.084C1.72852 54.2733 7.49185 60.1032 14.5986 60.1032H47.0437L43.8006 72.8984C42.9511 76.2494 46.6499 78.882 49.4814 76.9447L74.0992 60.1032H103.401C110.508 60.1032 116.271 54.2733 116.271 47.084V17.0185C116.271 9.82945 110.508 3.99951 103.401 3.99951Z" fill="white"/>
<path d="M103.673 3.99951H102.127C92.0167 41.7475 57.5722 47.544 16.6348 47.544C11.6495 47.544 6.76056 47.1315 2 46.3393V47.3557C2 54.5447 7.76333 60.3749 14.8701 60.3749H47.3152L44.0721 73.1701C43.2226 76.5211 46.9214 79.1537 49.7529 77.2164L74.3707 60.3749H103.673C110.78 60.3749 116.543 54.545 116.543 47.3557V17.0185C116.543 9.82945 110.78 3.99951 103.673 3.99951Z" fill="#F2F2F2"/>
<path d="M103.401 0.499512H39.3219C38.3671 0.499512 37.5934 1.27343 37.5934 2.22803C37.5934 3.18263 38.3671 3.95654 39.3219 3.95654H103.401C109.545 3.95654 114.543 9.02155 114.543 15.247V47.0844C114.543 53.3101 109.545 58.3749 103.401 58.3749H79.27C78.3151 58.3749 77.5415 59.1488 77.5415 60.1034C77.5415 61.058 78.3151 61.8319 79.27 61.8319H103.401C111.451 61.8319 118 55.216 118 47.0844V15.247C118 7.11535 111.451 0.499512 103.401 0.499512Z" fill="black"/>
<path d="M71.2139 59.9836L48.5056 75.5188C47.4692 76.2279 46.5395 75.6903 46.2793 75.5086C46.0089 75.3199 45.1516 74.6043 45.4763 73.3238L48.7195 60.5286C48.8504 60.0117 48.7354 59.4632 48.4079 59.0423C48.0804 58.6215 47.5771 58.3754 47.0438 58.3754H14.5986C8.45522 58.3754 3.45704 53.3104 3.45704 47.0849L3.45703 15.2475C3.45703 9.02181 8.45521 3.95703 14.5986 3.95703H31.2451C32.1999 3.95703 32.9736 3.18312 32.9736 2.22852C32.9736 1.27391 32.1999 0.5 31.2451 0.5H14.5986C6.54877 0.5 0 7.11584 0 15.2475L1.04904e-05 47.0849C1.04904e-05 55.2168 6.54878 61.8324 14.5986 61.8324H44.8225L42.1251 72.4743C41.5561 74.7195 42.41 77.023 44.3003 78.3429C45.2394 78.9989 46.3192 79.327 47.3991 79.327C48.4625 79.327 49.5264 79.009 50.4575 78.372L73.1658 62.8368C73.9537 62.2977 74.1556 61.2221 73.6166 60.4341C73.0773 59.6464 72.0017 59.4445 71.2139 59.9836Z" fill="black"/>
<path d="M14.776 37.624C14.5893 37.784 14.3893 37.9333 14.176 38.072C13.9627 38.216 13.728 38.3413 13.472 38.448C13.2213 38.56 12.9493 38.6453 12.656 38.704C12.368 38.768 12.0533 38.8 11.712 38.8C11.248 38.8 10.824 38.7387 10.44 38.616C10.0613 38.4933 9.736 38.3173 9.464 38.088C9.192 37.8587 8.98133 37.5787 8.832 37.248C8.68267 36.9227 8.608 36.552 8.608 36.136C8.608 35.7307 8.66667 35.3867 8.784 35.104C8.90133 34.8213 9.048 34.5813 9.224 34.384C9.4 34.1813 9.592 34.0107 9.8 33.872C10.0133 33.7333 10.2133 33.6027 10.4 33.48C10.5867 33.3573 10.7467 33.2347 10.88 33.112C11.0133 32.984 11.096 32.8347 11.128 32.664L11.312 31.504H12.664L12.808 32.808C12.84 33.08 12.8027 33.3067 12.696 33.488C12.5947 33.6693 12.456 33.8293 12.28 33.968C12.104 34.1013 11.9093 34.2267 11.696 34.344C11.4827 34.4613 11.2827 34.592 11.096 34.736C10.9147 34.88 10.76 35.048 10.632 35.24C10.5093 35.432 10.448 35.672 10.448 35.96C10.448 36.152 10.4827 36.3227 10.552 36.472C10.6267 36.6267 10.728 36.7573 10.856 36.864C10.984 36.976 11.136 37.0613 11.312 37.12C11.488 37.1787 11.68 37.208 11.888 37.208C12.192 37.208 12.448 37.1733 12.656 37.104C12.864 37.0347 13.0427 36.96 13.192 36.88C13.3413 36.8 13.4667 36.7253 13.568 36.656C13.6693 36.5867 13.76 36.552 13.84 36.552C14.032 36.552 14.1707 36.6347 14.256 36.8L14.776 37.624ZM10.816 28.864C10.816 28.6987 10.8453 28.5413 10.904 28.392C10.968 28.2427 11.0533 28.1147 11.16 28.008C11.2667 27.9013 11.3947 27.816 11.544 27.752C11.6933 27.688 11.8533 27.656 12.024 27.656C12.1947 27.656 12.352 27.688 12.496 27.752C12.6453 27.816 12.7733 27.9013 12.88 28.008C12.992 28.1147 13.08 28.2427 13.144 28.392C13.208 28.5413 13.24 28.6987 13.24 28.864C13.24 29.0347 13.208 29.1947 13.144 29.344C13.08 29.488 12.992 29.6133 12.88 29.72C12.7733 29.8267 12.6453 29.912 12.496 29.976C12.352 30.0347 12.1947 30.064 12.024 30.064C11.8533 30.064 11.6933 30.0347 11.544 29.976C11.3947 29.912 11.2667 29.8267 11.16 29.72C11.0533 29.6133 10.968 29.488 10.904 29.344C10.8453 29.1947 10.816 29.0347 10.816 28.864ZM24.0758 33.272C24.1931 33.272 24.2971 33.3173 24.3878 33.408L25.2358 34.328C24.7664 34.9093 24.1878 35.3547 23.4998 35.664C22.8171 35.9733 21.9958 36.128 21.0358 36.128C20.1771 36.128 19.4038 35.9813 18.7158 35.688C18.0331 35.3947 17.4491 34.9867 16.9638 34.464C16.4784 33.9413 16.1051 33.3173 15.8438 32.592C15.5878 31.8667 15.4598 31.0747 15.4598 30.216C15.4598 29.3467 15.5984 28.552 15.8758 27.832C16.1531 27.1067 16.5424 26.4827 17.0438 25.96C17.5504 25.4373 18.1531 25.032 18.8518 24.744C19.5504 24.4507 20.3238 24.304 21.1718 24.304C22.0144 24.304 22.7611 24.4427 23.4118 24.72C24.0678 24.9973 24.6251 25.36 25.0838 25.808L24.3638 26.808C24.3211 26.872 24.2651 26.928 24.1958 26.976C24.1318 27.024 24.0411 27.048 23.9238 27.048C23.8438 27.048 23.7611 27.0267 23.6758 26.984C23.5904 26.936 23.4971 26.88 23.3958 26.816C23.2944 26.7467 23.1771 26.672 23.0438 26.592C22.9104 26.512 22.7558 26.44 22.5798 26.376C22.4038 26.3067 22.1984 26.2507 21.9638 26.208C21.7344 26.16 21.4678 26.136 21.1638 26.136C20.6464 26.136 20.1718 26.2293 19.7398 26.416C19.3131 26.5973 18.9451 26.864 18.6358 27.216C18.3264 27.5627 18.0864 27.9893 17.9158 28.496C17.7451 28.9973 17.6598 29.5707 17.6598 30.216C17.6598 30.8667 17.7504 31.4453 17.9318 31.952C18.1184 32.4587 18.3691 32.8853 18.6838 33.232C18.9984 33.5787 19.3691 33.8453 19.7958 34.032C20.2224 34.2133 20.6811 34.304 21.1718 34.304C21.4651 34.304 21.7291 34.288 21.9638 34.256C22.2038 34.224 22.4224 34.1733 22.6198 34.104C22.8224 34.0347 23.0118 33.9467 23.1878 33.84C23.3691 33.728 23.5478 33.592 23.7238 33.432C23.7771 33.384 23.8331 33.3467 23.8918 33.32C23.9504 33.288 24.0118 33.272 24.0758 33.272ZM29.858 27.664C30.466 27.664 31.018 27.7627 31.514 27.96C32.0153 28.1573 32.442 28.4373 32.794 28.8C33.1513 29.1627 33.426 29.6053 33.618 30.128C33.81 30.6507 33.906 31.2347 33.906 31.88C33.906 32.5307 33.81 33.1173 33.618 33.64C33.426 34.1627 33.1513 34.608 32.794 34.976C32.442 35.344 32.0153 35.6267 31.514 35.824C31.018 36.0213 30.466 36.12 29.858 36.12C29.2447 36.12 28.6873 36.0213 28.186 35.824C27.6847 35.6267 27.2553 35.344 26.898 34.976C26.546 34.608 26.2713 34.1627 26.074 33.64C25.882 33.1173 25.786 32.5307 25.786 31.88C25.786 31.2347 25.882 30.6507 26.074 30.128C26.2713 29.6053 26.546 29.1627 26.898 28.8C27.2553 28.4373 27.6847 28.1573 28.186 27.96C28.6873 27.7627 29.2447 27.664 29.858 27.664ZM29.858 34.6C30.5407 34.6 31.0447 34.3707 31.37 33.912C31.7007 33.4533 31.866 32.7813 31.866 31.896C31.866 31.0107 31.7007 30.336 31.37 29.872C31.0447 29.408 30.5407 29.176 29.858 29.176C29.1647 29.176 28.65 29.4107 28.314 29.88C27.9833 30.344 27.818 31.016 27.818 31.896C27.818 32.776 27.9833 33.448 28.314 33.912C28.65 34.3707 29.1647 34.6 29.858 34.6ZM35.4135 36V27.792H36.6215C36.8775 27.792 37.0455 27.912 37.1255 28.152L37.2535 28.76C37.3975 28.6 37.5468 28.4533 37.7015 28.32C37.8615 28.1867 38.0295 28.072 38.2055 27.976C38.3868 27.88 38.5788 27.8053 38.7815 27.752C38.9895 27.6933 39.2162 27.664 39.4615 27.664C39.9788 27.664 40.4028 27.8053 40.7335 28.088C41.0695 28.3653 41.3202 28.736 41.4855 29.2C41.6135 28.928 41.7735 28.696 41.9655 28.504C42.1575 28.3067 42.3682 28.1467 42.5975 28.024C42.8268 27.9013 43.0695 27.8107 43.3255 27.752C43.5868 27.6933 43.8482 27.664 44.1095 27.664C44.5628 27.664 44.9655 27.7333 45.3175 27.872C45.6695 28.0107 45.9655 28.2133 46.2055 28.48C46.4455 28.7467 46.6268 29.072 46.7495 29.456C46.8775 29.84 46.9415 30.28 46.9415 30.776V36H44.9655V30.776C44.9655 30.2533 44.8508 29.8613 44.6215 29.6C44.3922 29.3333 44.0562 29.2 43.6135 29.2C43.4108 29.2 43.2215 29.2347 43.0455 29.304C42.8748 29.3733 42.7228 29.4747 42.5895 29.608C42.4615 29.736 42.3602 29.8987 42.2855 30.096C42.2108 30.2933 42.1735 30.52 42.1735 30.776V36H40.1895V30.776C40.1895 30.2267 40.0775 29.8267 39.8535 29.576C39.6348 29.3253 39.3122 29.2 38.8855 29.2C38.5975 29.2 38.3282 29.272 38.0775 29.416C37.8322 29.5547 37.6028 29.7467 37.3895 29.992V36H35.4135ZM52.4518 27.664C53.0598 27.664 53.6118 27.7627 54.1078 27.96C54.6091 28.1573 55.0358 28.4373 55.3878 28.8C55.7451 29.1627 56.0197 29.6053 56.2118 30.128C56.4038 30.6507 56.4998 31.2347 56.4998 31.88C56.4998 32.5307 56.4038 33.1173 56.2118 33.64C56.0197 34.1627 55.7451 34.608 55.3878 34.976C55.0358 35.344 54.6091 35.6267 54.1078 35.824C53.6118 36.0213 53.0598 36.12 52.4518 36.12C51.8384 36.12 51.2811 36.0213 50.7798 35.824C50.2784 35.6267 49.8491 35.344 49.4918 34.976C49.1398 34.608 48.8651 34.1627 48.6678 33.64C48.4758 33.1173 48.3798 32.5307 48.3798 31.88C48.3798 31.2347 48.4758 30.6507 48.6678 30.128C48.8651 29.6053 49.1398 29.1627 49.4918 28.8C49.8491 28.4373 50.2784 28.1573 50.7798 27.96C51.2811 27.7627 51.8384 27.664 52.4518 27.664ZM52.4518 34.6C53.1344 34.6 53.6384 34.3707 53.9638 33.912C54.2944 33.4533 54.4598 32.7813 54.4598 31.896C54.4598 31.0107 54.2944 30.336 53.9638 29.872C53.6384 29.408 53.1344 29.176 52.4518 29.176C51.7584 29.176 51.2438 29.4107 50.9078 29.88C50.5771 30.344 50.4118 31.016 50.4118 31.896C50.4118 32.776 50.5771 33.448 50.9078 33.912C51.2438 34.3707 51.7584 34.6 52.4518 34.6ZM67.1859 30.952C67.1859 30.696 67.1485 30.456 67.0739 30.232C67.0045 30.0027 66.8979 29.8027 66.7539 29.632C66.6099 29.4613 66.4259 29.328 66.2019 29.232C65.9832 29.1307 65.7272 29.08 65.4339 29.08C64.8632 29.08 64.4125 29.2427 64.0819 29.568C63.7565 29.8933 63.5485 30.3547 63.4579 30.952H67.1859ZM63.4179 32.144C63.4499 32.5653 63.5245 32.9307 63.6419 33.24C63.7592 33.544 63.9139 33.7973 64.1059 34C64.2979 34.1973 64.5245 34.3467 64.7859 34.448C65.0525 34.544 65.3459 34.592 65.6659 34.592C65.9859 34.592 66.2605 34.5547 66.4899 34.48C66.7245 34.4053 66.9272 34.3227 67.0979 34.232C67.2739 34.1413 67.4259 34.0587 67.5539 33.984C67.6872 33.9093 67.8152 33.872 67.9379 33.872C68.1032 33.872 68.2259 33.9333 68.3059 34.056L68.8739 34.776C68.6552 35.032 68.4099 35.248 68.1379 35.424C67.8659 35.5947 67.5805 35.7333 67.2819 35.84C66.9885 35.9413 66.6872 36.0133 66.3779 36.056C66.0739 36.0987 65.7779 36.12 65.4899 36.12C64.9192 36.12 64.3885 36.0267 63.8979 35.84C63.4072 35.648 62.9805 35.368 62.6179 35C62.2552 34.6267 61.9699 34.168 61.7619 33.624C61.5539 33.0747 61.4499 32.44 61.4499 31.72C61.4499 31.16 61.5405 30.6347 61.7219 30.144C61.9032 29.648 62.1619 29.2187 62.4979 28.856C62.8392 28.488 63.2525 28.1973 63.7379 27.984C64.2285 27.7707 64.7805 27.664 65.3939 27.664C65.9112 27.664 66.3885 27.7467 66.8259 27.912C67.2632 28.0773 67.6392 28.32 67.9539 28.64C68.2685 28.9547 68.5139 29.344 68.6899 29.808C68.8712 30.2667 68.9619 30.792 68.9619 31.384C68.9619 31.6827 68.9299 31.8853 68.8659 31.992C68.8019 32.0933 68.6792 32.144 68.4979 32.144H63.4179ZM75.4528 29.392C75.3994 29.4773 75.3434 29.5387 75.2848 29.576C75.2261 29.608 75.1514 29.624 75.0608 29.624C74.9648 29.624 74.8608 29.5973 74.7488 29.544C74.6421 29.4907 74.5168 29.432 74.3728 29.368C74.2288 29.2987 74.0634 29.2373 73.8767 29.184C73.6954 29.1307 73.4794 29.104 73.2288 29.104C72.8394 29.104 72.5328 29.1867 72.3088 29.352C72.0901 29.5173 71.9808 29.7333 71.9808 30C71.9808 30.176 72.0368 30.3253 72.1488 30.448C72.2661 30.5653 72.4181 30.6693 72.6048 30.76C72.7968 30.8507 73.0128 30.9333 73.2528 31.008C73.4928 31.0773 73.7354 31.1547 73.9808 31.24C74.2314 31.3253 74.4768 31.424 74.7168 31.536C74.9568 31.6427 75.1701 31.7813 75.3568 31.952C75.5488 32.1173 75.7008 32.3173 75.8128 32.552C75.9301 32.7867 75.9888 33.0693 75.9888 33.4C75.9888 33.7947 75.9168 34.16 75.7728 34.496C75.6341 34.8267 75.4261 35.1147 75.1488 35.36C74.8714 35.6 74.5274 35.7893 74.1168 35.928C73.7114 36.0613 73.2421 36.128 72.7088 36.128C72.4261 36.128 72.1488 36.1013 71.8768 36.048C71.6101 36 71.3514 35.9307 71.1008 35.84C70.8554 35.7493 70.6261 35.6427 70.4128 35.52C70.2048 35.3973 70.0208 35.264 69.8608 35.12L70.3168 34.368C70.3754 34.2773 70.4448 34.208 70.5247 34.16C70.6047 34.112 70.7061 34.088 70.8288 34.088C70.9514 34.088 71.0661 34.1227 71.1728 34.192C71.2848 34.2613 71.4128 34.336 71.5568 34.416C71.7008 34.496 71.8688 34.5707 72.0608 34.64C72.2581 34.7093 72.5061 34.744 72.8048 34.744C73.0394 34.744 73.2394 34.7173 73.4048 34.664C73.5754 34.6053 73.7141 34.5307 73.8208 34.44C73.9328 34.3493 74.0127 34.2453 74.0608 34.128C74.1141 34.0053 74.1408 33.88 74.1408 33.752C74.1408 33.56 74.0821 33.4027 73.9648 33.28C73.8528 33.1573 73.7008 33.0507 73.5087 32.96C73.3221 32.8693 73.1061 32.7893 72.8608 32.72C72.6208 32.6453 72.3728 32.5653 72.1168 32.48C71.8661 32.3947 71.6181 32.296 71.3728 32.184C71.1328 32.0667 70.9168 31.92 70.7248 31.744C70.5381 31.568 70.3861 31.352 70.2688 31.096C70.1568 30.84 70.1008 30.5307 70.1008 30.168C70.1008 29.832 70.1674 29.512 70.3008 29.208C70.4341 28.904 70.6288 28.64 70.8848 28.416C71.1461 28.1867 71.4688 28.0053 71.8528 27.872C72.2421 27.7333 72.6901 27.664 73.1968 27.664C73.7621 27.664 74.2768 27.7573 74.7408 27.944C75.2048 28.1307 75.5914 28.376 75.9008 28.68L75.4528 29.392ZM80.212 36.128C79.4973 36.128 78.948 35.928 78.564 35.528C78.1853 35.1227 77.996 34.5653 77.996 33.856V29.272H77.156C77.0493 29.272 76.9587 29.2373 76.884 29.168C76.8093 29.0987 76.772 28.9947 76.772 28.856V28.072L78.092 27.856L78.508 25.616C78.5347 25.5093 78.5853 25.4267 78.66 25.368C78.7347 25.3093 78.8307 25.28 78.948 25.28H79.972V27.864H82.164V29.272H79.972V33.72C79.972 33.976 80.0333 34.176 80.156 34.32C80.284 34.464 80.4573 34.536 80.676 34.536C80.7987 34.536 80.9 34.5227 80.98 34.496C81.0653 34.464 81.1373 34.432 81.196 34.4C81.26 34.368 81.316 34.3387 81.364 34.312C81.412 34.28 81.46 34.264 81.508 34.264C81.5667 34.264 81.6147 34.28 81.652 34.312C81.6893 34.3387 81.7293 34.3813 81.772 34.44L82.364 35.4C82.076 35.64 81.7453 35.8213 81.372 35.944C80.9987 36.0667 80.612 36.128 80.212 36.128ZM87.7651 32.496C87.1945 32.5227 86.7145 32.5733 86.3251 32.648C85.9358 32.7173 85.6238 32.808 85.3891 32.92C85.1545 33.032 84.9865 33.1627 84.8851 33.312C84.7838 33.4613 84.7331 33.624 84.7331 33.8C84.7331 34.1467 84.8345 34.3947 85.0371 34.544C85.2451 34.6933 85.5145 34.768 85.8451 34.768C86.2505 34.768 86.5998 34.696 86.8931 34.552C87.1918 34.4027 87.4825 34.1787 87.7651 33.88V32.496ZM83.2371 28.936C84.1811 28.072 85.3171 27.64 86.6451 27.64C87.1251 27.64 87.5545 27.72 87.9331 27.88C88.3118 28.0347 88.6318 28.2533 88.8931 28.536C89.1545 28.8133 89.3518 29.1467 89.4851 29.536C89.6238 29.9253 89.6931 30.352 89.6931 30.816V36H88.7971C88.6105 36 88.4665 35.9733 88.3651 35.92C88.2638 35.8613 88.1838 35.7467 88.1251 35.576L87.9491 34.984C87.7411 35.1707 87.5385 35.336 87.3411 35.48C87.1438 35.6187 86.9385 35.736 86.7251 35.832C86.5118 35.928 86.2825 36 86.0371 36.048C85.7971 36.1013 85.5305 36.128 85.2371 36.128C84.8905 36.128 84.5705 36.0827 84.2771 35.992C83.9838 35.896 83.7305 35.7547 83.5171 35.568C83.3038 35.3813 83.1385 35.1493 83.0211 34.872C82.9038 34.5947 82.8451 34.272 82.8451 33.904C82.8451 33.696 82.8798 33.4907 82.9491 33.288C83.0185 33.08 83.1305 32.8827 83.2851 32.696C83.4451 32.5093 83.6505 32.3333 83.9011 32.168C84.1518 32.0027 84.4585 31.8587 84.8211 31.736C85.1891 31.6133 85.6158 31.5147 86.1011 31.44C86.5865 31.36 87.1411 31.312 87.7651 31.296V30.816C87.7651 30.2667 87.6478 29.8613 87.4131 29.6C87.1785 29.3333 86.8398 29.2 86.3971 29.2C86.0771 29.2 85.8105 29.2373 85.5971 29.312C85.3891 29.3867 85.2051 29.472 85.0451 29.568C84.8851 29.6587 84.7385 29.7413 84.6051 29.816C84.4771 29.8907 84.3331 29.928 84.1731 29.928C84.0345 29.928 83.9171 29.8933 83.8211 29.824C83.7251 29.7493 83.6478 29.664 83.5891 29.568L83.2371 28.936ZM93.4021 28.8C93.5675 28.6347 93.7408 28.4827 93.9221 28.344C94.1088 28.2 94.3035 28.08 94.5061 27.984C94.7141 27.8827 94.9355 27.8053 95.1701 27.752C95.4048 27.6933 95.6608 27.664 95.9381 27.664C96.3861 27.664 96.7835 27.7413 97.1301 27.896C97.4768 28.0453 97.7648 28.2587 97.9941 28.536C98.2288 28.808 98.4048 29.136 98.5221 29.52C98.6448 29.8987 98.7061 30.3173 98.7061 30.776V36H96.7301V30.776C96.7301 30.2747 96.6155 29.888 96.3861 29.616C96.1568 29.3387 95.8075 29.2 95.3381 29.2C94.9968 29.2 94.6768 29.2773 94.3781 29.432C94.0795 29.5867 93.7968 29.7973 93.5301 30.064V36H91.5541V27.792H92.7621C93.0181 27.792 93.1861 27.912 93.2661 28.152L93.4021 28.8ZM99.7868 25.48C99.9681 25.32 100.165 25.168 100.379 25.024C100.597 24.88 100.832 24.7547 101.083 24.648C101.333 24.5413 101.605 24.4587 101.899 24.4C102.192 24.336 102.509 24.304 102.851 24.304C103.315 24.304 103.736 24.368 104.115 24.496C104.499 24.624 104.827 24.808 105.099 25.048C105.371 25.2827 105.581 25.568 105.731 25.904C105.88 26.24 105.955 26.616 105.955 27.032C105.955 27.4373 105.896 27.7893 105.779 28.088C105.661 28.3813 105.515 28.6373 105.339 28.856C105.163 29.0747 104.968 29.264 104.755 29.424C104.547 29.584 104.349 29.736 104.163 29.88C103.976 30.0187 103.813 30.1573 103.675 30.296C103.541 30.4293 103.461 30.5813 103.435 30.752L103.251 31.92H101.899L101.763 30.616C101.731 30.3653 101.765 30.1467 101.867 29.96C101.973 29.768 102.112 29.5947 102.283 29.44C102.459 29.28 102.653 29.128 102.867 28.984C103.08 28.8347 103.28 28.6747 103.467 28.504C103.653 28.328 103.808 28.1333 103.931 27.92C104.059 27.7013 104.123 27.4427 104.123 27.144C104.123 26.952 104.085 26.7813 104.011 26.632C103.941 26.4773 103.843 26.3467 103.715 26.24C103.587 26.128 103.432 26.0427 103.251 25.984C103.075 25.9253 102.883 25.896 102.675 25.896C102.371 25.896 102.112 25.9307 101.899 26C101.691 26.064 101.512 26.1387 101.363 26.224C101.219 26.304 101.096 26.3787 100.995 26.448C100.893 26.512 100.803 26.544 100.723 26.544C100.531 26.544 100.392 26.464 100.307 26.304L99.7868 25.48ZM101.299 34.912C101.299 34.7467 101.328 34.5893 101.387 34.44C101.451 34.2907 101.536 34.1627 101.643 34.056C101.749 33.9493 101.877 33.864 102.027 33.8C102.176 33.736 102.336 33.704 102.507 33.704C102.677 33.704 102.835 33.736 102.979 33.8C103.128 33.864 103.256 33.9493 103.363 34.056C103.475 34.1627 103.563 34.2907 103.627 34.44C103.691 34.5893 103.723 34.7467 103.723 34.912C103.723 35.0827 103.691 35.2427 103.627 35.392C103.563 35.536 103.475 35.6613 103.363 35.768C103.256 35.8747 103.128 35.9573 102.979 36.016C102.835 36.08 102.677 36.112 102.507 36.112C102.336 36.112 102.176 36.08 102.027 36.016C101.877 35.9573 101.749 35.8747 101.643 35.768C101.536 35.6613 101.451 35.536 101.387 35.392C101.328 35.2427 101.299 35.0827 101.299 34.912Z" fill="#1E1E1E"/>
</svg>
