<svg width="102" height="86" viewBox="0 0 102 86" fill="none" xmlns="http://www.w3.org/2000/svg">
<path d="M89.3809 1.56494H12.6191C6.476 1.56494 1.49414 6.60438 1.49414 12.8188V58.059C1.49414 64.2734 6.476 69.3129 12.6191 69.3129H40.6649L37.8615 80.3731C37.1272 83.2697 40.3245 85.5454 42.7721 83.8708L64.0518 69.3129H89.3809C95.524 69.3129 100.506 64.2734 100.506 58.059V12.8186C100.506 6.60438 95.524 1.56494 89.3809 1.56494Z" fill="white"/>
<path d="M89.3809 1.56494H88.0447C79.3052 34.1946 49.5312 58.2218 14.1445 58.2218C9.83523 58.2218 5.6092 57.8652 1.49414 57.1804V58.059C1.49414 64.2732 6.476 69.3129 12.6191 69.3129H40.6649L37.8615 80.3731C37.1272 83.2697 40.3245 85.5454 42.7721 83.8708L64.0518 69.3129H89.3809C95.524 69.3129 100.506 64.2734 100.506 58.059V12.8186C100.506 6.60438 95.524 1.56494 89.3809 1.56494Z" fill="#F2F2F2"/>
<path d="M89.3807 0.0708008H33.9901C33.1647 0.0708008 32.496 0.739777 32.496 1.56494C32.496 2.39011 33.1647 3.05908 33.9901 3.05908H89.3807C94.6911 3.05908 99.0115 7.43731 99.0115 12.8186V58.059C99.0115 63.4405 94.6911 67.8185 89.3807 67.8185H68.5215C67.6961 67.8185 67.0274 68.4875 67.0274 69.3127C67.0274 70.1378 67.6961 70.8068 68.5215 70.8068H89.3807C96.339 70.8068 102 65.088 102 58.059V12.8186C102 5.78957 96.339 0.0708008 89.3807 0.0708008Z" fill="black"/>
<path d="M61.5578 69.2087L41.9286 82.6374C41.0327 83.2504 40.229 82.7856 40.0041 82.6286C39.7704 82.4655 39.0293 81.8469 39.31 80.7401L42.1135 69.6798C42.2266 69.233 42.1272 68.7588 41.8441 68.3951C41.561 68.0313 41.1259 67.8185 40.6649 67.8185H12.6191C7.30874 67.8185 2.98828 63.4403 2.98828 58.059V12.8186C2.98828 7.43711 7.30874 3.05908 12.6191 3.05908H27.0085C27.8339 3.05908 28.5026 2.39011 28.5026 1.56494C28.5026 0.739777 27.8339 0.0708008 27.0085 0.0708008H12.6191C5.6608 0.0708008 0 5.78957 0 12.8186V58.059C0 65.0882 5.6608 70.8068 12.6191 70.8068H38.7449L36.4132 80.0057C35.9213 81.9465 36.6594 83.9377 38.2934 85.0786C39.1053 85.6456 40.0386 85.9293 40.9721 85.9293C41.8913 85.9293 42.8109 85.6544 43.6158 85.1037L63.245 71.675C63.9261 71.209 64.1006 70.2793 63.6347 69.5981C63.1685 68.9172 62.2387 68.7427 61.5578 69.2087Z" fill="black"/>
<path d="M14.776 28.624C14.5893 28.784 14.3893 28.9333 14.176 29.072C13.9627 29.216 13.728 29.3413 13.472 29.448C13.2213 29.56 12.9493 29.6453 12.656 29.704C12.368 29.768 12.0533 29.8 11.712 29.8C11.248 29.8 10.824 29.7387 10.44 29.616C10.0613 29.4933 9.736 29.3173 9.464 29.088C9.192 28.8587 8.98133 28.5787 8.832 28.248C8.68267 27.9227 8.608 27.552 8.608 27.136C8.608 26.7307 8.66667 26.3867 8.784 26.104C8.90133 25.8213 9.048 25.5813 9.224 25.384C9.4 25.1813 9.592 25.0107 9.8 24.872C10.0133 24.7333 10.2133 24.6027 10.4 24.48C10.5867 24.3573 10.7467 24.2347 10.88 24.112C11.0133 23.984 11.096 23.8347 11.128 23.664L11.312 22.504H12.664L12.808 23.808C12.84 24.08 12.8027 24.3067 12.696 24.488C12.5947 24.6693 12.456 24.8293 12.28 24.968C12.104 25.1013 11.9093 25.2267 11.696 25.344C11.4827 25.4613 11.2827 25.592 11.096 25.736C10.9147 25.88 10.76 26.048 10.632 26.24C10.5093 26.432 10.448 26.672 10.448 26.96C10.448 27.152 10.4827 27.3227 10.552 27.472C10.6267 27.6267 10.728 27.7573 10.856 27.864C10.984 27.976 11.136 28.0613 11.312 28.12C11.488 28.1787 11.68 28.208 11.888 28.208C12.192 28.208 12.448 28.1733 12.656 28.104C12.864 28.0347 13.0427 27.96 13.192 27.88C13.3413 27.8 13.4667 27.7253 13.568 27.656C13.6693 27.5867 13.76 27.552 13.84 27.552C14.032 27.552 14.1707 27.6347 14.256 27.8L14.776 28.624ZM10.816 19.864C10.816 19.6987 10.8453 19.5413 10.904 19.392C10.968 19.2427 11.0533 19.1147 11.16 19.008C11.2667 18.9013 11.3947 18.816 11.544 18.752C11.6933 18.688 11.8533 18.656 12.024 18.656C12.1947 18.656 12.352 18.688 12.496 18.752C12.6453 18.816 12.7733 18.9013 12.88 19.008C12.992 19.1147 13.08 19.2427 13.144 19.392C13.208 19.5413 13.24 19.6987 13.24 19.864C13.24 20.0347 13.208 20.1947 13.144 20.344C13.08 20.488 12.992 20.6133 12.88 20.72C12.7733 20.8267 12.6453 20.912 12.496 20.976C12.352 21.0347 12.1947 21.064 12.024 21.064C11.8533 21.064 11.6933 21.0347 11.544 20.976C11.3947 20.912 11.2667 20.8267 11.16 20.72C11.0533 20.6133 10.968 20.488 10.904 20.344C10.8453 20.1947 10.816 20.0347 10.816 19.864ZM23.2515 25.224V27H16.4755V15.432H18.6275V25.224H23.2515ZM26.524 18.792V27H24.54V18.792H26.524ZM26.796 16.4C26.796 16.5707 26.7613 16.7307 26.692 16.88C26.6227 17.0293 26.5293 17.16 26.412 17.272C26.3 17.384 26.1667 17.4747 26.012 17.544C25.8573 17.608 25.692 17.64 25.516 17.64C25.3453 17.64 25.1827 17.608 25.028 17.544C24.8787 17.4747 24.748 17.384 24.636 17.272C24.524 17.16 24.4333 17.0293 24.364 16.88C24.3 16.7307 24.268 16.5707 24.268 16.4C24.268 16.224 24.3 16.0587 24.364 15.904C24.4333 15.7493 24.524 15.616 24.636 15.504C24.748 15.392 24.8787 15.304 25.028 15.24C25.1827 15.1707 25.3453 15.136 25.516 15.136C25.692 15.136 25.8573 15.1707 26.012 15.24C26.1667 15.304 26.3 15.392 26.412 15.504C26.5293 15.616 26.6227 15.7493 26.692 15.904C26.7613 16.0587 26.796 16.224 26.796 16.4ZM33.5465 20.392C33.4932 20.4773 33.4372 20.5387 33.3785 20.576C33.3198 20.608 33.2452 20.624 33.1545 20.624C33.0585 20.624 32.9545 20.5973 32.8425 20.544C32.7358 20.4907 32.6105 20.432 32.4665 20.368C32.3225 20.2987 32.1572 20.2373 31.9705 20.184C31.7892 20.1307 31.5732 20.104 31.3225 20.104C30.9332 20.104 30.6265 20.1867 30.4025 20.352C30.1838 20.5173 30.0745 20.7333 30.0745 21C30.0745 21.176 30.1305 21.3253 30.2425 21.448C30.3598 21.5653 30.5118 21.6693 30.6985 21.76C30.8905 21.8507 31.1065 21.9333 31.3465 22.008C31.5865 22.0773 31.8292 22.1547 32.0745 22.24C32.3252 22.3253 32.5705 22.424 32.8105 22.536C33.0505 22.6427 33.2638 22.7813 33.4505 22.952C33.6425 23.1173 33.7945 23.3173 33.9065 23.552C34.0238 23.7867 34.0825 24.0693 34.0825 24.4C34.0825 24.7947 34.0105 25.16 33.8665 25.496C33.7278 25.8267 33.5198 26.1147 33.2425 26.36C32.9652 26.6 32.6212 26.7893 32.2105 26.928C31.8052 27.0613 31.3358 27.128 30.8025 27.128C30.5198 27.128 30.2425 27.1013 29.9705 27.048C29.7038 27 29.4452 26.9307 29.1945 26.84C28.9492 26.7493 28.7198 26.6427 28.5065 26.52C28.2985 26.3973 28.1145 26.264 27.9545 26.12L28.4105 25.368C28.4692 25.2773 28.5385 25.208 28.6185 25.16C28.6985 25.112 28.7998 25.088 28.9225 25.088C29.0452 25.088 29.1598 25.1227 29.2665 25.192C29.3785 25.2613 29.5065 25.336 29.6505 25.416C29.7945 25.496 29.9625 25.5707 30.1545 25.64C30.3518 25.7093 30.5998 25.744 30.8985 25.744C31.1332 25.744 31.3332 25.7173 31.4985 25.664C31.6692 25.6053 31.8078 25.5307 31.9145 25.44C32.0265 25.3493 32.1065 25.2453 32.1545 25.128C32.2078 25.0053 32.2345 24.88 32.2345 24.752C32.2345 24.56 32.1758 24.4027 32.0585 24.28C31.9465 24.1573 31.7945 24.0507 31.6025 23.96C31.4158 23.8693 31.1998 23.7893 30.9545 23.72C30.7145 23.6453 30.4665 23.5653 30.2105 23.48C29.9598 23.3947 29.7118 23.296 29.4665 23.184C29.2265 23.0667 29.0105 22.92 28.8185 22.744C28.6318 22.568 28.4798 22.352 28.3625 22.096C28.2505 21.84 28.1945 21.5307 28.1945 21.168C28.1945 20.832 28.2612 20.512 28.3945 20.208C28.5278 19.904 28.7225 19.64 28.9785 19.416C29.2398 19.1867 29.5625 19.0053 29.9465 18.872C30.3358 18.7333 30.7838 18.664 31.2905 18.664C31.8558 18.664 32.3705 18.7573 32.8345 18.944C33.2985 19.1307 33.6852 19.376 33.9945 19.68L33.5465 20.392ZM38.3058 27.128C37.5911 27.128 37.0418 26.928 36.6578 26.528C36.2791 26.1227 36.0898 25.5653 36.0898 24.856V20.272H35.2498C35.1431 20.272 35.0524 20.2373 34.9778 20.168C34.9031 20.0987 34.8658 19.9947 34.8658 19.856V19.072L36.1858 18.856L36.6018 16.616C36.6284 16.5093 36.6791 16.4267 36.7538 16.368C36.8284 16.3093 36.9244 16.28 37.0418 16.28H38.0658V18.864H40.2578V20.272H38.0658V24.72C38.0658 24.976 38.1271 25.176 38.2498 25.32C38.3778 25.464 38.5511 25.536 38.7698 25.536C38.8924 25.536 38.9938 25.5227 39.0738 25.496C39.1591 25.464 39.2311 25.432 39.2898 25.4C39.3538 25.368 39.4098 25.3387 39.4578 25.312C39.5058 25.28 39.5538 25.264 39.6018 25.264C39.6604 25.264 39.7084 25.28 39.7458 25.312C39.7831 25.3387 39.8231 25.3813 39.8658 25.44L40.4578 26.4C40.1698 26.64 39.8391 26.8213 39.4658 26.944C39.0924 27.0667 38.7058 27.128 38.3058 27.128ZM45.0924 18.664C45.7004 18.664 46.2524 18.7627 46.7484 18.96C47.2497 19.1573 47.6764 19.4373 48.0284 19.8C48.3857 20.1627 48.6604 20.6053 48.8524 21.128C49.0444 21.6507 49.1404 22.2347 49.1404 22.88C49.1404 23.5307 49.0444 24.1173 48.8524 24.64C48.6604 25.1627 48.3857 25.608 48.0284 25.976C47.6764 26.344 47.2497 26.6267 46.7484 26.824C46.2524 27.0213 45.7004 27.12 45.0924 27.12C44.479 27.12 43.9217 27.0213 43.4204 26.824C42.919 26.6267 42.4897 26.344 42.1324 25.976C41.7804 25.608 41.5057 25.1627 41.3084 24.64C41.1164 24.1173 41.0204 23.5307 41.0204 22.88C41.0204 22.2347 41.1164 21.6507 41.3084 21.128C41.5057 20.6053 41.7804 20.1627 42.1324 19.8C42.4897 19.4373 42.919 19.1573 43.4204 18.96C43.9217 18.7627 44.479 18.664 45.0924 18.664ZM45.0924 25.6C45.775 25.6 46.279 25.3707 46.6044 24.912C46.935 24.4533 47.1004 23.7813 47.1004 22.896C47.1004 22.0107 46.935 21.336 46.6044 20.872C46.279 20.408 45.775 20.176 45.0924 20.176C44.399 20.176 43.8844 20.4107 43.5484 20.88C43.2177 21.344 43.0524 22.016 43.0524 22.896C43.0524 23.776 43.2177 24.448 43.5484 24.912C43.8844 25.3707 44.399 25.6 45.0924 25.6ZM55.6559 20.392C55.6025 20.4773 55.5465 20.5387 55.4879 20.576C55.4292 20.608 55.3545 20.624 55.2639 20.624C55.1679 20.624 55.0639 20.5973 54.9519 20.544C54.8452 20.4907 54.7199 20.432 54.5759 20.368C54.4319 20.2987 54.2665 20.2373 54.0799 20.184C53.8985 20.1307 53.6825 20.104 53.4319 20.104C53.0425 20.104 52.7359 20.1867 52.5119 20.352C52.2932 20.5173 52.1839 20.7333 52.1839 21C52.1839 21.176 52.2399 21.3253 52.3519 21.448C52.4692 21.5653 52.6212 21.6693 52.8079 21.76C52.9999 21.8507 53.2159 21.9333 53.4559 22.008C53.6959 22.0773 53.9385 22.1547 54.1839 22.24C54.4345 22.3253 54.6799 22.424 54.9199 22.536C55.1599 22.6427 55.3732 22.7813 55.5599 22.952C55.7519 23.1173 55.9039 23.3173 56.0159 23.552C56.1332 23.7867 56.1919 24.0693 56.1919 24.4C56.1919 24.7947 56.1199 25.16 55.9759 25.496C55.8372 25.8267 55.6292 26.1147 55.3519 26.36C55.0745 26.6 54.7305 26.7893 54.3199 26.928C53.9145 27.0613 53.4452 27.128 52.9119 27.128C52.6292 27.128 52.3519 27.1013 52.0799 27.048C51.8132 27 51.5545 26.9307 51.3039 26.84C51.0585 26.7493 50.8292 26.6427 50.6159 26.52C50.4079 26.3973 50.2239 26.264 50.0639 26.12L50.5199 25.368C50.5785 25.2773 50.6479 25.208 50.7279 25.16C50.8079 25.112 50.9092 25.088 51.0319 25.088C51.1545 25.088 51.2692 25.1227 51.3759 25.192C51.4879 25.2613 51.6159 25.336 51.7599 25.416C51.9039 25.496 52.0719 25.5707 52.2639 25.64C52.4612 25.7093 52.7092 25.744 53.0079 25.744C53.2425 25.744 53.4425 25.7173 53.6079 25.664C53.7785 25.6053 53.9172 25.5307 54.0239 25.44C54.1359 25.3493 54.2159 25.2453 54.2639 25.128C54.3172 25.0053 54.3439 24.88 54.3439 24.752C54.3439 24.56 54.2852 24.4027 54.1679 24.28C54.0559 24.1573 53.9039 24.0507 53.7119 23.96C53.5252 23.8693 53.3092 23.7893 53.0639 23.72C52.8239 23.6453 52.5759 23.5653 52.3199 23.48C52.0692 23.3947 51.8212 23.296 51.5759 23.184C51.3359 23.0667 51.1199 22.92 50.9279 22.744C50.7412 22.568 50.5892 22.352 50.4719 22.096C50.3599 21.84 50.3039 21.5307 50.3039 21.168C50.3039 20.832 50.3705 20.512 50.5039 20.208C50.6372 19.904 50.8319 19.64 51.0879 19.416C51.3492 19.1867 51.6719 19.0053 52.0559 18.872C52.4452 18.7333 52.8932 18.664 53.3999 18.664C53.9652 18.664 54.4799 18.7573 54.9439 18.944C55.4079 19.1307 55.7945 19.376 56.1039 19.68L55.6559 20.392ZM63.5458 24.872C63.7698 25.144 64.0124 25.336 64.2738 25.448C64.5404 25.56 64.8284 25.616 65.1378 25.616C65.4364 25.616 65.7058 25.56 65.9458 25.448C66.1858 25.336 66.3884 25.1653 66.5538 24.936C66.7244 24.7067 66.8551 24.4187 66.9458 24.072C67.0364 23.72 67.0818 23.3067 67.0818 22.832C67.0818 22.352 67.0418 21.9467 66.9618 21.616C66.8871 21.28 66.7778 21.008 66.6338 20.8C66.4898 20.592 66.3138 20.44 66.1058 20.344C65.9031 20.248 65.6711 20.2 65.4098 20.2C64.9991 20.2 64.6498 20.288 64.3618 20.464C64.0738 20.6347 63.8018 20.8773 63.5458 21.192V24.872ZM63.4418 19.912C63.7778 19.5333 64.1591 19.2267 64.5858 18.992C65.0124 18.7573 65.5138 18.64 66.0898 18.64C66.5378 18.64 66.9458 18.7333 67.3138 18.92C67.6871 19.1067 68.0071 19.3787 68.2738 19.736C68.5458 20.088 68.7538 20.5253 68.8978 21.048C69.0471 21.5653 69.1218 22.16 69.1218 22.832C69.1218 23.4453 69.0391 24.0133 68.8738 24.536C68.7084 25.0587 68.4711 25.512 68.1618 25.896C67.8578 26.28 67.4871 26.5813 67.0498 26.8C66.6178 27.0133 66.1324 27.12 65.5938 27.12C65.1351 27.12 64.7431 27.0507 64.4178 26.912C64.0924 26.768 63.8018 26.5707 63.5458 26.32V29.68H61.5698V18.792H62.7778C63.0338 18.792 63.2018 18.912 63.2818 19.152L63.4418 19.912ZM74.9995 23.496C74.4288 23.5227 73.9488 23.5733 73.5595 23.648C73.1702 23.7173 72.8582 23.808 72.6235 23.92C72.3888 24.032 72.2208 24.1627 72.1195 24.312C72.0182 24.4613 71.9675 24.624 71.9675 24.8C71.9675 25.1467 72.0688 25.3947 72.2715 25.544C72.4795 25.6933 72.7488 25.768 73.0795 25.768C73.4848 25.768 73.8342 25.696 74.1275 25.552C74.4262 25.4027 74.7168 25.1787 74.9995 24.88V23.496ZM70.4715 19.936C71.4155 19.072 72.5515 18.64 73.8795 18.64C74.3595 18.64 74.7888 18.72 75.1675 18.88C75.5462 19.0347 75.8662 19.2533 76.1275 19.536C76.3888 19.8133 76.5862 20.1467 76.7195 20.536C76.8582 20.9253 76.9275 21.352 76.9275 21.816V27H76.0315C75.8448 27 75.7008 26.9733 75.5995 26.92C75.4982 26.8613 75.4182 26.7467 75.3595 26.576L75.1835 25.984C74.9755 26.1707 74.7728 26.336 74.5755 26.48C74.3782 26.6187 74.1728 26.736 73.9595 26.832C73.7462 26.928 73.5168 27 73.2715 27.048C73.0315 27.1013 72.7648 27.128 72.4715 27.128C72.1248 27.128 71.8048 27.0827 71.5115 26.992C71.2182 26.896 70.9648 26.7547 70.7515 26.568C70.5382 26.3813 70.3728 26.1493 70.2555 25.872C70.1382 25.5947 70.0795 25.272 70.0795 24.904C70.0795 24.696 70.1142 24.4907 70.1835 24.288C70.2528 24.08 70.3648 23.8827 70.5195 23.696C70.6795 23.5093 70.8848 23.3333 71.1355 23.168C71.3862 23.0027 71.6928 22.8587 72.0555 22.736C72.4235 22.6133 72.8502 22.5147 73.3355 22.44C73.8208 22.36 74.3755 22.312 74.9995 22.296V21.816C74.9995 21.2667 74.8822 20.8613 74.6475 20.6C74.4128 20.3333 74.0742 20.2 73.6315 20.2C73.3115 20.2 73.0448 20.2373 72.8315 20.312C72.6235 20.3867 72.4395 20.472 72.2795 20.568C72.1195 20.6587 71.9728 20.7413 71.8395 20.816C71.7115 20.8907 71.5675 20.928 71.4075 20.928C71.2688 20.928 71.1515 20.8933 71.0555 20.824C70.9595 20.7493 70.8822 20.664 70.8235 20.568L70.4715 19.936ZM80.6525 20.216C80.9085 19.7253 81.2125 19.3413 81.5645 19.064C81.9165 18.7813 82.3325 18.64 82.8125 18.64C83.1912 18.64 83.4952 18.7227 83.7245 18.888L83.5965 20.368C83.5698 20.464 83.5298 20.5333 83.4765 20.576C83.4285 20.6133 83.3618 20.632 83.2765 20.632C83.1965 20.632 83.0765 20.6187 82.9165 20.592C82.7618 20.5653 82.6098 20.552 82.4605 20.552C82.2418 20.552 82.0472 20.584 81.8765 20.648C81.7058 20.712 81.5512 20.8053 81.4125 20.928C81.2792 21.0453 81.1592 21.1893 81.0525 21.36C80.9512 21.5307 80.8552 21.7253 80.7645 21.944V27H78.7885V18.792H79.9485C80.1512 18.792 80.2925 18.8293 80.3725 18.904C80.4525 18.9733 80.5058 19.1013 80.5325 19.288L80.6525 20.216ZM88.9839 23.496C88.4132 23.5227 87.9332 23.5733 87.5439 23.648C87.1545 23.7173 86.8425 23.808 86.6079 23.92C86.3732 24.032 86.2052 24.1627 86.1039 24.312C86.0025 24.4613 85.9519 24.624 85.9519 24.8C85.9519 25.1467 86.0532 25.3947 86.2559 25.544C86.4639 25.6933 86.7332 25.768 87.0639 25.768C87.4692 25.768 87.8185 25.696 88.1119 25.552C88.4105 25.4027 88.7012 25.1787 88.9839 24.88V23.496ZM84.4559 19.936C85.3999 19.072 86.5359 18.64 87.8639 18.64C88.3439 18.64 88.7732 18.72 89.1519 18.88C89.5305 19.0347 89.8505 19.2533 90.1119 19.536C90.3732 19.8133 90.5705 20.1467 90.7039 20.536C90.8425 20.9253 90.9119 21.352 90.9119 21.816V27H90.0159C89.8292 27 89.6852 26.9733 89.5839 26.92C89.4825 26.8613 89.4025 26.7467 89.3439 26.576L89.1679 25.984C88.9599 26.1707 88.7572 26.336 88.5599 26.48C88.3625 26.6187 88.1572 26.736 87.9439 26.832C87.7305 26.928 87.5012 27 87.2559 27.048C87.0159 27.1013 86.7492 27.128 86.4559 27.128C86.1092 27.128 85.7892 27.0827 85.4959 26.992C85.2025 26.896 84.9492 26.7547 84.7359 26.568C84.5225 26.3813 84.3572 26.1493 84.2399 25.872C84.1225 25.5947 84.0639 25.272 84.0639 24.904C84.0639 24.696 84.0985 24.4907 84.1679 24.288C84.2372 24.08 84.3492 23.8827 84.5039 23.696C84.6639 23.5093 84.8692 23.3333 85.1199 23.168C85.3705 23.0027 85.6772 22.8587 86.0399 22.736C86.4079 22.6133 86.8345 22.5147 87.3199 22.44C87.8052 22.36 88.3599 22.312 88.9839 22.296V21.816C88.9839 21.2667 88.8665 20.8613 88.6319 20.6C88.3972 20.3333 88.0585 20.2 87.6159 20.2C87.2959 20.2 87.0292 20.2373 86.8159 20.312C86.6079 20.3867 86.4239 20.472 86.2639 20.568C86.1039 20.6587 85.9572 20.7413 85.8239 20.816C85.6959 20.8907 85.5519 20.928 85.3919 20.928C85.2532 20.928 85.1359 20.8933 85.0399 20.824C84.9439 20.7493 84.8665 20.664 84.8079 20.568L84.4559 19.936ZM14.264 50.952C14.264 50.696 14.2267 50.456 14.152 50.232C14.0827 50.0027 13.976 49.8027 13.832 49.632C13.688 49.4613 13.504 49.328 13.28 49.232C13.0613 49.1307 12.8053 49.08 12.512 49.08C11.9413 49.08 11.4907 49.2427 11.16 49.568C10.8347 49.8933 10.6267 50.3547 10.536 50.952H14.264ZM10.496 52.144C10.528 52.5653 10.6027 52.9307 10.72 53.24C10.8373 53.544 10.992 53.7973 11.184 54C11.376 54.1973 11.6027 54.3467 11.864 54.448C12.1307 54.544 12.424 54.592 12.744 54.592C13.064 54.592 13.3387 54.5547 13.568 54.48C13.8027 54.4053 14.0053 54.3227 14.176 54.232C14.352 54.1413 14.504 54.0587 14.632 53.984C14.7653 53.9093 14.8933 53.872 15.016 53.872C15.1813 53.872 15.304 53.9333 15.384 54.056L15.952 54.776C15.7333 55.032 15.488 55.248 15.216 55.424C14.944 55.5947 14.6587 55.7333 14.36 55.84C14.0667 55.9413 13.7653 56.0133 13.456 56.056C13.152 56.0987 12.856 56.12 12.568 56.12C11.9973 56.12 11.4667 56.0267 10.976 55.84C10.4853 55.648 10.0587 55.368 9.696 55C9.33333 54.6267 9.048 54.168 8.84 53.624C8.632 53.0747 8.528 52.44 8.528 51.72C8.528 51.16 8.61867 50.6347 8.8 50.144C8.98133 49.648 9.24 49.2187 9.576 48.856C9.91733 48.488 10.3307 48.1973 10.816 47.984C11.3067 47.7707 11.8587 47.664 12.472 47.664C12.9893 47.664 13.4667 47.7467 13.904 47.912C14.3413 48.0773 14.7173 48.32 15.032 48.64C15.3467 48.9547 15.592 49.344 15.768 49.808C15.9493 50.2667 16.04 50.792 16.04 51.384C16.04 51.6827 16.008 51.8853 15.944 51.992C15.88 52.0933 15.7573 52.144 15.576 52.144H10.496ZM19.5229 44.112V56H17.5469V44.112H19.5229ZM27.3583 53.872C27.5823 54.144 27.8249 54.336 28.0863 54.448C28.3529 54.56 28.6409 54.616 28.9503 54.616C29.2489 54.616 29.5183 54.56 29.7583 54.448C29.9983 54.336 30.2009 54.1653 30.3663 53.936C30.5369 53.7067 30.6676 53.4187 30.7583 53.072C30.8489 52.72 30.8943 52.3067 30.8943 51.832C30.8943 51.352 30.8543 50.9467 30.7743 50.616C30.6996 50.28 30.5903 50.008 30.4463 49.8C30.3023 49.592 30.1263 49.44 29.9183 49.344C29.7156 49.248 29.4836 49.2 29.2223 49.2C28.8116 49.2 28.4623 49.288 28.1743 49.464C27.8863 49.6347 27.6143 49.8773 27.3583 50.192V53.872ZM27.2543 48.912C27.5903 48.5333 27.9716 48.2267 28.3983 47.992C28.8249 47.7573 29.3263 47.64 29.9023 47.64C30.3503 47.64 30.7583 47.7333 31.1263 47.92C31.4996 48.1067 31.8196 48.3787 32.0863 48.736C32.3583 49.088 32.5663 49.5253 32.7103 50.048C32.8596 50.5653 32.9343 51.16 32.9343 51.832C32.9343 52.4453 32.8516 53.0133 32.6863 53.536C32.5209 54.0587 32.2836 54.512 31.9743 54.896C31.6703 55.28 31.2996 55.5813 30.8623 55.8C30.4303 56.0133 29.9449 56.12 29.4062 56.12C28.9476 56.12 28.5556 56.0507 28.2303 55.912C27.9049 55.768 27.6143 55.5707 27.3583 55.32V58.68H25.3823V47.792H26.5903C26.8463 47.792 27.0143 47.912 27.0943 48.152L27.2543 48.912ZM36.34 49.216C36.596 48.7253 36.9 48.3413 37.252 48.064C37.604 47.7813 38.02 47.64 38.5 47.64C38.8787 47.64 39.1827 47.7227 39.412 47.888L39.284 49.368C39.2573 49.464 39.2173 49.5333 39.164 49.576C39.116 49.6133 39.0493 49.632 38.964 49.632C38.884 49.632 38.764 49.6187 38.604 49.592C38.4493 49.5653 38.2973 49.552 38.148 49.552C37.9293 49.552 37.7347 49.584 37.564 49.648C37.3933 49.712 37.2387 49.8053 37.1 49.928C36.9667 50.0453 36.8467 50.1893 36.74 50.36C36.6387 50.5307 36.5427 50.7253 36.452 50.944V56H34.476V47.792H35.636C35.8387 47.792 35.98 47.8293 36.06 47.904C36.14 47.9733 36.1933 48.1013 36.22 48.288L36.34 49.216ZM43.8424 47.664C44.4504 47.664 45.0024 47.7627 45.4984 47.96C45.9997 48.1573 46.4264 48.4373 46.7784 48.8C47.1357 49.1627 47.4104 49.6053 47.6024 50.128C47.7944 50.6507 47.8904 51.2347 47.8904 51.88C47.8904 52.5307 47.7944 53.1173 47.6024 53.64C47.4104 54.1627 47.1357 54.608 46.7784 54.976C46.4264 55.344 45.9997 55.6267 45.4984 55.824C45.0024 56.0213 44.4504 56.12 43.8424 56.12C43.229 56.12 42.6717 56.0213 42.1704 55.824C41.669 55.6267 41.2397 55.344 40.8824 54.976C40.5304 54.608 40.2557 54.1627 40.0584 53.64C39.8664 53.1173 39.7704 52.5307 39.7704 51.88C39.7704 51.2347 39.8664 50.6507 40.0584 50.128C40.2557 49.6053 40.5304 49.1627 40.8824 48.8C41.2397 48.4373 41.669 48.1573 42.1704 47.96C42.6717 47.7627 43.229 47.664 43.8424 47.664ZM43.8424 54.6C44.525 54.6 45.029 54.3707 45.3544 53.912C45.685 53.4533 45.8504 52.7813 45.8504 51.896C45.8504 51.0107 45.685 50.336 45.3544 49.872C45.029 49.408 44.525 49.176 43.8424 49.176C43.149 49.176 42.6344 49.4107 42.2984 49.88C41.9677 50.344 41.8024 51.016 41.8024 51.896C41.8024 52.776 41.9677 53.448 42.2984 53.912C42.6344 54.3707 43.149 54.6 43.8424 54.6ZM56.5726 47.792L52.1006 58.256C52.042 58.3947 51.9646 58.4987 51.8686 58.568C51.778 58.6427 51.6366 58.68 51.4446 58.68H49.9726L51.5086 55.384L48.1886 47.792H49.9246C50.0793 47.792 50.1993 47.8293 50.2846 47.904C50.3753 47.9787 50.442 48.064 50.4846 48.16L52.2286 52.416C52.2873 52.56 52.3353 52.704 52.3726 52.848C52.4153 52.992 52.4553 53.1387 52.4926 53.288C52.5406 53.1387 52.5886 52.992 52.6366 52.848C52.6846 52.6987 52.738 52.552 52.7966 52.408L54.4446 48.16C54.4873 48.0533 54.5566 47.9653 54.6526 47.896C54.754 47.8267 54.866 47.792 54.9886 47.792H56.5726ZM62.5921 50.952C62.5921 50.696 62.5548 50.456 62.4801 50.232C62.4108 50.0027 62.3041 49.8027 62.1601 49.632C62.0161 49.4613 61.8321 49.328 61.6081 49.232C61.3895 49.1307 61.1335 49.08 60.8401 49.08C60.2695 49.08 59.8188 49.2427 59.4881 49.568C59.1628 49.8933 58.9548 50.3547 58.8641 50.952H62.5921ZM58.8241 52.144C58.8561 52.5653 58.9308 52.9307 59.0481 53.24C59.1655 53.544 59.3201 53.7973 59.5121 54C59.7041 54.1973 59.9308 54.3467 60.1921 54.448C60.4588 54.544 60.7521 54.592 61.0721 54.592C61.3921 54.592 61.6668 54.5547 61.8961 54.48C62.1308 54.4053 62.3335 54.3227 62.5041 54.232C62.6801 54.1413 62.8321 54.0587 62.9601 53.984C63.0935 53.9093 63.2215 53.872 63.3441 53.872C63.5095 53.872 63.6321 53.9333 63.7121 54.056L64.2801 54.776C64.0615 55.032 63.8161 55.248 63.5441 55.424C63.2721 55.5947 62.9868 55.7333 62.6881 55.84C62.3948 55.9413 62.0935 56.0133 61.7841 56.056C61.4801 56.0987 61.1841 56.12 60.8961 56.12C60.3255 56.12 59.7948 56.0267 59.3041 55.84C58.8135 55.648 58.3868 55.368 58.0241 55C57.6615 54.6267 57.3761 54.168 57.1681 53.624C56.9601 53.0747 56.8561 52.44 56.8561 51.72C56.8561 51.16 56.9468 50.6347 57.1281 50.144C57.3095 49.648 57.5681 49.2187 57.9041 48.856C58.2455 48.488 58.6588 48.1973 59.1441 47.984C59.6348 47.7707 60.1868 47.664 60.8001 47.664C61.3175 47.664 61.7948 47.7467 62.2321 47.912C62.6695 48.0773 63.0455 48.32 63.3601 48.64C63.6748 48.9547 63.9201 49.344 64.0961 49.808C64.2775 50.2667 64.3681 50.792 64.3681 51.384C64.3681 51.6827 64.3361 51.8853 64.2721 51.992C64.2081 52.0933 64.0855 52.144 63.9041 52.144H58.8241ZM71.731 49.528C71.6723 49.6027 71.6137 49.6613 71.555 49.704C71.5017 49.7467 71.4217 49.768 71.315 49.768C71.2137 49.768 71.115 49.7387 71.019 49.68C70.923 49.616 70.8083 49.5467 70.675 49.472C70.5417 49.392 70.3817 49.3227 70.195 49.264C70.0137 49.2 69.787 49.168 69.515 49.168C69.1683 49.168 68.8643 49.232 68.603 49.36C68.3417 49.4827 68.123 49.6613 67.947 49.896C67.7763 50.1307 67.6483 50.416 67.563 50.752C67.4777 51.0827 67.435 51.4587 67.435 51.88C67.435 52.3173 67.4803 52.7067 67.571 53.048C67.667 53.3893 67.803 53.6773 67.979 53.912C68.155 54.1413 68.3683 54.3173 68.619 54.44C68.8697 54.5573 69.1523 54.616 69.467 54.616C69.7817 54.616 70.035 54.5787 70.227 54.504C70.4243 54.424 70.5897 54.3387 70.723 54.248C70.8563 54.152 70.971 54.0667 71.067 53.992C71.1683 53.912 71.2803 53.872 71.403 53.872C71.563 53.872 71.683 53.9333 71.763 54.056L72.331 54.776C72.1123 55.032 71.875 55.248 71.619 55.424C71.363 55.5947 71.0963 55.7333 70.819 55.84C70.547 55.9413 70.2643 56.0133 69.971 56.056C69.683 56.0987 69.395 56.12 69.107 56.12C68.6003 56.12 68.123 56.0267 67.675 55.84C67.227 55.648 66.835 55.3707 66.499 55.008C66.163 54.6453 65.8963 54.2027 65.699 53.68C65.507 53.152 65.411 52.552 65.411 51.88C65.411 51.2773 65.4963 50.72 65.667 50.208C65.843 49.6907 66.099 49.2453 66.435 48.872C66.771 48.4933 67.187 48.1973 67.683 47.984C68.179 47.7707 68.7497 47.664 69.395 47.664C70.0083 47.664 70.5443 47.7627 71.003 47.96C71.467 48.1573 71.883 48.44 72.251 48.808L71.731 49.528ZM76.3058 56.128C75.5911 56.128 75.0418 55.928 74.6578 55.528C74.2791 55.1227 74.0898 54.5653 74.0898 53.856V49.272H73.2498C73.1431 49.272 73.0524 49.2373 72.9778 49.168C72.9031 49.0987 72.8658 48.9947 72.8658 48.856V48.072L74.1858 47.856L74.6018 45.616C74.6284 45.5093 74.6791 45.4267 74.7538 45.368C74.8284 45.3093 74.9244 45.28 75.0418 45.28H76.0658V47.864H78.2578V49.272H76.0658V53.72C76.0658 53.976 76.1271 54.176 76.2498 54.32C76.3778 54.464 76.5511 54.536 76.7698 54.536C76.8924 54.536 76.9938 54.5227 77.0738 54.496C77.1591 54.464 77.2311 54.432 77.2898 54.4C77.3538 54.368 77.4098 54.3387 77.4578 54.312C77.5058 54.28 77.5538 54.264 77.6018 54.264C77.6604 54.264 77.7084 54.28 77.7458 54.312C77.7831 54.3387 77.8231 54.3813 77.8658 54.44L78.4578 55.4C78.1698 55.64 77.8391 55.8213 77.4658 55.944C77.0924 56.0667 76.7058 56.128 76.3058 56.128ZM83.0924 47.664C83.7004 47.664 84.2524 47.7627 84.7484 47.96C85.2497 48.1573 85.6764 48.4373 86.0284 48.8C86.3857 49.1627 86.6604 49.6053 86.8524 50.128C87.0444 50.6507 87.1404 51.2347 87.1404 51.88C87.1404 52.5307 87.0444 53.1173 86.8524 53.64C86.6604 54.1627 86.3857 54.608 86.0284 54.976C85.6764 55.344 85.2497 55.6267 84.7484 55.824C84.2524 56.0213 83.7004 56.12 83.0924 56.12C82.479 56.12 81.9217 56.0213 81.4204 55.824C80.919 55.6267 80.4897 55.344 80.1324 54.976C79.7804 54.608 79.5057 54.1627 79.3084 53.64C79.1164 53.1173 79.0204 52.5307 79.0204 51.88C79.0204 51.2347 79.1164 50.6507 79.3084 50.128C79.5057 49.6053 79.7804 49.1627 80.1324 48.8C80.4897 48.4373 80.919 48.1573 81.4204 47.96C81.9217 47.7627 82.479 47.664 83.0924 47.664ZM83.0924 54.6C83.775 54.6 84.279 54.3707 84.6044 53.912C84.935 53.4533 85.1004 52.7813 85.1004 51.896C85.1004 51.0107 84.935 50.336 84.6044 49.872C84.279 49.408 83.775 49.176 83.0924 49.176C82.399 49.176 81.8844 49.4107 81.5484 49.88C81.2177 50.344 81.0524 51.016 81.0524 51.896C81.0524 52.776 81.2177 53.448 81.5484 53.912C81.8844 54.3707 82.399 54.6 83.0924 54.6ZM87.7399 45.48C87.9212 45.32 88.1185 45.168 88.3319 45.024C88.5505 44.88 88.7852 44.7547 89.0359 44.648C89.2865 44.5413 89.5585 44.4587 89.8519 44.4C90.1452 44.336 90.4625 44.304 90.8039 44.304C91.2679 44.304 91.6892 44.368 92.0679 44.496C92.4519 44.624 92.7799 44.808 93.0519 45.048C93.3239 45.2827 93.5345 45.568 93.6839 45.904C93.8332 46.24 93.9079 46.616 93.9079 47.032C93.9079 47.4373 93.8492 47.7893 93.7319 48.088C93.6145 48.3813 93.4679 48.6373 93.2919 48.856C93.1159 49.0747 92.9212 49.264 92.7079 49.424C92.4999 49.584 92.3025 49.736 92.1159 49.88C91.9292 50.0187 91.7665 50.1573 91.6279 50.296C91.4945 50.4293 91.4145 50.5813 91.3879 50.752L91.2039 51.92H89.8519L89.7159 50.616C89.6839 50.3653 89.7185 50.1467 89.8199 49.96C89.9265 49.768 90.0652 49.5947 90.2359 49.44C90.4119 49.28 90.6065 49.128 90.8199 48.984C91.0332 48.8347 91.2332 48.6747 91.4199 48.504C91.6065 48.328 91.7612 48.1333 91.8839 47.92C92.0119 47.7013 92.0759 47.4427 92.0759 47.144C92.0759 46.952 92.0385 46.7813 91.9639 46.632C91.8945 46.4773 91.7959 46.3467 91.6679 46.24C91.5399 46.128 91.3852 46.0427 91.2039 45.984C91.0279 45.9253 90.8359 45.896 90.6279 45.896C90.3239 45.896 90.0652 45.9307 89.8519 46C89.6439 46.064 89.4652 46.1387 89.3159 46.224C89.1719 46.304 89.0492 46.3787 88.9479 46.448C88.8465 46.512 88.7559 46.544 88.6759 46.544C88.4839 46.544 88.3452 46.464 88.2599 46.304L87.7399 45.48ZM89.2519 54.912C89.2519 54.7467 89.2812 54.5893 89.3399 54.44C89.4039 54.2907 89.4892 54.1627 89.5959 54.056C89.7025 53.9493 89.8305 53.864 89.9799 53.8C90.1292 53.736 90.2892 53.704 90.4599 53.704C90.6305 53.704 90.7879 53.736 90.9319 53.8C91.0812 53.864 91.2092 53.9493 91.3159 54.056C91.4279 54.1627 91.5159 54.2907 91.5799 54.44C91.6439 54.5893 91.6759 54.7467 91.6759 54.912C91.6759 55.0827 91.6439 55.2427 91.5799 55.392C91.5159 55.536 91.4279 55.6613 91.3159 55.768C91.2092 55.8747 91.0812 55.9573 90.9319 56.016C90.7879 56.08 90.6305 56.112 90.4599 56.112C90.2892 56.112 90.1292 56.08 89.9799 56.016C89.8305 55.9573 89.7025 55.8747 89.5959 55.768C89.4892 55.6613 89.4039 55.536 89.3399 55.392C89.2812 55.2427 89.2519 55.0827 89.2519 54.912Z" fill="#1E1E1E"/>
</svg>
