<svg width="84" height="57" viewBox="0 0 84 57" fill="none" xmlns="http://www.w3.org/2000/svg">
<g clip-path="url(#clip0)">
<path d="M73.6078 2.4917H10.3922C5.33318 2.4917 1.23047 6.64182 1.23047 11.7596V33.162C1.23047 38.2798 5.33318 42.4299 10.3922 42.4299H33.4888L31.1801 51.5383C30.5753 53.9238 33.2084 55.7979 35.2241 54.4188L52.7486 42.4299H73.6078C78.6668 42.4299 82.7695 38.2798 82.7695 33.162V11.7594C82.7695 6.64182 78.6668 2.4917 73.6078 2.4917Z" fill="white"/>
<path d="M73.8011 2.49121H72.7007C65.5034 29.3627 40.9836 33.489 11.8417 33.489C8.29287 33.489 4.81261 33.1953 1.42374 32.6314V33.355C1.42374 38.4726 5.52645 42.6228 10.5855 42.6228H33.682L31.3733 51.7313C30.7686 54.1167 33.4017 55.9908 35.4173 54.6117L52.9418 42.6228H73.8011C78.8601 42.6228 82.9628 38.4727 82.9628 33.355V11.7589C82.9628 6.64134 78.8601 2.49121 73.8011 2.49121Z" fill="#F2F2F2"/>
<path d="M73.6076 -0.000488281H27.9919C27.3121 -0.000488281 26.7614 0.550434 26.7614 1.22998C26.7614 1.90953 27.3121 2.46045 27.9919 2.46045H73.6076C77.9809 2.46045 81.5389 6.06605 81.5389 10.4977V33.1616C81.5389 37.5935 77.9809 41.1989 73.6076 41.1989H56.4295C55.7498 41.1989 55.199 41.7498 55.199 42.4294C55.199 43.1089 55.7498 43.6598 56.4295 43.6598H73.6076C79.338 43.6598 83.9998 38.9503 83.9998 33.1616V10.4977C83.9998 4.70909 79.338 -0.000488281 73.6076 -0.000488281Z" fill="black"/>
<path d="M50.6947 42.3438L34.5294 53.4027C33.7916 53.9075 33.1298 53.5248 32.9446 53.3955C32.7521 53.2611 32.1418 52.7517 32.373 51.8402L34.6817 42.7318C34.7749 42.3638 34.693 41.9733 34.4599 41.6737C34.2267 41.3741 33.8684 41.1989 33.4888 41.1989H10.3922C6.01897 41.1989 2.46095 37.5933 2.46095 33.1617L2.46094 10.4977C2.46094 6.06589 6.01896 2.46045 10.3922 2.46045H22.2423C22.922 2.46045 23.4728 1.90953 23.4728 1.22998C23.4728 0.550434 22.922 -0.000488281 22.2423 -0.000488281H10.3922C4.66184 -0.000488281 0 4.70909 0 10.4977L7.46775e-06 33.1617C7.46775e-06 38.9504 4.66184 43.6599 10.3922 43.6599H31.9075L29.9874 51.2354C29.5823 52.8337 30.1901 54.4735 31.5358 55.4131C32.2043 55.8801 32.973 56.1137 33.7418 56.1137C34.4987 56.1137 35.2561 55.8873 35.9189 55.4338L52.0841 44.3749C52.645 43.9911 52.7888 43.2254 52.405 42.6645C52.0211 42.1037 51.2554 41.96 50.6947 42.3438Z" fill="black"/>
<path d="M25.24 30.68V26.416C25.24 25.9307 25.264 25.456 25.312 24.992C25.36 24.5227 25.424 24.0267 25.504 23.504H26.84C26.92 24.0267 26.9813 24.5227 27.024 24.992C27.072 25.456 27.096 25.9307 27.096 26.416V30.68H25.24ZM24.936 20.864C24.936 20.6933 24.9653 20.536 25.024 20.392C25.088 20.2427 25.1733 20.1147 25.28 20.008C25.3867 19.9013 25.5147 19.8187 25.664 19.76C25.8133 19.696 25.9733 19.664 26.144 19.664C26.3093 19.664 26.4667 19.696 26.616 19.76C26.7653 19.8187 26.8933 19.9013 27 20.008C27.112 20.1147 27.2 20.2427 27.264 20.392C27.328 20.536 27.36 20.6933 27.36 20.864C27.36 21.0347 27.328 21.1947 27.264 21.344C27.2 21.488 27.112 21.6133 27 21.72C26.8933 21.8267 26.7653 21.912 26.616 21.976C26.4667 22.04 26.3093 22.072 26.144 22.072C25.9733 22.072 25.8133 22.04 25.664 21.976C25.5147 21.912 25.3867 21.8267 25.28 21.72C25.1733 21.6133 25.088 21.488 25.024 21.344C24.9653 21.1947 24.936 21.0347 24.936 20.864ZM38.1871 21.392C38.1338 21.4773 38.0778 21.5387 38.0191 21.576C37.9605 21.608 37.8858 21.624 37.7951 21.624C37.6991 21.624 37.5951 21.5973 37.4831 21.544C37.3765 21.4907 37.2511 21.432 37.1071 21.368C36.9631 21.2987 36.7978 21.2373 36.6111 21.184C36.4298 21.1307 36.2138 21.104 35.9631 21.104C35.5738 21.104 35.2671 21.1867 35.0431 21.352C34.8245 21.5173 34.7151 21.7333 34.7151 22C34.7151 22.176 34.7711 22.3253 34.8831 22.448C35.0005 22.5653 35.1525 22.6693 35.3391 22.76C35.5311 22.8507 35.7471 22.9333 35.9871 23.008C36.2271 23.0773 36.4698 23.1547 36.7151 23.24C36.9658 23.3253 37.2111 23.424 37.4511 23.536C37.6911 23.6427 37.9045 23.7813 38.0911 23.952C38.2831 24.1173 38.4351 24.3173 38.5471 24.552C38.6645 24.7867 38.7231 25.0693 38.7231 25.4C38.7231 25.7947 38.6511 26.16 38.5071 26.496C38.3685 26.8267 38.1605 27.1147 37.8831 27.36C37.6058 27.6 37.2618 27.7893 36.8511 27.928C36.4458 28.0613 35.9765 28.128 35.4431 28.128C35.1605 28.128 34.8831 28.1013 34.6111 28.048C34.3445 28 34.0858 27.9307 33.8351 27.84C33.5898 27.7493 33.3605 27.6427 33.1471 27.52C32.9391 27.3973 32.7551 27.264 32.5951 27.12L33.0511 26.368C33.1098 26.2773 33.1791 26.208 33.2591 26.16C33.3391 26.112 33.4405 26.088 33.5631 26.088C33.6858 26.088 33.8005 26.1227 33.9071 26.192C34.0191 26.2613 34.1471 26.336 34.2911 26.416C34.4351 26.496 34.6031 26.5707 34.7951 26.64C34.9925 26.7093 35.2405 26.744 35.5391 26.744C35.7738 26.744 35.9738 26.7173 36.1391 26.664C36.3098 26.6053 36.4485 26.5307 36.5551 26.44C36.6671 26.3493 36.7471 26.2453 36.7951 26.128C36.8485 26.0053 36.8751 25.88 36.8751 25.752C36.8751 25.56 36.8165 25.4027 36.6991 25.28C36.5871 25.1573 36.4351 25.0507 36.2431 24.96C36.0565 24.8693 35.8405 24.7893 35.5951 24.72C35.3551 24.6453 35.1071 24.5653 34.8511 24.48C34.6005 24.3947 34.3525 24.296 34.1071 24.184C33.8671 24.0667 33.6511 23.92 33.4591 23.744C33.2725 23.568 33.1205 23.352 33.0031 23.096C32.8911 22.84 32.8351 22.5307 32.8351 22.168C32.8351 21.832 32.9018 21.512 33.0351 21.208C33.1685 20.904 33.3631 20.64 33.6191 20.416C33.8805 20.1867 34.2031 20.0053 34.5871 19.872C34.9765 19.7333 35.4245 19.664 35.9311 19.664C36.4965 19.664 37.0111 19.7573 37.4751 19.944C37.9391 20.1307 38.3258 20.376 38.6351 20.68L38.1871 21.392ZM42.2584 19.792V28H40.2744V19.792H42.2584ZM42.5304 17.4C42.5304 17.5707 42.4957 17.7307 42.4264 17.88C42.357 18.0293 42.2637 18.16 42.1464 18.272C42.0344 18.384 41.901 18.4747 41.7464 18.544C41.5917 18.608 41.4264 18.64 41.2504 18.64C41.0797 18.64 40.917 18.608 40.7624 18.544C40.613 18.4747 40.4824 18.384 40.3704 18.272C40.2584 18.16 40.1677 18.0293 40.0984 17.88C40.0344 17.7307 40.0024 17.5707 40.0024 17.4C40.0024 17.224 40.0344 17.0587 40.0984 16.904C40.1677 16.7493 40.2584 16.616 40.3704 16.504C40.4824 16.392 40.613 16.304 40.7624 16.24C40.917 16.1707 41.0797 16.136 41.2504 16.136C41.4264 16.136 41.5917 16.1707 41.7464 16.24C41.901 16.304 42.0344 16.392 42.1464 16.504C42.2637 16.616 42.357 16.7493 42.4264 16.904C42.4957 17.0587 42.5304 17.224 42.5304 17.4ZM46.3209 19.792V28H44.3369V19.792H46.3209ZM46.5929 17.4C46.5929 17.5707 46.5582 17.7307 46.4889 17.88C46.4195 18.0293 46.3262 18.16 46.2089 18.272C46.0969 18.384 45.9635 18.4747 45.8089 18.544C45.6542 18.608 45.4889 18.64 45.3129 18.64C45.1422 18.64 44.9795 18.608 44.8249 18.544C44.6755 18.4747 44.5449 18.384 44.4329 18.272C44.3209 18.16 44.2302 18.0293 44.1609 17.88C44.0969 17.7307 44.0649 17.5707 44.0649 17.4C44.0649 17.224 44.0969 17.0587 44.1609 16.904C44.2302 16.7493 44.3209 16.616 44.4329 16.504C44.5449 16.392 44.6755 16.304 44.8249 16.24C44.9795 16.1707 45.1422 16.136 45.3129 16.136C45.4889 16.136 45.6542 16.1707 45.8089 16.24C45.9635 16.304 46.0969 16.392 46.2089 16.504C46.3262 16.616 46.4195 16.7493 46.4889 16.904C46.5582 17.0587 46.5929 17.224 46.5929 17.4ZM50.3834 19.792V28H48.3994V19.792H50.3834ZM50.6554 17.4C50.6554 17.5707 50.6207 17.7307 50.5514 17.88C50.482 18.0293 50.3887 18.16 50.2714 18.272C50.1594 18.384 50.026 18.4747 49.8714 18.544C49.7167 18.608 49.5514 18.64 49.3754 18.64C49.2047 18.64 49.042 18.608 48.8874 18.544C48.738 18.4747 48.6074 18.384 48.4954 18.272C48.3834 18.16 48.2927 18.0293 48.2234 17.88C48.1594 17.7307 48.1274 17.5707 48.1274 17.4C48.1274 17.224 48.1594 17.0587 48.2234 16.904C48.2927 16.7493 48.3834 16.616 48.4954 16.504C48.6074 16.392 48.738 16.304 48.8874 16.24C49.042 16.1707 49.2047 16.136 49.3754 16.136C49.5514 16.136 49.7167 16.1707 49.8714 16.24C50.026 16.304 50.1594 16.392 50.2714 16.504C50.3887 16.616 50.482 16.7493 50.5514 16.904C50.6207 17.0587 50.6554 17.224 50.6554 17.4ZM58.4965 16.432V21.008C58.4965 21.4933 58.4725 21.9707 58.4245 22.44C58.3765 22.904 58.3152 23.3973 58.2405 23.92H56.8965C56.8218 23.3973 56.7605 22.904 56.7125 22.44C56.6645 21.9707 56.6405 21.4933 56.6405 21.008V16.432H58.4965ZM56.3285 26.912C56.3285 26.7467 56.3578 26.5893 56.4165 26.44C56.4805 26.2907 56.5658 26.1627 56.6725 26.056C56.7845 25.9493 56.9152 25.864 57.0645 25.8C57.2138 25.736 57.3738 25.704 57.5445 25.704C57.7098 25.704 57.8672 25.736 58.0165 25.8C58.1658 25.864 58.2938 25.9493 58.4005 26.056C58.5125 26.1627 58.6005 26.2907 58.6645 26.44C58.7285 26.5893 58.7605 26.7467 58.7605 26.912C58.7605 27.0827 58.7285 27.2427 58.6645 27.392C58.6005 27.536 58.5125 27.6613 58.4005 27.768C58.2938 27.8747 58.1658 27.9573 58.0165 28.016C57.8672 28.08 57.7098 28.112 57.5445 28.112C57.3738 28.112 57.2138 28.08 57.0645 28.016C56.9152 27.9573 56.7845 27.8747 56.6725 27.768C56.5658 27.6613 56.4805 27.536 56.4165 27.392C56.3578 27.2427 56.3285 27.0827 56.3285 26.912Z" fill="#1E1E1E"/>
</g>
<defs>
<clipPath id="clip0">
<rect width="84" height="57.0003" fill="white" transform="translate(0 -0.000488281)"/>
</clipPath>
</defs>
</svg>
