<svg width="176" height="200" viewBox="0 0 176 200" fill="none" xmlns="http://www.w3.org/2000/svg">
<path d="M148.138 197.07H2.92773V2.92969H118.938L148.138 32.1297V197.07Z" fill="#F4FBFF"/>
<path d="M118.939 2.92969H110.258V32.9188C110.258 37.2773 113.791 40.8105 118.149 40.8105H135.117C137.296 40.8105 139.063 42.5773 139.063 44.7566V46.5102C134.647 45.3688 130.02 44.7566 125.252 44.7566C94.7908 44.7566 70.0088 69.5387 70.0088 100C70.0088 123.125 84.3354 143.543 105.522 151.618V197.07H148.139V49.725V32.1297L118.939 2.92969Z" fill="#E4F6FF"/>
<path d="M17.1338 159.979H118.15V182.865H17.1338V159.979Z" fill="#407093"/>
<path d="M105.522 159.979H118.149V182.865H105.522V159.979Z" fill="#365E7D"/>
<path d="M17.1338 17.1353H88.1607V29.7622H17.1338V17.1353Z" fill="#DD636E"/>
<path d="M17.1338 52.6484H125.253V147.351H17.1338V52.6484Z" fill="#95D6A4"/>
<path d="M125.252 52.6484H96.826C80.7709 62.3234 70.0088 79.9277 70.0088 100C70.0088 119.774 80.4889 137.561 96.7709 147.352H125.252V52.6484Z" fill="#78C2A4"/>
<path d="M148.138 32.1297H118.938V2.92969L148.138 32.1297Z" fill="#D3EFFB"/>
<path d="M113.414 145.773H137.09V159.978H113.414V145.773Z" fill="#2B4D66"/>
<path d="M118.149 159.979H132.355V174.184H118.149V159.979Z" fill="#4A80AA"/>
<path d="M113.414 174.184H137.09V197.07H113.414V174.184Z" fill="#F6E781"/>
<path d="M129.198 174.184H137.09V197.07H129.198V174.184Z" fill="#F4DD45"/>
<path d="M125.252 147.352C151.404 147.352 172.604 126.152 172.604 100C172.604 73.8485 151.404 52.6484 125.252 52.6484C99.1004 52.6484 77.9004 73.8485 77.9004 100C77.9004 126.152 99.1004 147.352 125.252 147.352Z" fill="#F6E781"/>
<path d="M153.888 62.2891C159.936 70.2414 163.528 80.1629 163.528 90.9246C163.528 117.076 142.328 138.276 116.177 138.276C105.415 138.276 95.4937 134.684 87.541 128.636C96.1898 140.008 109.863 147.352 125.252 147.352C151.404 147.352 172.604 126.152 172.604 100C172.604 84.6102 165.26 70.9375 153.888 62.2891Z" fill="#F4DD45"/>
<path d="M125.253 134.724C144.43 134.724 159.977 119.178 159.977 100C159.977 80.8224 144.43 65.2759 125.253 65.2759C106.075 65.2759 90.5283 80.8224 90.5283 100C90.5283 119.178 106.075 134.724 125.253 134.724Z" fill="#E4F6FF"/>
<path d="M146.222 72.3223C150.644 78.1488 153.269 85.4133 153.269 93.2918C153.269 112.47 137.722 128.016 118.545 128.016C110.666 128.016 103.402 125.391 97.5752 120.969C103.916 129.326 113.954 134.724 125.253 134.724C144.431 134.724 159.977 119.177 159.977 99.9996C159.977 88.7008 154.579 78.6637 146.222 72.3223Z" fill="#D3EFFB"/>
<path d="M17.1338 32.6919H88.1611C89.7791 32.6919 91.0908 31.3802 91.0908 29.7622V17.1353C91.0908 15.5173 89.7791 14.2056 88.1611 14.2056H17.1338C15.5158 14.2056 14.2041 15.5173 14.2041 17.1353V29.7622C14.2041 31.3802 15.5158 32.6919 17.1338 32.6919ZM20.0635 20.0649H85.2314V26.8325H20.0635V20.0649Z" fill="black"/>
<path d="M175.534 100C175.534 81.7066 165.712 65.6656 151.067 56.8672V32.1289C151.067 31.352 150.758 30.6066 150.209 30.0574L121.009 0.858203C120.46 0.308594 119.715 0 118.938 0H2.92969C1.31172 0 0 1.31172 0 2.92969V35.4059C0 37.0238 1.31172 38.3355 2.92969 38.3355C4.54766 38.3355 5.85938 37.0238 5.85938 35.4059V5.85938H116.009V32.1297C116.009 33.7477 117.321 35.0594 118.939 35.0594H145.207V53.8527C139.088 51.1969 132.344 49.7203 125.26 49.7191C125.258 49.7191 125.256 49.7188 125.254 49.7188H17.1332C15.5152 49.7188 14.2035 51.0305 14.2035 52.6484V147.352C14.2035 148.97 15.5152 150.281 17.1332 150.281H34.5785C36.1965 150.281 37.5082 148.97 37.5082 147.352C37.5082 145.734 36.1965 144.422 34.5785 144.422H20.0629V55.5781H101.719C85.8215 64.0344 74.9715 80.7727 74.9715 100C74.9715 119.227 85.8215 135.966 101.719 144.422H48.25C46.632 144.422 45.3203 145.734 45.3203 147.352C45.3203 148.97 46.632 150.281 48.25 150.281H110.485V157.049H17.1332C15.5152 157.049 14.2035 158.361 14.2035 159.979V182.865C14.2035 184.483 15.5152 185.795 17.1332 185.795H110.485V194.141H5.85938V49.0777C5.85938 47.4598 4.54766 46.148 2.92969 46.148C1.31172 46.148 0 47.4598 0 49.0777V197.07C0 198.688 1.31172 200 2.92969 200H148.137C149.755 200 151.066 198.688 151.066 197.07V143.133C165.712 134.334 175.534 118.293 175.534 100ZM121.868 10.0035L141.065 29.2H121.868V10.0035ZM125.254 150.281C125.256 150.281 125.258 150.281 125.26 150.281C128.296 150.28 131.271 150.009 134.161 149.491V157.049H116.345V150.281H125.254ZM121.079 171.254V162.908H129.425V171.254H121.079ZM20.0629 179.935V162.908H115.22V171.254H113.414C111.796 171.254 110.485 172.566 110.485 174.184V179.936H20.0629V179.935ZM116.344 177.114H134.161V194.141H116.344V177.114ZM145.207 194.141H140.02V174.184C140.02 172.566 138.708 171.254 137.09 171.254H135.285V162.908H137.09C138.708 162.908 140.02 161.596 140.02 159.979V148.067C141.793 147.521 143.523 146.878 145.207 146.147V194.141H145.207ZM125.252 144.422C100.758 144.422 80.8309 124.494 80.8309 100C80.8309 75.5059 100.758 55.5781 125.252 55.5781C149.746 55.5781 169.674 75.5059 169.674 100C169.674 124.494 149.746 144.422 125.252 144.422Z" fill="black"/>
<path d="M159.88 103.931C158.293 103.616 156.75 104.646 156.435 106.234C153.491 121.044 140.378 131.793 125.254 131.793C107.721 131.793 93.457 117.531 93.457 100C93.457 82.4695 107.721 68.2074 125.254 68.2074C140.377 68.2074 153.491 78.9566 156.435 93.7671C156.751 95.3539 158.291 96.3843 159.88 96.0695C161.466 95.7539 162.497 94.2121 162.182 92.625C158.695 75.0816 143.164 62.3484 125.254 62.3484C104.49 62.3484 87.5977 79.239 87.5977 100.001C87.5977 120.762 104.49 137.653 125.254 137.653C143.164 137.653 158.695 124.92 162.182 107.377C162.497 105.789 161.466 104.247 159.88 103.931Z" fill="black"/>
</svg>
