<svg width="200" height="200" viewBox="0 0 200 200" fill="none" xmlns="http://www.w3.org/2000/svg">
<g clip-path="url(#clip0)">
<path d="M159.978 15.5566H25.8164V6.87578C25.8164 4.69648 27.5832 2.92969 29.7625 2.92969H156.033C158.212 2.92969 159.979 4.69648 159.979 6.87578V15.5566H159.978Z" fill="#D3EFFB"/>
<path d="M163.924 28.1836H21.8701V19.5027C21.8701 17.3234 23.6369 15.5566 25.8162 15.5566H159.978C162.158 15.5566 163.924 17.3234 163.924 19.5027V28.1836Z" fill="#CBE2FF"/>
<path d="M175.762 197.07H10.4686L10.0322 145.773H175.762V197.07Z" fill="#9D66D5"/>
<path d="M175.763 171.704L151.862 147.804C152.164 147.131 152.449 146.454 152.722 145.773H50.123C52.8148 152.529 56.8883 158.858 62.3481 164.318C72.782 174.752 86.6547 180.498 101.411 180.498C109.212 180.498 116.898 178.853 123.956 175.702L145.324 197.071H175.762V171.704H175.763Z" fill="#8659B9"/>
<path d="M167.871 145.773H17.9248V32.1297C17.9248 29.9504 19.6916 28.1836 21.8709 28.1836H163.925C166.104 28.1836 167.871 29.9504 167.871 32.1297V145.773H167.871Z" fill="#F4FBFF"/>
<path d="M70.0107 40.8109V89.7406H30.5514V40.8109H70.0107Z" fill="#DD636E"/>
<path d="M163.925 28.1836H153.524C155.704 28.1836 157.471 29.9504 157.471 32.1297V145.773H167.871V32.1297C167.871 29.9504 166.104 28.1836 163.925 28.1836Z" fill="#E4F6FF"/>
<path d="M125.377 165.989L142.116 149.25L152.159 159.293L135.42 176.032L125.377 165.989Z" fill="#2B4D66"/>
<path d="M138.767 172.686L148.81 162.643L158.853 172.686L148.81 182.729L138.767 172.686Z" fill="#4A80AA"/>
<path d="M189.967 197.07H156.485L145.496 186.082L162.237 169.34L189.967 197.07Z" fill="#407093"/>
<path d="M162.237 169.34L156.657 174.921L178.807 197.07H189.967L162.237 169.34Z" fill="#365E7D"/>
<path d="M101.411 172.607C127.563 172.607 148.763 151.407 148.763 125.255C148.763 99.1035 127.563 77.9034 101.411 77.9034C75.2596 77.9034 54.0596 99.1035 54.0596 125.255C54.0596 151.407 75.2596 172.607 101.411 172.607Z" fill="#407093"/>
<path d="M130.046 87.5441C136.094 95.4964 139.686 105.418 139.686 116.18C139.686 142.331 118.486 163.531 92.3348 163.531C81.573 163.531 71.652 159.939 63.6992 153.891C72.348 165.263 86.0207 172.607 101.41 172.607C127.562 172.607 148.762 151.407 148.762 125.255C148.762 109.865 141.418 96.1925 130.046 87.5441Z" fill="#365E7D"/>
<path d="M101.411 159.979C120.588 159.979 136.135 144.433 136.135 125.255C136.135 106.077 120.588 90.5308 101.411 90.5308C82.2331 90.5308 66.6865 106.077 66.6865 125.255C66.6865 144.433 82.2331 159.979 101.411 159.979Z" fill="#E4F6FF"/>
<path d="M122.38 97.5773C126.802 103.404 129.427 110.668 129.427 118.547C129.427 137.725 113.881 153.271 94.7029 153.271C86.8244 153.271 79.5604 150.646 73.7334 146.224C80.0744 154.581 90.1119 159.979 101.411 159.979C120.589 159.979 136.135 144.432 136.135 125.255C136.135 113.956 130.737 103.919 122.38 97.5773Z" fill="#D3EFFB"/>
<path d="M17.9262 109.438C19.5441 109.438 20.8559 108.126 20.8559 106.508V32.1289C20.8559 31.5695 21.3105 31.1145 21.8699 31.1133H21.8707H163.925H163.927C164.487 31.1137 164.942 31.5691 164.942 32.1289V67.4453C164.942 69.0633 166.253 70.375 167.871 70.375C169.489 70.375 170.801 69.0633 170.801 67.4453V32.1289C170.801 29.3863 169.183 27.0203 166.854 25.918V19.5027C166.854 16.7602 165.236 14.3945 162.908 13.2918V6.87578C162.909 3.08437 159.824 0 156.033 0H29.7625C25.9711 0 22.8867 3.08437 22.8867 6.87578V13.2918C20.5586 14.3945 18.9406 16.7602 18.9406 19.5027V25.9191C16.6133 27.0219 14.9961 29.3871 14.9961 32.1289V106.508C14.9965 108.126 16.3082 109.438 17.9262 109.438ZM24.8004 19.5027C24.8004 18.9422 25.2562 18.4863 25.8168 18.4863H159.979C160.54 18.4863 160.996 18.9422 160.996 19.5027V25.2539H24.8004V19.5027ZM28.7465 6.87578C28.7465 6.31523 29.2023 5.85938 29.7629 5.85938H156.033C156.594 5.85938 157.05 6.31523 157.05 6.87578V12.6273H28.7465V6.87578Z" fill="black"/>
<path d="M128.037 98.6296C120.925 91.5175 111.47 87.6011 101.412 87.6011C91.3539 87.6011 81.898 91.5179 74.7863 98.6296C67.6746 105.741 63.7578 115.197 63.7578 125.255C63.7578 135.313 67.6746 144.769 74.7863 151.88C81.898 158.992 91.3539 162.909 101.412 162.909C111.47 162.909 120.925 158.992 128.037 151.88C135.149 144.769 139.066 135.313 139.066 125.255C139.066 115.197 135.149 105.741 128.037 98.6296ZM123.894 147.737C117.888 153.742 109.904 157.05 101.411 157.05C92.9184 157.05 84.9344 153.742 78.9289 147.737C72.9238 141.732 69.6164 133.748 69.6164 125.255C69.6164 116.762 72.9238 108.778 78.9289 102.773C84.9344 96.7675 92.9184 93.4601 101.411 93.4601C109.904 93.4601 117.888 96.7675 123.894 102.773C129.899 108.778 133.206 116.762 133.206 125.255C133.206 133.748 129.899 141.732 123.894 147.737Z" fill="black"/>
<path d="M192.039 194.999L178.691 181.651V145.773C178.691 144.155 177.38 142.844 175.762 142.844H170.801V81.1172C170.801 79.4992 169.489 78.1875 167.871 78.1875C166.253 78.1875 164.941 79.4992 164.941 81.1172V142.844H148.511C155.156 124.968 151.309 104.044 136.965 89.7008C119.576 72.3117 92.5157 70.3492 72.9407 83.8078V40.8109C72.9407 39.1929 71.629 37.8812 70.011 37.8812H30.5517C28.9337 37.8812 27.622 39.1929 27.622 40.8109V89.7406C27.622 91.3586 28.9337 92.6703 30.5517 92.6703H63.1177C51.047 106.835 48.1122 126.166 54.3118 142.844H20.8556V120.18C20.8556 118.562 19.5439 117.25 17.9259 117.25C16.3079 117.25 14.9962 118.562 14.9962 120.18V142.844H10.0314C9.25011 142.844 8.50128 143.156 7.95089 143.711C7.4005 144.265 7.09503 145.017 7.10167 145.798L7.53917 197.095C7.55284 198.704 8.86026 200 10.4689 200H27.8751C29.4931 200 30.8048 198.688 30.8048 197.07C30.8048 195.452 29.4931 194.141 27.8751 194.141H13.3739L12.9864 148.703H56.9278C59.2212 153.06 62.1974 157.149 65.8571 160.809C75.6595 170.611 88.5353 175.512 101.411 175.512C109.516 175.512 117.62 173.569 124.958 169.686L133.38 178.108C133.929 178.658 134.675 178.966 135.452 178.966C136.229 178.966 136.974 178.658 137.523 178.108L138.8 176.831L144.701 182.733L143.425 184.009C142.281 185.154 142.281 187.009 143.425 188.152L149.413 194.141H41.547C39.929 194.141 38.6173 195.452 38.6173 197.07C38.6173 198.688 39.929 200 41.547 200H156.484C156.487 200 156.488 200 156.491 200C157.239 199.998 157.986 199.712 158.557 199.142C159.701 197.998 159.701 196.143 158.557 194.999L149.64 186.082L162.238 173.484L187.896 199.142C188.468 199.714 189.218 200 189.968 200C190.717 200 191.467 199.714 192.039 199.142C193.184 197.998 193.184 196.143 192.039 194.999ZM33.4814 43.7406H67.0814V86.8109H33.4814V43.7406ZM70.0001 156.666C52.6802 139.346 52.6802 111.164 70.0001 93.8441C78.6603 85.1844 90.0357 80.8543 101.411 80.8543C112.786 80.8543 124.162 85.184 132.822 93.8441C150.142 111.164 150.142 139.346 132.822 156.666C115.502 173.986 87.32 173.986 70.0001 156.666ZM130.108 166.549C132.52 164.871 134.816 162.958 136.965 160.809C139.114 158.66 141.027 156.363 142.706 153.951L148.05 159.295L135.452 171.893L130.108 166.549ZM142.943 172.689L148.845 166.787L154.746 172.689L148.845 178.59L142.943 172.689ZM160.166 167.269L158.89 168.545L152.988 162.644L154.265 161.367C154.814 160.818 155.123 160.072 155.123 159.295C155.123 158.518 154.814 157.773 154.265 157.224L145.842 148.801C145.859 148.768 145.877 148.736 145.895 148.703H172.833V175.792L164.309 167.269C163.165 166.125 161.31 166.125 160.166 167.269Z" fill="black"/>
<path d="M155.243 37.8812H83.4268C81.8088 37.8812 80.4971 39.1929 80.4971 40.8109C80.4971 42.4289 81.8088 43.7406 83.4268 43.7406H155.243C156.861 43.7406 158.173 42.4289 158.173 40.8109C158.173 39.1929 156.861 37.8812 155.243 37.8812Z" fill="black"/>
<path d="M158.173 53.4379C158.173 51.8199 156.861 50.5082 155.243 50.5082H83.4268C81.8088 50.5082 80.4971 51.8199 80.4971 53.4379C80.4971 55.0558 81.8088 56.3676 83.4268 56.3676H155.243C156.861 56.3676 158.173 55.0558 158.173 53.4379Z" fill="black"/>
<path d="M83.4277 63.1353C81.8098 63.1353 80.498 64.447 80.498 66.0649C80.498 67.6829 81.8098 68.9946 83.4277 68.9946H131.568C133.186 68.9946 134.498 67.6829 134.498 66.0649C134.498 64.447 133.186 63.1353 131.568 63.1353H83.4277Z" fill="black"/>
</g>
<defs>
<clipPath id="clip0">
<rect width="200" height="200" fill="white"/>
</clipPath>
</defs>
</svg>
