<svg width="16" height="16" viewBox="0 0 10 10" fill="green" xmlns="http://www.w3.org/2000/svg">
<path d="M5.125 0C2.437 0 0.25 2.187 0.25 4.875C0.25 7.563 2.437 9.75 5.125 9.75C7.813 9.75 10 7.563 10 4.875C10 2.187 7.813 0 5.125 0ZM5.125 0.75C7.40762 0.75 9.25 2.59238 9.25 4.875C9.25 7.15762 7.40762 9 5.125 9C2.84238 9 1 7.15762 1 4.875C1 2.59238 2.84238 0.75 5.125 0.75ZM3.7075 2.9175L3.1675 3.4575L4.5865 4.875L3.16825 6.2925L3.70825 6.8325L5.125 5.41388L6.5425 6.83137L7.0825 6.2925L5.66388 4.875L7.08137 3.4575L6.5425 2.9175L5.125 4.3365L3.7075 2.91825V2.9175Z" fill="#D83010"/>
</svg>
