<svg width="32" height="33" viewBox="0 0 32 33" fill="none" xmlns="http://www.w3.org/2000/svg">
<path d="M18.0115 20.2648H21.8567L22.4607 16.3591H18.0115V14.2243C18.0115 12.602 18.5418 11.1626 20.0595 11.1626H22.4984V7.75342C22.0698 7.6957 21.1641 7.56885 19.4515 7.56885C15.8755 7.56885 13.7795 9.45742 13.7795 13.7597V16.3586H10.1035V20.2643H13.7795V30.4288C14.5058 30.538 15.2435 30.6128 16.0001 30.6128C16.6841 30.6128 17.3521 30.5506 18.0115 30.4608V20.2648Z" fill="#63A4FF"/>
<path d="M16.0001 2.0415C12.2113 2.0415 8.57764 3.5466 5.89854 6.22569C3.21945 8.90478 1.71436 12.5384 1.71436 16.3272C1.71436 20.116 3.21945 23.7497 5.89854 26.4287C8.57764 29.1078 12.2113 30.6129 16.0001 30.6129C19.7889 30.6129 23.4225 29.1078 26.1016 26.4287C28.7807 23.7497 30.2858 20.116 30.2858 16.3272C30.2858 12.5384 28.7807 8.90478 26.1016 6.22569C23.4225 3.5466 19.7889 2.0415 16.0001 2.0415V2.0415Z" stroke="#63A4FF" stroke-width="2" stroke-miterlimit="10"/>
</svg>
