<svg width="24" height="24" viewBox="0 0 24 24" fill="none" xmlns="http://www.w3.org/2000/svg">
<path d="M23.7666 9.6498H22.8V9.6H12V14.4H18.7818C17.7924 17.1942 15.1338 19.2 12 19.2C8.0238 19.2 4.8 15.9762 4.8 12C4.8 8.0238 8.0238 4.8 12 4.8C13.8354 4.8 15.5052 5.4924 16.7766 6.6234L20.1708 3.2292C18.0276 1.2318 15.1608 0 12 0C5.373 0 0 5.373 0 12C0 18.627 5.373 24 12 24C18.627 24 24 18.627 24 12C24 11.1954 23.9172 10.41 23.7666 9.6498Z" fill="#FFC107"/>
<path d="M1.38477 6.4146L5.32737 9.306C6.39417 6.6648 8.97777 4.8 12.0012 4.8C13.8366 4.8 15.5064 5.4924 16.7778 6.6234L20.172 3.2292C18.0288 1.2318 15.162 0 12.0012 0C7.39197 0 3.39477 2.6022 1.38477 6.4146Z" fill="#FF3D00"/>
<path d="M11.9994 24.0002C15.099 24.0002 17.9154 22.814 20.0448 20.885L16.3308 17.7422C15.0855 18.6893 13.5639 19.2015 11.9994 19.2002C8.87821 19.2002 6.22801 17.21 5.22961 14.4326L1.31641 17.4476C3.30241 21.3338 7.33561 24.0002 11.9994 24.0002Z" fill="#4CAF50"/>
<path d="M23.7666 9.64941H22.8V9.59961H12V14.3996H18.7818C18.3085 15.7295 17.456 16.8915 16.3296 17.7422L16.3314 17.741L20.0454 20.8838C19.7826 21.1226 24 17.9996 24 11.9996C24 11.195 23.9172 10.4096 23.7666 9.64941Z" fill="#1976D2"/>
</svg>
