<svg width="28" height="28" viewBox="0 0 28 28" fill="none" xmlns="http://www.w3.org/2000/svg">
<path d="M27.9999 26.6347L23.4726 22.1084C24.6825 20.5511 25.2534 18.5913 25.069 16.6279C24.8846 14.6645 23.9587 12.8452 22.48 11.5405C21.0013 10.2358 19.0809 9.54379 17.1098 9.60534C15.1388 9.66689 13.2653 10.4774 11.8709 11.8718C10.4764 13.2663 9.66592 15.1397 9.60437 17.1108C9.54281 19.0819 10.2349 21.0023 11.5396 22.481C12.8443 23.9597 14.6635 24.8855 16.6269 25.0699C18.5903 25.2544 20.5501 24.6835 22.1074 23.4736L26.6347 27.9999L27.9999 26.6347ZM17.3792 23.1724C16.2335 23.1724 15.1134 22.8326 14.1608 22.196C13.2081 21.5595 12.4656 20.6547 12.0271 19.5962C11.5886 18.5376 11.4739 17.3728 11.6974 16.2491C11.921 15.1253 12.4727 14.0931 13.2829 13.2829C14.0931 12.4727 15.1253 11.921 16.2491 11.6975C17.3728 11.4739 18.5376 11.5887 19.5962 12.0271C20.6547 12.4656 21.5595 13.2081 22.196 14.1608C22.8326 15.1134 23.1723 16.2335 23.1723 17.3792C23.1706 18.9151 22.5596 20.3876 21.4736 21.4736C20.3876 22.5596 18.9151 23.1706 17.3792 23.1724Z" fill="black"/>
<path d="M5.7931 23.1725H1.93103C1.41905 23.172 0.92818 22.9684 0.566152 22.6063C0.204123 22.2443 0.000511219 21.7534 0 21.2415V17.3794H1.93103V21.2415H5.7931V23.1725Z" fill="black"/>
<path d="M0 9.65527H1.93103V13.5173H0V9.65527Z" fill="black"/>
<path d="M23.173 5.7931H21.242V1.93103H17.3799V0H21.242C21.7539 0.000511219 22.2448 0.204123 22.6068 0.566152C22.9689 0.92818 23.1725 1.41905 23.173 1.93103V5.7931Z" fill="black"/>
<path d="M9.65527 0H13.5173V1.93103H9.65527V0Z" fill="black"/>
<path d="M1.93103 5.7931H0V1.93103C0.000511219 1.41905 0.204123 0.92818 0.566152 0.566152C0.92818 0.204123 1.41905 0.000511219 1.93103 0H5.7931V1.93103H1.93103V5.7931Z" fill="black"/>
</svg>
