<svg width="30" height="25" viewBox="0 0 30 25" fill="none" xmlns="http://www.w3.org/2000/svg">
<path d="M28.643 11.7501V4.07145C28.643 3.25685 28.3194 2.47561 27.7434 1.89961C27.1674 1.3236 26.3862 1 25.5716 1H4.07145C3.25685 1 2.47561 1.3236 1.89961 1.89961C1.3236 2.47561 1 3.25685 1 4.07145V13.2858C1 14.1004 1.3236 14.8816 1.89961 15.4576C2.47561 16.0336 3.25685 16.3572 4.07145 16.3572H14.8215" stroke="black" stroke-width="1.95403" stroke-linecap="round" stroke-linejoin="round"/>
<path d="M28.457 17.7654C29.2156 18.2323 29.168 19.3672 28.3879 19.4563L24.4457 19.9032L22.678 23.4538C22.3279 24.1587 21.2452 23.8131 21.0655 22.9408L19.1382 13.5483C18.9862 12.8112 19.6496 12.3474 20.29 12.7421L28.457 17.7654V17.7654Z" stroke="black" stroke-width="1.95403"/>
<path d="M14.8223 8.69302L14.8368 8.677" stroke="black" stroke-width="1.95403" stroke-linecap="round" stroke-linejoin="round"/>
<path d="M20.9648 8.69302L20.9794 8.677" stroke="black" stroke-width="1.95403" stroke-linecap="round" stroke-linejoin="round"/>
<path d="M8.67969 8.69302L8.69425 8.677" stroke="black" stroke-width="1.95403" stroke-linecap="round" stroke-linejoin="round"/>
</svg>
