<svg width="28" height="28" viewBox="0 0 28 28" fill="none" xmlns="http://www.w3.org/2000/svg">
<path d="M16.6444 8.76009H4.37994C4.1476 8.76009 3.92478 8.66779 3.76049 8.5035C3.5962 8.33922 3.50391 8.11639 3.50391 7.88406V4.37994C3.50391 4.1476 3.5962 3.92478 3.76049 3.76049C3.92478 3.5962 4.1476 3.50391 4.37994 3.50391H16.6444C16.8767 3.50391 17.0995 3.5962 17.2638 3.76049C17.4281 3.92478 17.5204 4.1476 17.5204 4.37994V7.88406C17.5204 8.11639 17.4281 8.33922 17.2638 8.5035C17.0995 8.66779 16.8767 8.76009 16.6444 8.76009ZM5.25597 7.00803H15.7683V5.2034H5.25597V7.00803Z" fill="black"/>
<path d="M16.6444 10.5825H4.37994C4.1476 10.5825 3.92478 10.6748 3.76049 10.8391C3.5962 11.0034 3.50391 11.2262 3.50391 11.4585V14.8926C3.50391 15.1249 3.5962 15.3477 3.76049 15.512C3.92478 15.6763 4.1476 15.7686 4.37994 15.7686H14.3316L17.5204 12.5273V11.4585C17.5204 11.2262 17.4281 11.0034 17.2638 10.8391C17.0995 10.6748 16.8767 10.5825 16.6444 10.5825ZM15.7683 14.0166H5.25597V12.2645H15.7683V14.0166Z" fill="black"/>
<path d="M7.93683 25.8516V25.7991L8.21716 24.5814H1.75206V1.75206H19.2727V10.7314L21.0247 9.07567V0.87603C21.0247 0.643692 20.9324 0.420871 20.7681 0.256583C20.6039 0.0922957 20.381 0 20.1487 0H0.87603C0.643692 0 0.420871 0.0922957 0.256583 0.256583C0.0922957 0.420871 0 0.643692 0 0.87603V25.4049C0 25.6372 0.0922957 25.86 0.256583 26.0243C0.420871 26.1886 0.643692 26.2809 0.87603 26.2809H7.88427C7.89149 26.1367 7.90905 25.9933 7.93683 25.8516V25.8516Z" fill="black"/>
<path d="M17.5212 15.0415L16.8379 15.7336C17.0074 15.6986 17.1628 15.6142 17.2844 15.4911C17.406 15.3679 17.4884 15.2115 17.5212 15.0415Z" fill="black"/>
<path d="M3.50391 21.8483C3.50391 22.0807 3.5962 22.3035 3.76049 22.4678C3.92478 22.6321 4.1476 22.7244 4.37994 22.7244H8.61992L8.88273 21.5855L8.99661 21.1037V21.0599H5.25597V19.2728H10.81L12.5621 17.5208H4.37994C4.1476 17.5208 3.92478 17.613 3.76049 17.7773C3.5962 17.9416 3.50391 18.1644 3.50391 18.3968V21.8483Z" fill="black"/>
<path d="M27.5867 12.8513L24.6345 9.89909C24.5034 9.76771 24.3478 9.66347 24.1764 9.59235C24.0051 9.52123 23.8213 9.48462 23.6358 9.48462C23.4502 9.48462 23.2665 9.52123 23.0952 9.59235C22.9238 9.66347 22.7681 9.76771 22.6371 9.89909L10.6267 21.9795L9.63683 26.1932C9.59977 26.375 9.59893 26.5623 9.63438 26.7444C9.66982 26.9266 9.74084 27.0999 9.84338 27.2545C9.94591 27.4091 10.0779 27.542 10.2319 27.6455C10.3859 27.749 10.5587 27.8211 10.7406 27.8577C10.8309 27.8668 10.9219 27.8668 11.0122 27.8577C11.1195 27.8752 11.229 27.8752 11.3363 27.8577L15.5851 26.9203L27.5867 14.8925C27.7178 14.7622 27.8218 14.6073 27.8929 14.4366C27.9639 14.266 28.0004 14.083 28.0004 13.8982C28.0004 13.7133 27.9639 13.5303 27.8929 13.3597C27.8218 13.1891 27.7178 13.0341 27.5867 12.9039V12.8513ZM14.6915 25.326L11.4853 26.0356L12.2649 22.8556L21.2705 13.7536L23.7409 16.224L14.6915 25.326ZM24.7308 15.2341L22.2604 12.7637L23.6533 11.3883L26.1412 13.8763L24.7308 15.2341Z" fill="black"/>
</svg>
