<svg width="250" height="250" viewBox="0 0 250 250" fill="none" xmlns="http://www.w3.org/2000/svg">
<path d="M230.244 150.704H19.9286C16.1644 150.704 13.1132 147.652 13.1132 143.888V16.4214C13.1132 12.6572 16.1644 9.60596 19.9286 9.60596H230.244C234.008 9.60596 237.059 12.6572 237.059 16.4214V143.888C237.059 147.652 234.008 150.704 230.244 150.704Z" fill="#BED8FB"/>
<path d="M230.243 9.60596H205.135V143.888C205.135 147.652 202.084 150.704 198.319 150.704H230.243C234.007 150.704 237.059 147.652 237.059 143.888V16.4214C237.059 12.6577 234.007 9.60596 230.243 9.60596Z" fill="#9DC6FB"/>
<path d="M32.1697 125.002V44.7544C32.1697 41.0845 35.1448 38.1099 38.8142 38.1099H130.657C134.327 38.1099 137.302 41.085 137.302 44.7544V125.002C137.302 128.672 134.326 131.647 130.657 131.647H38.8147C35.1448 131.647 32.1697 128.672 32.1697 125.002Z" fill="white"/>
<path d="M130.657 38.1099H98.9571C102.627 38.1099 105.602 41.085 105.602 44.7544V125.002C105.602 128.672 102.627 131.647 98.9571 131.647H130.657C134.327 131.647 137.301 128.672 137.301 125.002V44.7549C137.301 41.085 134.327 38.1099 130.657 38.1099Z" fill="#F7F4F7"/>
<path d="M101.795 101.898H67.6765C64.6003 101.898 62.1066 99.4048 62.1066 96.3286V76.3755H107.365V96.3286C107.365 99.4048 104.871 101.898 101.795 101.898Z" fill="#89808C"/>
<path d="M81.4723 65.834L51.4366 76.1284C51.0841 76.2495 51.0841 76.748 51.4366 76.8687L81.4723 87.1631C83.5875 87.8882 85.8839 87.8882 87.9991 87.1631L118.035 76.8687C118.387 76.7476 118.387 76.249 118.035 76.1284L87.9991 65.834C85.8839 65.1094 83.5875 65.1094 81.4723 65.834Z" fill="#665E66"/>
<path d="M240.905 19.0557H9.07794C6.08673 19.0557 3.66144 16.6309 3.66144 13.6392V9.08008C3.66144 6.08887 6.08624 3.66357 9.07794 3.66357H240.906C243.897 3.66357 246.322 6.08838 246.322 9.08008V13.6392C246.322 16.6304 243.897 19.0557 240.905 19.0557Z" fill="#F7F4F7"/>
<path d="M240.905 3.66113H208.981C211.972 3.66113 214.398 6.08594 214.398 9.07764V13.6367C214.398 16.6279 211.973 19.0532 208.981 19.0532H240.905C243.896 19.0532 246.322 16.6284 246.322 13.6367V9.07764C246.322 6.08594 243.897 3.66113 240.905 3.66113Z" fill="#E0DDE0"/>
<path d="M197.278 197.312L194.288 178.198H172.703L169.713 197.312L159.495 237.884H207.495L197.278 197.312Z" fill="#FFECE4"/>
<path d="M240.086 240.044V239.546C240.086 220.361 226.47 203.875 207.631 200.25L200.448 198.867C199.233 198.633 198.147 198.082 197.267 197.311C191.095 207.827 175.892 207.83 169.715 197.316L169.712 197.312C168.824 198.088 167.737 198.638 166.542 198.867L159.36 200.25C140.52 203.875 126.905 220.361 126.905 239.546V240.044C126.905 243.52 129.722 246.336 133.197 246.336H233.792C237.268 246.336 240.086 243.519 240.086 240.044Z" fill="#CCF49F"/>
<path d="M207.631 200.249L200.448 198.867C199.233 198.633 198.147 198.082 197.268 197.311C195 201.173 191.514 203.612 187.705 204.637C200.056 211.56 208.163 224.747 208.163 239.546V240.043C208.163 243.519 205.345 246.336 201.87 246.336H233.793C237.269 246.336 240.086 243.519 240.086 240.043V239.546C240.086 220.361 226.47 203.875 207.631 200.249Z" fill="#B3E59F"/>
<path d="M216.716 163.864C215.197 158.794 214.424 153.53 214.422 148.237V148.224C214.416 131.147 200.572 117.307 183.495 117.307C166.419 117.307 152.575 131.147 152.569 148.224V148.237C152.568 153.53 151.795 158.794 150.275 163.864C149.35 166.947 148.88 170.149 148.879 173.369C148.877 179.19 152.564 184.375 158.063 186.284C174.535 192.002 192.455 192.002 208.927 186.284C214.427 184.374 218.113 179.19 218.111 173.369C218.111 170.149 217.64 166.947 216.716 163.864Z" fill="#ECBE6B"/>
<path d="M216.716 163.863C215.197 158.793 214.424 153.529 214.422 148.236V148.223C214.416 131.146 200.572 117.306 183.495 117.306C177.655 117.306 172.194 118.927 167.534 121.741C176.498 127.154 182.494 136.987 182.498 148.223V148.236C182.499 153.529 183.272 158.793 184.792 163.863C185.717 166.947 186.187 170.148 186.188 173.368C186.19 179.189 182.503 184.374 177.004 186.283C173.892 187.363 170.729 188.238 167.534 188.911C181.254 191.797 195.567 190.921 208.928 186.283C214.428 184.373 218.114 179.189 218.112 173.368C218.111 170.148 217.64 166.947 216.716 163.863Z" fill="#E8AE4D"/>
<path d="M84.0976 197.81L81.1079 178.696H55.6948L52.705 197.81L42.4877 238.381H94.3149L84.0976 197.81Z" fill="#FFECE4"/>
<path d="M126.905 240.044C126.905 220.859 113.289 204.373 94.45 200.747L87.2674 199.365C86.0521 199.131 84.9666 198.58 84.0867 197.809C76.5184 208.805 60.2801 208.808 52.7078 197.814L52.7049 197.81C51.8167 198.586 50.7293 199.136 49.535 199.365L42.3524 200.747C23.513 204.373 9.89728 220.859 9.89728 240.044V240.044C9.89728 243.52 12.7147 246.337 16.1898 246.337H120.612C124.088 246.336 126.905 243.519 126.905 240.044Z" fill="#5884C9"/>
<path d="M94.4501 200.747L87.2675 199.364C86.0522 199.13 84.9667 198.579 84.0869 197.808C81.5991 201.422 78.1723 203.841 74.4267 205.08C86.8329 211.988 94.9814 225.206 94.9814 240.044C94.9814 243.52 92.164 246.336 88.6889 246.336H120.613C124.088 246.336 126.905 243.519 126.905 240.044C126.905 220.858 113.289 204.373 94.4501 200.747Z" fill="#60A0F7"/>
<path d="M45.7073 152.351H36.7513C33.5115 152.351 30.8851 154.978 30.8851 158.217V164.718C30.8851 167.958 33.5115 170.584 36.7513 170.584H45.7191L45.7073 152.351Z" fill="#FFECE4"/>
<path d="M100.051 152.351H91.096L91.0936 170.584H100.051C103.291 170.584 105.917 167.958 105.917 164.718V158.217C105.917 154.977 103.291 152.351 100.051 152.351Z" fill="#FFDDCE"/>
<path d="M79.2106 116.809H57.5915C46.8571 116.809 38.1555 125.576 38.1555 136.39V152.351C40.7028 152.351 42.7678 154.432 42.7678 156.998L42.7878 167.042C42.9357 173.992 45.1916 180.681 50.4279 185.224C54.6437 188.881 60.57 192.073 68.3986 192.161C76.2272 192.073 82.1535 188.881 86.3693 185.224C91.6061 180.681 93.8859 173.992 94.0339 167.042H94.03L94.0339 156.998C94.0339 154.432 96.0988 152.351 98.6462 152.351V136.39C98.6467 125.576 89.945 116.809 79.2106 116.809Z" fill="#ECBE6B"/>
<path d="M79.2109 116.809H57.5918C56.8574 116.809 56.1333 116.854 55.4199 116.934C56.7295 117.766 57.9258 118.672 59.0068 119.61C64.2437 124.153 66.5234 130.842 66.6714 137.792H66.6675V167.042H66.6714C66.5234 173.992 64.2437 180.681 59.0068 185.224C57.7354 186.327 56.3057 187.385 54.7178 188.331C58.395 190.522 62.9316 192.1 68.3994 192.161C76.228 192.073 82.1543 188.881 86.3701 185.224C91.6069 180.681 93.8867 173.992 94.0347 167.042H94.0308L94.0347 156.998C94.0347 154.432 96.0996 152.351 98.647 152.351V136.39C98.647 125.576 89.9453 116.809 79.2109 116.809Z" fill="#E8AE4D"/>
<path d="M108.522 246.336H28.2801C28.2801 230.632 41.0106 217.902 56.7137 217.902H80.0877C95.7918 217.902 108.522 230.632 108.522 246.336Z" fill="#756E78"/>
<path d="M94.45 200.747L87.2674 199.364C86.0521 199.13 84.9666 198.579 84.0868 197.808C81.599 201.422 78.1722 203.841 74.4266 205.08C86.8329 211.988 94.9813 225.206 94.9813 240.044C94.9813 243.52 92.1639 246.336 88.6888 246.336H120.613C124.088 246.336 126.905 243.519 126.905 240.044C126.905 220.858 113.289 204.373 94.45 200.747Z" fill="#4478C1"/>
<path d="M89.2528 219.421C92.9036 225.481 94.9813 232.555 94.9813 240.043C94.9813 243.519 92.1639 246.336 88.6888 246.336H108.522C108.522 233.841 100.458 223.235 89.2528 219.421Z" fill="#665E66"/>
<path d="M223.616 246.336H143.374C143.374 230.632 156.105 217.902 171.808 217.902H195.182C210.886 217.902 223.616 230.632 223.616 246.336Z" fill="#756E78"/>
<path d="M202.369 218.82C206.059 224.903 208.162 232.015 208.162 239.546V240.043C208.162 243.519 205.345 246.336 201.869 246.336H223.616C223.616 233.115 214.593 222.004 202.369 218.82Z" fill="#665E66"/>
<path d="M156.725 51.0566H218.781C220.804 51.0566 222.443 49.4175 222.443 47.3945C222.443 45.3716 220.804 43.7324 218.781 43.7324H156.725C154.702 43.7324 153.063 45.3716 153.063 47.3945C153.063 49.4175 154.702 51.0566 156.725 51.0566Z" fill="black"/>
<path d="M156.725 66.8711H218.781C220.804 66.8711 222.443 65.2319 222.443 63.209C222.443 61.186 220.804 59.5469 218.781 59.5469H156.725C154.702 59.5469 153.063 61.186 153.063 63.209C153.063 65.2319 154.702 66.8711 156.725 66.8711Z" fill="black"/>
<path d="M156.725 82.6855H218.781C220.804 82.6855 222.443 81.0464 222.443 79.0234C222.443 77.0005 220.804 75.3613 218.781 75.3613H156.725C154.702 75.3613 153.063 77.0005 153.063 79.0234C153.063 81.0464 154.702 82.6855 156.725 82.6855Z" fill="black"/>
<path d="M156.725 98.5H186.653C188.676 98.5 190.316 96.8608 190.316 94.8379C190.316 92.8149 188.676 91.1758 186.653 91.1758H156.725C154.702 91.1758 153.063 92.8149 153.063 94.8379C153.063 96.8608 154.702 98.5 156.725 98.5Z" fill="black"/>
<path d="M240.906 0H9.07812C4.07227 0 0 4.07275 0 9.07861V13.6377C0 18.6436 4.07275 22.7163 9.07861 22.7163H9.45215V143.89C9.45215 149.667 14.1523 154.367 19.9297 154.367H28.0449C27.521 155.546 27.2246 156.848 27.2246 158.219V164.719C27.2246 169.973 31.499 174.248 36.7529 174.248H40.0005C41.2959 179.823 44.0073 184.502 48.0298 187.991C48.7578 188.623 49.5005 189.216 50.2568 189.771L49.3413 195.623C49.1787 195.684 49.0137 195.737 48.8433 195.77L41.6611 197.152C21.1343 201.102 6.23584 219.141 6.23584 240.045C6.23584 245.534 10.7017 250 16.1909 250H120.613C122.999 250 125.189 249.155 126.906 247.751C128.622 249.155 130.813 250 133.199 250H233.794C239.283 250 243.749 245.534 243.749 240.045V239.547C243.749 232.004 241.787 224.558 238.074 218.013C237.076 216.253 234.84 215.635 233.082 216.634C231.322 217.632 230.706 219.867 231.704 221.626C234.792 227.071 236.425 233.269 236.425 239.547V240.045C236.425 241.496 235.245 242.676 233.794 242.676H227.064C225.24 226.697 211.643 214.242 195.184 214.242H171.81C155.351 214.242 141.753 226.697 139.929 242.676H133.199C131.749 242.676 130.568 241.496 130.568 240.045V239.547C130.568 222.149 142.969 207.134 160.053 203.847C167.247 202.431 167.459 202.495 168.641 202.089C176.403 211.124 190.581 211.123 198.343 202.087C199.536 202.497 199.874 202.456 206.94 203.847C212.028 204.826 216.748 206.827 220.968 209.794C222.622 210.957 224.906 210.559 226.07 208.904C227.233 207.25 226.834 204.966 225.18 203.803C220.107 200.236 214.437 197.831 208.324 196.654C200.786 195.184 201.157 195.319 200.644 195.127L200.23 192.484C203.577 191.784 206.884 190.871 210.129 189.744C217.098 187.325 221.777 180.744 221.775 173.369C221.772 164.872 219.503 162.886 218.465 154.367H230.244C236.021 154.367 240.722 149.667 240.722 143.89V22.7158H240.906C245.912 22.7158 249.985 18.6431 249.985 13.6372V9.07812C249.984 4.07275 245.912 0 240.906 0V0ZM171.809 221.566H195.183C207.598 221.566 217.907 230.748 219.682 242.676H147.31C149.085 230.747 159.394 221.566 171.809 221.566ZM36.752 166.923C35.5366 166.923 34.5479 165.935 34.5479 164.719V158.218C34.5479 157.003 35.5361 156.014 36.752 156.014C36.9922 156.014 37.2266 155.989 37.4541 155.945C37.6816 155.989 37.916 156.014 38.1563 156.014C38.6802 156.014 39.1064 156.456 39.1064 157.006L39.1265 166.923H36.752ZM46.4507 167L46.4307 157C46.4307 153.737 44.5488 150.908 41.8184 149.549V136.392C41.8184 127.613 48.8945 120.472 57.5923 120.472H79.2114C87.9087 120.472 94.9854 127.613 94.9854 136.392V149.549C92.2549 150.908 90.373 153.736 90.373 156.998L90.3691 167.042C90.3691 167.069 90.3696 167.096 90.3701 167.123C90.2143 172.995 88.3726 178.64 83.9707 182.458C74.8164 190.4 62.2065 190.593 52.8296 182.458C48.3633 178.584 46.5811 172.826 46.4507 167ZM80.2378 196.828C74.1333 204.247 62.6831 204.262 56.564 196.84L57.0718 193.594C64.3506 196.545 72.3364 196.592 79.7314 193.593L80.2378 196.828ZM32.2158 242.676C33.9912 230.747 44.3003 221.566 56.7148 221.566H80.0889C92.5034 221.566 102.812 230.748 104.588 242.676H32.2158ZM120.613 242.676H111.97C110.146 226.697 96.5478 214.242 80.0889 214.242H56.7148C40.2559 214.242 26.6582 226.697 24.834 242.676H16.1909C14.7402 242.676 13.5601 241.496 13.5601 240.045C13.5601 222.646 25.9604 207.632 43.0454 204.344L50.2246 202.962C50.7646 202.859 51.2944 202.712 51.8096 202.525C60.79 212.128 76.0205 212.11 84.9839 202.522C85.5005 202.71 86.0327 202.858 86.5762 202.962L93.7583 204.344C110.843 207.632 123.244 222.646 123.244 240.045C123.244 241.496 122.063 242.676 120.613 242.676ZM166.349 195.125C165.827 195.323 166.172 195.189 158.668 196.654C144.105 199.457 132.382 209.355 126.796 222.333C121.126 209.601 109.519 199.919 95.1421 197.152L87.9609 195.771C87.79 195.737 87.6245 195.685 87.4624 195.625L86.5464 189.769C87.3018 189.214 88.043 188.622 88.7695 187.991C92.7344 184.552 95.4751 179.804 96.7974 174.248H100.052C105.306 174.248 109.58 169.973 109.58 164.719V158.219C109.58 156.848 109.283 155.546 108.76 154.367H148.527C147.491 162.875 145.22 164.875 145.218 173.369C145.215 180.744 149.895 187.325 156.863 189.744C160.108 190.871 163.416 191.784 166.762 192.484L166.349 195.125ZM97.6934 166.878L97.6973 157C97.6973 156.457 98.1235 156.015 98.6475 156.015H100.052C101.267 156.015 102.256 157.003 102.256 158.219V164.719C102.256 165.935 101.268 166.923 100.052 166.923H97.6938C97.6934 166.908 97.6938 166.893 97.6934 166.878ZM173.55 196.485L173.992 193.658C180.233 194.388 186.531 194.415 193 193.658L193.44 196.472C188.558 203.218 178.45 203.237 173.55 196.485ZM207.727 182.825C192.103 188.25 174.891 188.25 159.265 182.825C155.243 181.428 152.541 177.628 152.542 173.371C152.544 164.938 156.228 161.474 156.231 148.226C156.236 133.197 168.467 120.97 183.496 120.97C198.525 120.97 210.755 133.197 210.76 148.239C210.762 153.891 211.585 159.502 213.208 164.917L213.209 164.917C214.032 167.661 214.449 170.506 214.45 173.371C214.452 177.628 211.75 181.428 207.727 182.825ZM233.397 143.89C233.397 145.628 231.983 147.043 230.244 147.043H218.055C217.423 128.522 202.167 113.646 183.496 113.646C164.83 113.646 149.576 128.516 148.938 147.043H102.31V136.392C102.31 136.029 102.299 135.669 102.283 135.31H130.658C136.342 135.31 140.965 130.687 140.965 125.003V44.7554C140.965 39.0718 136.341 34.4487 130.658 34.4487H38.8154C33.1318 34.4487 28.5088 39.0723 28.5088 44.7554V76.313C28.5088 78.3359 30.1479 79.9751 32.1709 79.9751C34.1938 79.9751 35.833 78.3359 35.833 76.313V44.7554C35.833 43.1108 37.1709 41.7729 38.8154 41.7729H130.658C132.302 41.7729 133.64 43.1108 133.64 44.7554V125.003C133.64 126.648 132.302 127.986 130.658 127.986H100.74C97.3843 119.313 89.0029 113.148 79.2119 113.148H57.5928C48.2173 113.148 40.1348 118.801 36.5186 126.896C36.0913 126.379 35.8335 125.72 35.8335 125.003V93.4453C35.8335 91.4224 34.1943 89.7832 32.1714 89.7832C30.1484 89.7832 28.5093 91.4224 28.5093 93.4453V125.003C28.5093 129.156 31.0122 132.76 34.5869 134.385C34.5303 135.047 34.4951 135.715 34.4951 136.391V147.042H19.9292C18.1904 147.042 16.7759 145.627 16.7759 143.889V22.7158H233.397V143.89ZM242.66 13.6377C242.66 14.605 241.874 15.3921 240.906 15.3921H9.07812C8.11084 15.3921 7.32373 14.6055 7.32373 13.6377V9.07861C7.32373 8.11133 8.11035 7.32422 9.07812 7.32422H240.906C241.873 7.32422 242.66 8.11084 242.66 9.07861V13.6377Z" fill="black"/>
<path d="M50.2496 80.3336L58.4444 83.1422V96.3292C58.4444 101.42 62.5855 105.561 67.6763 105.561H101.794C106.885 105.561 111.026 101.42 111.026 96.3292V83.1422L114.637 81.9049V86.6134C114.637 88.6363 116.276 90.2755 118.299 90.2755C120.322 90.2755 121.961 88.6363 121.961 86.6134C121.856 77.2682 122.147 76.4596 121.784 75.3341C121.415 74.1046 120.479 73.0944 119.222 72.6647L89.1861 62.3702C86.3165 61.3859 83.1548 61.3868 80.2852 62.3702C80.2847 62.3702 80.2847 62.3702 80.2847 62.3702L50.2501 72.6642C48.6124 73.2247 47.5113 74.7653 47.5103 76.4967C47.5093 78.2286 48.6085 79.7701 50.2496 80.3336ZM103.702 96.3292C103.702 97.381 102.846 98.2369 101.794 98.2369H67.6763C66.6246 98.2369 65.7686 97.381 65.7686 96.3292V85.6525L80.2852 90.6276C83.1534 91.6115 86.316 91.611 89.1861 90.6276L103.702 85.6525V96.3292ZM82.6597 69.299C83.9986 68.8405 85.4737 68.8405 86.8116 69.299L107.819 76.4991L86.8116 83.6993C85.4727 84.1578 83.9986 84.1578 82.6597 83.6993L61.6519 76.4991L82.6597 69.299Z" fill="black"/>
</svg>
