<svg width="32" height="33" viewBox="0 0 32 33" fill="none" xmlns="http://www.w3.org/2000/svg">
<g clip-path="url(#clip0)">
<path d="M16 32.3271C7.17785 32.3271 0 25.1499 0 16.3271C0 7.50499 7.17785 0.327148 16 0.327148C24.8222 0.327148 32 7.50499 32 16.3271C32 25.1499 24.8222 32.3271 16 32.3271ZM16 1.55792C7.85662 1.55792 1.23077 8.18376 1.23077 16.3271C1.23077 24.4705 7.85662 31.0964 16 31.0964C24.1434 31.0964 30.7692 24.4705 30.7692 16.3271C30.7692 8.18376 24.1434 1.55792 16 1.55792Z" fill="#63A4FF"/>
<path d="M11.6923 12.6348H8V23.7117H11.6923V12.6348Z" fill="#63A4FF"/>
<path d="M10.1538 11.4042C11.3434 11.4042 12.3077 10.5777 12.3077 9.55807C12.3077 8.53847 11.3434 7.71191 10.1538 7.71191C8.96431 7.71191 8 8.53847 8 9.55807C8 10.5777 8.96431 11.4042 10.1538 11.4042Z" fill="#63A4FF"/>
<path d="M20.923 12.6348H20.5975H20.5969C19.251 12.6348 18.1353 13.6021 17.8972 14.8791H17.8461V12.6348H14.1538V23.7117H17.8461V18.4268V17.4858C17.8504 17.2526 17.8689 17.0372 17.8978 16.8335C18.0873 16.0151 18.8166 15.404 19.6923 15.404C20.712 15.404 21.5384 16.2305 21.5384 17.2501V17.5941V18.3178V23.7117H25.2307V18.1006V17.5941V16.9425C25.2307 14.5634 23.3021 12.6348 20.923 12.6348Z" fill="#63A4FF"/>
</g>
<defs>
<clipPath id="clip0">
<rect width="32" height="32" fill="white" transform="translate(0 0.327148)"/>
</clipPath>
</defs>
</svg>
