<svg width="60" height="60" viewBox="0 0 74 74" fill="none" xmlns="http://www.w3.org/2000/svg">
<circle cx="37" cy="37" r="35.4466" fill="url(#paint0_radial)" stroke="url(#paint1_radial)" stroke-width="3.10687"/>
<path d="M45.4736 6.63477C58.472 10.4288 63.983 24.0253 65.1136 30.3494C66.0728 34.0828 70.7326 33.9963 69.6012 29.2264C62.5686 11.352 52.9592 6.5526 45.4736 6.63477Z" fill="#59EFD6"/>
<path d="M33.5488 68.696C20.1186 66.9694 12.5605 54.3951 10.4602 48.3238C8.93215 44.785 4.34248 45.595 6.2018 50.1309C15.9283 66.6944 26.167 69.9412 33.5488 68.696Z" fill="#59EFD6"/>
<path d="M55.9962 32.06V25.9742C55.9934 23.5812 54.0541 21.6419 51.6612 21.6391H50.5197V20.9547C50.5098 19.0126 48.9327 17.4441 46.9909 17.4441C45.0491 17.4441 43.4722 19.0126 43.4617 20.9547V21.6391H30.7122V20.9547C30.7023 19.0126 29.1252 17.4441 27.1834 17.4441C25.2416 17.4441 23.6647 19.0126 23.6542 20.9547V21.6391H22.5125C20.1198 21.6419 18.1805 23.5812 18.1777 25.9742V52.5628C18.1805 54.9557 20.1198 56.895 22.5125 56.8978H51.6612C54.0541 56.895 55.9934 54.9557 55.9962 52.5628V32.6857C56.0648 32.4827 56.0648 32.263 55.9962 32.06ZM46.9909 19.3992C47.8493 19.4004 48.5449 20.0957 48.5458 20.9547V23.0331C48.5393 23.8868 47.8447 24.5756 46.9903 24.5756C46.1362 24.5756 45.4418 23.8868 45.435 23.0331V20.9547C45.436 20.0957 46.1318 19.4001 46.9909 19.3992ZM25.6275 20.9547C25.6343 20.1003 26.3287 19.4115 27.1828 19.4115C28.0371 19.4115 28.7312 20.1003 28.7383 20.9547V23.0331C28.7312 23.8868 28.0371 24.5756 27.1828 24.5756C26.3287 24.5756 25.6343 23.8868 25.6275 23.0331V20.9547ZM22.5125 23.6128H23.7024C23.9861 25.3141 25.4579 26.5613 27.1828 26.5613C28.9079 26.5613 30.3797 25.3141 30.6634 23.6128H43.5103C43.7939 25.3141 45.266 26.5613 46.9909 26.5613C48.7157 26.5613 50.1878 25.3141 50.4712 23.6128H51.6612C52.9649 23.6143 54.021 24.6705 54.0226 25.9742V31.3858H20.1513V25.9745C20.1526 24.6708 21.2094 23.6143 22.5125 23.6128ZM51.6612 54.9242H22.5125C21.2094 54.9227 20.1529 53.8665 20.1513 52.5628V33.3594H54.0226V52.5628C54.021 53.8665 52.9649 54.9227 51.6612 54.9242Z" fill="#F1B406"/>
<path d="M43.0983 42.1582L39.5503 41.6527L37.9676 38.5086C37.8001 38.1755 37.4593 37.9653 37.086 37.9653C36.7134 37.9653 36.3725 38.1755 36.2051 38.5086L34.6217 41.6527L31.0743 42.1582C30.7001 42.2114 30.3893 42.4737 30.2737 42.8334C30.1585 43.1931 30.2583 43.5874 30.5317 43.8485L33.0869 46.2905L32.485 49.7332C32.4204 50.1024 32.5702 50.4763 32.8724 50.6982C33.1743 50.9204 33.5761 50.9519 33.9092 50.7804L37.0867 49.143L40.2642 50.7804C40.5969 50.9519 40.9987 50.92 41.3002 50.6979C41.6018 50.4763 41.7523 50.1024 41.688 49.7335L41.0858 46.2908L43.6413 43.8488C43.9144 43.588 44.0145 43.1934 43.899 42.834C43.7834 42.4743 43.4725 42.2117 43.0983 42.1585V42.1582ZM39.3408 45.2273C39.1026 45.4547 38.9938 45.7862 39.0507 46.1107L39.4014 48.1152L37.5384 47.1551C37.2551 47.009 36.9182 47.009 36.6343 47.1551L34.7713 48.1152L35.1217 46.1107C35.1789 45.7862 35.0698 45.4547 34.8315 45.2273L33.3644 43.8256L35.4106 43.5342C35.7304 43.4888 36.0076 43.2895 36.1528 43.0012L37.086 41.1472L38.0198 43.0012C38.1651 43.2895 38.4423 43.4888 38.7618 43.5342L40.8083 43.8256L39.3408 45.2273Z" fill="#F85C19"/>
<defs>
<radialGradient id="paint0_radial" cx="0" cy="0" r="1" gradientUnits="userSpaceOnUse" gradientTransform="translate(37 37) rotate(88.8898) scale(39.7825)">
<stop stop-color="#352749"/>
<stop offset="0.75" stop-color="#352749"/>
<stop offset="1" stop-color="#1E1230"/>
</radialGradient>
<radialGradient id="paint1_radial" cx="0" cy="0" r="1" gradientUnits="userSpaceOnUse" gradientTransform="translate(37 2.68321) rotate(90) scale(71.3168)">
<stop stop-color="#EA5D7E"/>
<stop offset="1" stop-color="#84227C"/>
</radialGradient>
</defs>
</svg>
