<svg width="251" height="251" viewBox="0 0 251 251" fill="none" xmlns="http://www.w3.org/2000/svg">
<g clip-path="url(#clip0)">
<path d="M219.919 89.7126C217.86 89.4185 215.703 88.9282 214.036 89.4185C211.095 90.2028 208.546 94.3208 205.408 94.3208C202.271 94.3208 199.623 90.2028 196.78 89.4185C193.741 88.6341 189.427 90.8892 186.779 89.3204C184.132 87.7517 183.936 82.9474 181.779 80.6923C181.779 80.6923 181.779 80.6923 181.681 80.5942H2.45117L33.7281 189.328H248.549L219.919 89.7126Z" fill="#FC657E"/>
<path d="M89.0265 144.521C87.3597 141.481 85.0066 138.932 81.9671 137.265C78.9277 135.501 75.496 134.618 71.9663 134.618C68.4366 134.618 65.005 135.501 61.9655 137.265C58.9261 139.03 56.4749 141.481 54.9062 144.619C51.5726 151.188 51.5726 158.934 54.9062 165.503C56.573 168.542 59.0241 171.092 61.9655 172.856C65.005 174.621 68.4366 175.504 71.9663 175.504C75.496 175.504 78.9277 174.621 81.9671 172.856C84.9085 171.092 87.3597 168.542 89.0265 165.601C92.4581 158.934 92.4581 151.09 89.0265 144.521ZM81.1827 161.385C80.3984 163.052 79.0257 164.424 77.457 165.405C75.7902 166.385 73.9273 166.876 71.9663 166.778C70.0054 166.778 68.1425 166.287 66.4757 165.405C64.907 164.424 63.5343 163.052 62.7499 161.385C60.887 157.365 60.887 152.659 62.7499 148.541C63.5343 146.874 64.907 145.501 66.4757 144.521C69.9073 142.658 74.0253 142.658 77.457 144.521C79.0257 145.501 80.3984 146.874 81.1827 148.541C83.1437 152.659 83.1437 157.267 81.1827 161.385Z" fill="#EDF4FC"/>
<path d="M115.793 135.108H95.6938C94.5172 135.108 93.5367 136.089 93.5367 137.265V172.856C93.5367 174.033 94.5172 175.013 95.6938 175.013H100.302C101.479 175.013 102.459 174.033 102.459 172.856V159.032H113.538C114.715 159.032 115.695 158.051 115.695 156.875V153.247C115.695 152.071 114.715 151.09 113.538 151.09H102.459V143.05H115.891C117.068 143.05 118.048 142.07 118.048 140.893V137.265C117.95 136.089 116.97 135.108 115.793 135.108Z" fill="#EDF4FC"/>
<path d="M141.384 135.108H121.284C120.108 135.108 119.127 136.089 119.127 137.265V172.856C119.127 174.033 120.108 175.013 121.284 175.013H125.892C127.069 175.013 128.049 174.033 128.049 172.856V159.032H139.129C140.305 159.032 141.286 158.051 141.286 156.875V153.247C141.286 152.071 140.305 151.09 139.129 151.09H128.049V143.05H141.482C142.658 143.05 143.639 142.07 143.639 140.893V137.265C143.541 136.089 142.56 135.108 141.384 135.108Z" fill="#EDF4FC"/>
<path d="M166.484 143.05C167.66 143.05 168.641 142.07 168.641 140.893V137.265C168.641 136.089 167.66 135.108 166.484 135.108H146.874C145.698 135.108 144.717 136.089 144.717 137.265V172.856C144.717 174.033 145.698 175.013 146.874 175.013H166.484C167.66 175.013 168.641 174.033 168.641 172.856V169.131C168.641 167.954 167.66 166.974 166.484 166.974H153.541V158.836H164.915C166.091 158.836 167.072 157.855 167.072 156.679V153.149C167.072 151.972 166.091 150.992 164.915 150.992H153.541V143.05H166.484Z" fill="#EDF4FC"/>
<path d="M198.251 171.68L190.211 159.522C195.309 157.953 198.643 153.149 198.349 147.854C198.447 144.423 197.172 140.991 194.623 138.638C192.172 136.285 188.642 135.108 184.034 135.108H172.366C171.19 135.108 170.209 136.089 170.209 137.265V172.856C170.209 174.033 171.19 175.013 172.366 175.013H176.975C178.151 175.013 179.132 174.033 179.132 172.856V160.404H180.798L189.426 173.935C189.819 174.523 190.505 174.915 191.191 174.915H196.388C197.564 174.915 198.545 173.935 198.545 172.758C198.643 172.366 198.447 171.974 198.251 171.68ZM183.74 152.855H179.132V143.344H183.74C188.74 143.344 189.426 145.599 189.426 148.051C189.426 150.502 188.74 152.855 183.74 152.855Z" fill="#EDF4FC"/>
<path d="M173.249 189.329L185.701 233.058L248.549 189.329H173.249Z" fill="#EF4460"/>
<path d="M126.285 49.5134C122.363 48.827 119.225 45.7876 118.441 41.8657C118.441 41.7677 118.343 41.6696 118.245 41.7677C118.147 41.7677 118.147 41.8657 118.147 41.8657C117.362 45.7876 114.225 48.827 110.303 49.5134C110.205 49.5134 110.107 49.6114 110.205 49.7095C110.205 49.8075 110.303 49.8075 110.303 49.8075C114.225 50.4938 117.362 53.5333 118.147 57.4552C118.147 57.5532 118.245 57.6513 118.343 57.5532C118.441 57.5532 118.441 57.4552 118.441 57.4552C119.225 53.5333 122.363 50.4938 126.285 49.8075C126.383 49.8075 126.481 49.7095 126.481 49.6114C126.481 49.5134 126.383 49.5134 126.285 49.5134Z" fill="#F5C84C"/>
<path d="M159.032 208.546H156.875V206.389C156.875 204.722 155.6 203.447 153.934 203.447C152.267 203.447 150.992 204.722 150.992 206.389V208.546H148.835C147.168 208.546 145.894 209.82 145.894 211.487C145.894 213.154 147.168 214.429 148.835 214.429H150.992V216.586C150.992 218.252 152.267 219.527 153.934 219.527C155.6 219.527 156.875 218.252 156.875 216.586V214.429H159.032C160.699 214.429 161.974 213.154 161.974 211.487C161.974 209.82 160.699 208.546 159.032 208.546Z" fill="#70D6F9"/>
<path d="M13.5307 186.387C15.2635 186.387 16.6682 184.982 16.6682 183.249C16.6682 181.517 15.2635 180.112 13.5307 180.112C11.7979 180.112 10.3932 181.517 10.3932 183.249C10.3932 184.982 11.7979 186.387 13.5307 186.387Z" fill="#F5C84C"/>
<path d="M97.8509 64.8087C99.5837 64.8087 100.988 63.404 100.988 61.6712C100.988 59.9384 99.5837 58.5337 97.8509 58.5337C96.1182 58.5337 94.7134 59.9384 94.7134 61.6712C94.7134 63.404 96.1182 64.8087 97.8509 64.8087Z" fill="#FC657E"/>
<path d="M127.265 206.977C128.998 206.977 130.403 205.572 130.403 203.839C130.403 202.106 128.998 200.702 127.265 200.702C125.532 200.702 124.128 202.106 124.128 203.839C124.128 205.572 125.532 206.977 127.265 206.977Z" fill="#87D147"/>
<path d="M71.5742 113.244C70.6918 112.068 69.6133 111.087 68.3387 110.401C66.868 109.714 65.3973 109.126 63.8285 108.636C62.652 108.244 61.5734 107.852 60.4949 107.361C59.8086 107.067 59.3184 106.675 58.8281 106.087C58.4359 105.596 58.2398 104.91 58.2398 104.322C58.1418 103.537 58.534 102.655 59.1223 102.165C59.9066 101.577 60.7891 101.282 61.7695 101.38C62.8481 101.282 63.8285 101.675 64.6129 102.263C65.2992 102.851 65.6914 103.636 65.8875 104.42C65.9855 105.008 66.5738 105.498 67.1621 105.498H70.9859C71.6723 105.498 72.2605 104.91 72.2605 104.224C72.2605 104.126 72.2605 104.126 72.2605 104.028C71.9664 101.675 70.7898 99.6156 69.025 98.1449C66.966 96.5762 64.3188 95.6937 61.6715 95.8898C59.9066 95.8898 58.1418 96.184 56.5731 96.8703C55.1023 97.5566 53.9258 98.5371 53.0434 99.9098C52.1609 101.282 51.7688 102.851 51.7688 104.42C51.6707 106.087 52.1609 107.852 53.1414 109.224C53.9258 110.401 55.1023 111.283 56.377 111.97C57.8477 112.656 59.3184 113.244 60.7891 113.636C61.9656 114.029 63.0441 114.421 64.2207 114.911C64.907 115.205 65.4953 115.695 65.9856 116.284C66.3777 116.872 66.5738 117.558 66.5738 118.245C66.5738 119.127 66.2797 119.911 65.6914 120.598C64.907 121.284 63.9266 121.578 62.9461 121.48C62.0637 121.48 61.2793 121.284 60.4949 120.892C59.9066 120.598 59.3184 120.107 59.0242 119.519C58.7301 119.029 58.4359 118.343 58.4359 117.754C58.3379 117.068 57.8477 116.578 57.1613 116.578H53.3375C52.6512 116.578 52.0629 117.166 52.0629 117.852V117.95C52.1609 119.617 52.7492 121.284 53.8277 122.559C54.8082 123.931 56.1809 125.01 57.7496 125.696C59.4164 126.48 61.2793 126.873 63.2402 126.775C65.1031 126.873 66.966 126.382 68.6328 125.598C70.0055 124.814 71.182 123.735 71.9664 122.362C72.6527 121.088 73.0449 119.617 73.0449 118.048C73.0449 116.48 72.5547 114.715 71.5742 113.244Z" fill="black"/>
<path d="M93.3406 99.0272C91.4777 97.3604 88.8305 96.478 85.3008 96.478H76.4766C75.7902 96.478 75.202 97.0663 75.202 97.7526V125.5C75.202 126.186 75.7902 126.775 76.4766 126.775H80.1043C80.7906 126.775 81.3789 126.186 81.3789 125.5V115.597H85.3008C88.7324 115.597 91.3797 114.715 93.2426 113.048C95.2035 111.283 96.282 108.636 96.086 105.989C96.184 103.341 95.2035 100.792 93.3406 99.0272ZM88.8305 109.028C88.1442 109.714 86.8695 110.008 85.0067 110.008H81.3789V101.969H85.0067C86.3793 101.871 87.752 102.165 88.8305 102.949C89.6149 103.733 90.007 104.91 89.909 105.989C89.909 107.067 89.5168 108.146 88.8305 109.028Z" fill="black"/>
<path d="M114.323 101.871C115.009 101.871 115.597 101.282 115.597 100.596V97.6545C115.597 96.9682 115.009 96.3799 114.323 96.3799H99.0274C98.341 96.3799 97.7527 96.9682 97.7527 97.6545V125.5C97.7527 126.186 98.341 126.774 99.0274 126.774H114.323C115.009 126.774 115.597 126.186 115.597 125.5V122.558C115.597 121.872 115.009 121.284 114.323 121.284H103.832V114.126H113.146C113.832 114.126 114.421 113.538 114.421 112.852V110.106C114.421 109.42 113.832 108.832 113.146 108.832H103.832V101.871H114.323Z" fill="black"/>
<path d="M144.227 115.107H140.403C139.913 115.107 139.423 115.401 139.226 115.891C138.638 117.46 137.658 118.735 136.285 119.715C134.814 120.695 133.05 121.186 131.187 121.088C128.147 121.186 125.402 119.421 124.127 116.676C123.343 115.107 122.951 113.342 123.049 111.577C123.049 109.812 123.343 108.047 124.127 106.381C125.402 103.635 128.245 101.87 131.187 101.969C132.951 101.87 134.716 102.361 136.285 103.341C137.658 104.224 138.638 105.596 139.226 107.165C139.423 107.655 139.913 107.949 140.403 107.949H144.227C144.913 107.949 145.501 107.361 145.501 106.675C145.501 106.577 145.501 106.479 145.403 106.283C144.619 103.341 142.854 100.694 140.403 98.733C137.756 96.8701 134.52 95.8896 131.187 95.9877C128.539 95.9877 125.892 96.674 123.637 97.9486C121.48 99.3213 119.617 101.184 118.441 103.537C117.166 105.988 116.578 108.734 116.578 111.479C116.578 114.224 117.166 116.97 118.441 119.421C119.617 121.676 121.382 123.637 123.637 124.911C125.892 126.284 128.539 126.97 131.187 126.872C134.422 126.97 137.658 125.99 140.403 124.127C142.854 122.264 144.619 119.617 145.403 116.578C145.6 115.891 145.207 115.205 144.521 115.009C144.423 115.107 144.325 115.107 144.227 115.107Z" fill="black"/>
<path d="M149.031 96.3799H152.659C153.345 96.3799 153.934 96.9682 153.934 97.6545V125.5C153.934 126.186 153.345 126.774 152.659 126.774H149.031C148.345 126.774 147.757 126.186 147.757 125.5V97.6545C147.659 96.9682 148.247 96.3799 149.031 96.3799Z" fill="black"/>
<path d="M181.975 125.01L171.68 97.7525C171.484 97.2623 170.994 96.8701 170.503 96.8701H166.484C165.993 96.8701 165.503 97.1643 165.307 97.7525L155.012 125.01C154.718 125.696 155.11 126.382 155.796 126.676C155.894 126.774 156.091 126.774 156.287 126.774H160.111C160.699 126.774 161.189 126.48 161.287 125.892L163.346 120.303H173.739L175.798 125.892C175.994 126.382 176.484 126.774 176.975 126.774H180.798C181.485 126.774 182.073 126.186 182.073 125.5C182.073 125.304 182.073 125.206 181.975 125.01ZM165.307 115.009L168.543 106.087L171.778 115.009H165.307Z" fill="black"/>
<path d="M197.858 121.382H189.328V97.6545C189.328 96.9682 188.74 96.3799 188.054 96.3799H184.426C183.74 96.3799 183.151 96.9682 183.151 97.6545V125.5C183.151 126.186 183.74 126.774 184.426 126.774H197.858C198.545 126.774 199.133 126.186 199.133 125.5V122.656C199.133 121.97 198.643 121.382 197.858 121.382Z" fill="black"/>
<path d="M237.665 65.6911C238.45 62.7497 242.568 60.2005 242.568 57.063C242.568 53.9255 238.45 51.2782 237.665 48.4349C236.881 45.3954 239.136 41.0813 237.567 38.4341C235.999 35.7868 231.194 35.5907 228.939 33.4337C226.684 31.2767 226.586 26.3743 223.939 24.8056C221.292 23.2368 216.978 25.4919 213.938 24.7075C210.997 23.9231 208.447 19.8052 205.31 19.8052C202.172 19.8052 199.525 23.9231 196.682 24.7075C193.642 25.4919 189.328 23.2368 186.681 24.8056C184.034 26.3743 183.838 31.1786 181.681 33.4337C179.524 35.6888 174.621 35.7868 173.053 38.4341C171.484 41.0813 173.739 45.3954 172.955 48.4349C172.17 51.3763 168.052 53.9255 168.052 57.063C168.052 60.2005 172.17 62.8478 172.955 65.6911C173.739 68.7306 171.484 73.0446 173.053 75.6919C174.621 78.3392 179.426 78.5353 181.681 80.6923C183.936 82.8493 184.034 87.7517 186.681 89.3204C189.328 90.8892 193.642 88.6341 196.682 89.4185C199.623 90.2028 202.172 94.3208 205.31 94.3208C208.447 94.3208 211.095 90.2028 213.938 89.4185C216.978 88.6341 221.292 90.8892 223.939 89.3204C226.586 87.7517 226.782 82.9474 228.939 80.6923C231.096 78.4372 235.999 78.3392 237.567 75.6919C239.136 72.9466 236.881 68.6325 237.665 65.6911Z" fill="#F5C84C"/>
<path d="M211.389 56.5728C210.017 55.9845 208.546 55.4942 207.075 55.004V45.1013C208.84 45.6896 210.213 47.2583 210.507 49.1212C210.507 49.3173 210.703 49.5134 210.899 49.5134H215.213C215.409 49.5134 215.703 49.3173 215.703 49.1212C215.703 49.1212 215.703 49.1212 215.703 49.0231C215.115 44.7091 211.781 41.6696 207.075 40.9833V37.5517C207.075 37.2575 206.781 36.9634 206.487 36.9634H204.036C203.742 36.9634 203.447 37.2575 203.447 37.5517V40.7872C197.859 41.1794 194.231 44.4149 194.231 49.3173C194.231 55.102 198.251 56.8669 203.447 58.5337V68.9267C201.29 68.2403 199.722 66.3774 199.427 64.1224C199.427 63.9263 199.231 63.7302 199.035 63.7302H194.819C194.623 63.7302 194.427 63.9263 194.329 64.1224C194.721 68.6325 198.349 72.0642 203.447 72.9466V76.0841C203.447 76.3782 203.742 76.6724 204.036 76.6724H206.487C206.781 76.6724 207.075 76.3782 207.075 76.0841V73.1427C213.448 72.7505 216.292 68.5345 216.292 64.4165C216.488 60.9849 214.527 57.8474 211.389 56.5728ZM203.545 53.8274C202.467 53.4353 201.585 52.847 200.702 52.1606C199.82 51.3763 199.329 50.1997 199.427 49.0231C199.427 46.572 200.898 45.0032 203.545 44.7091V53.8274ZM207.075 69.0247V59.6122C209.624 60.5927 211.193 61.7692 211.193 64.4165C211.291 66.8677 209.428 68.8286 207.075 69.0247Z" fill="black"/>
<path d="M250.902 188.642L223.155 92.0661C223.841 91.9681 224.527 91.6739 225.214 91.3798C227.469 90.1052 228.351 87.654 229.234 85.497C229.528 84.4184 230.116 83.3399 230.802 82.3595C231.783 81.6731 232.763 81.0849 233.94 80.7907C236.097 80.0063 238.548 79.0259 239.823 76.7708C241.097 74.5157 240.705 71.9665 240.313 69.8095C240.019 68.6329 240.019 67.4563 240.117 66.2798C240.607 65.2013 241.195 64.3188 241.98 63.4364C243.45 61.6716 245.117 59.6126 245.117 56.9653C245.117 54.3181 243.45 52.2591 241.98 50.4942C241.195 49.7099 240.607 48.7294 240.117 47.6509C240.019 46.4743 240.019 45.2978 240.313 44.1212C240.705 41.8661 241.097 39.3169 239.823 37.1599C238.548 34.9048 236.097 34.0224 233.94 33.1399C232.861 32.8458 231.783 32.2575 230.802 31.5712C230.116 30.5907 229.528 29.6103 229.234 28.4337C228.449 26.2767 227.469 23.8255 225.214 22.5509C222.959 21.2763 220.409 21.6685 218.252 22.0606C217.076 22.3548 215.899 22.3548 214.723 22.2567C213.644 21.7665 212.762 21.1782 211.879 20.3938C210.114 18.9231 208.055 17.2563 205.408 17.2563C202.761 17.2563 200.702 18.9231 198.937 20.3938C198.153 21.1782 197.172 21.7665 196.094 22.2567C194.917 22.3548 193.741 22.3548 192.564 22.0606C190.309 21.6685 187.76 21.2763 185.603 22.5509C183.348 23.8255 182.465 26.2767 181.583 28.4337C181.289 29.5122 180.7 30.5907 180.014 31.5712C179.034 32.2575 178.053 32.8458 176.877 33.1399C174.72 33.9243 172.268 34.9048 170.994 37.1599C169.719 39.4149 170.111 41.9642 170.503 44.1212C170.798 45.2978 170.798 46.4743 170.7 47.6509C170.209 48.7294 169.621 49.6118 168.837 50.4942C167.366 52.2591 165.699 54.3181 165.699 56.9653C165.699 59.6126 167.366 61.6716 168.837 63.4364C169.621 64.2208 170.209 65.2013 170.7 66.2798C170.798 67.4563 170.798 68.6329 170.503 69.8095C170.111 72.0645 169.719 74.6138 170.994 76.7708C171.288 77.261 171.582 77.6532 172.072 78.0454H2.45117C1.07852 78.0454 0 79.1239 0 80.4966C0 80.6927 0 80.9868 0.0980469 81.1829L31.375 190.015C31.6691 191.093 32.6496 191.78 33.7281 191.78H171.386L183.348 233.744C183.74 235.018 185.112 235.803 186.387 235.411C186.681 235.313 186.877 235.215 187.073 235.018L249.921 191.29C250.804 190.799 251.196 189.721 250.902 188.642ZM170.503 56.9653C170.503 56.0829 171.484 54.8083 172.562 53.5337C173.837 52.161 174.72 50.5923 175.406 48.9255C175.798 47.0626 175.7 45.1997 175.308 43.3368C175.112 41.8661 174.818 40.2974 175.21 39.513C175.602 38.7286 177.171 38.1403 178.543 37.6501C180.308 37.0618 181.975 36.1794 183.348 35.0028C184.524 33.6302 185.505 31.9634 185.995 30.1985C186.485 28.8259 187.073 27.2571 187.858 26.8649C188.544 26.4728 190.211 26.6688 191.682 26.963C193.545 27.3552 195.407 27.4532 197.27 27.061C199.035 26.4728 200.604 25.4923 201.878 24.2177C203.055 23.2372 204.33 22.1587 205.31 22.1587C206.291 22.1587 207.467 23.1392 208.742 24.2177C210.114 25.4923 211.683 26.3747 213.35 27.061C215.213 27.4532 217.076 27.3552 218.939 26.963C220.409 26.7669 221.978 26.4728 222.762 26.8649C223.547 27.2571 224.135 28.8259 224.625 30.1985C225.214 31.9634 226.096 33.6302 227.273 35.0028C228.645 36.1794 230.312 37.1599 232.077 37.6501C233.45 38.1403 235.018 38.8267 235.411 39.513C235.803 40.1993 235.607 41.8661 235.312 43.3368C234.92 45.1997 234.822 47.0626 235.214 48.9255C235.803 50.6903 236.783 52.2591 238.058 53.5337C239.038 54.7103 240.117 55.9849 240.117 56.9653C240.117 57.9458 239.136 59.1224 238.058 60.397C236.783 61.7696 235.901 63.3384 235.214 65.0052C234.822 66.8681 234.92 68.731 235.312 70.5938C235.509 72.0645 235.803 73.6333 235.411 74.4177C235.018 75.202 233.45 75.7903 232.077 76.2806C230.312 76.8688 228.645 77.7513 227.273 78.9278C226.096 80.3005 225.116 81.9673 224.625 83.7321C224.135 85.1048 223.547 86.6735 222.762 87.0657C222.076 87.4579 220.409 87.2618 218.939 86.9677C217.076 86.5755 215.213 86.4774 213.35 86.8696C211.585 87.4579 210.016 88.4384 208.742 89.713C207.565 90.6935 206.291 91.772 205.31 91.772C204.33 91.772 203.153 90.7915 201.878 89.713C200.506 88.4384 198.937 87.556 197.27 86.8696C196.584 86.6735 195.8 86.5755 195.113 86.5755C193.937 86.5755 192.858 86.6735 191.682 86.9677C190.211 87.1638 188.642 87.4579 187.858 87.0657C187.073 86.6735 186.485 85.1048 185.995 83.7321C185.407 81.9673 184.524 80.3005 183.348 78.9278C182.171 77.5552 183.25 78.8298 183.25 78.8298C181.877 77.6532 180.308 76.8688 178.641 76.2806C177.269 75.7903 175.7 75.104 175.308 74.4177C174.916 73.7313 175.112 72.0645 175.406 70.5938C175.798 68.731 175.896 66.8681 175.504 65.0052C174.916 63.2403 173.935 61.6716 172.661 60.397C171.484 59.1224 170.503 57.8478 170.503 56.9653ZM187.073 229.136L176.484 191.878H240.705L187.073 229.136ZM35.591 186.877L5.68672 83.0458H180.406C180.798 83.8302 181.191 84.6145 181.485 85.497C182.269 87.654 183.25 90.1052 185.505 91.3798C187.76 92.6544 190.309 92.2622 192.466 91.87C193.643 91.5759 194.819 91.5759 195.996 91.6739C197.074 92.1642 197.957 92.7524 198.839 93.5368C200.604 95.0075 202.663 96.6743 205.31 96.6743C207.957 96.6743 210.016 95.0075 211.781 93.5368C212.566 92.7524 213.546 92.1642 214.625 91.6739C215.703 91.5759 216.88 91.5759 217.958 91.87L245.313 186.877H35.591Z" fill="black"/>
<path d="M72.0646 140.795C64.515 140.795 58.9264 146.188 58.9264 155.012C58.9264 163.542 64.2209 169.229 72.0646 169.229C79.4182 169.229 85.1049 163.836 85.1049 155.012C85.1049 146.09 79.4182 140.795 72.0646 140.795ZM72.0646 164.327C66.574 164.327 63.8287 160.307 63.8287 155.012C63.8287 149.522 66.6721 145.698 72.0646 145.698C77.4572 145.698 80.2025 149.718 80.2025 155.012C80.2025 160.405 77.3592 164.327 72.0646 164.327Z" fill="black"/>
<path d="M200.31 170.307L193.839 160.6C195.113 159.914 196.192 159.032 197.172 157.953C199.623 155.208 200.898 151.58 200.8 147.854C200.898 143.736 199.329 139.717 196.388 136.873C193.545 134.128 189.329 132.657 184.132 132.657H172.464C171.386 132.657 170.307 133.049 169.523 133.736C168.739 133.049 167.66 132.657 166.582 132.657H146.972C145.992 132.657 145.011 132.951 144.227 133.54C143.443 132.951 142.462 132.657 141.482 132.657H121.382C120.402 132.657 119.421 132.951 118.637 133.54C117.852 132.951 116.872 132.657 115.891 132.657H95.6937C93.1445 132.657 91.0855 134.716 91.0855 137.265V143.246C89.2227 139.913 86.5754 137.167 83.2418 135.206C79.8102 133.245 75.9863 132.167 72.0645 132.265C59.6125 132.265 50.0039 141.775 50.0039 155.11C50.0039 168.346 59.5145 177.955 72.0645 177.955C80.0063 178.151 87.2617 173.837 91.0855 166.974V172.954C91.0855 175.504 93.1445 177.563 95.6937 177.563H100.302C102.851 177.563 104.91 175.504 104.91 172.954V161.581H113.538C114.715 161.581 115.891 161.091 116.774 160.208V172.954C116.774 175.504 118.833 177.563 121.382 177.563H125.99C128.539 177.563 130.598 175.504 130.598 172.954V161.581H139.227C140.403 161.581 141.58 161.091 142.462 160.208V172.954C142.462 175.504 144.521 177.563 147.07 177.563H166.68C167.758 177.563 168.837 177.17 169.621 176.484C170.405 177.17 171.484 177.563 172.562 177.563H177.171C179.72 177.563 181.779 175.504 181.779 172.954V166.287L187.662 175.406C188.544 176.68 189.917 177.563 191.486 177.563H196.682C199.231 177.563 201.29 175.504 201.29 172.954C201.094 171.974 200.8 171.092 200.31 170.307ZM72.0645 172.954C62.1617 172.954 54.9062 165.503 54.9062 155.012C54.9062 144.325 62.3578 137.069 72.0645 137.069C82.0652 137.069 89.1246 144.619 89.1246 155.012C89.1246 165.307 82.0652 172.954 72.0645 172.954ZM113.146 156.581H102.459C101.086 156.581 100.008 157.659 100.008 159.032V172.562H96.0859V137.658H115.597V140.795H102.459C101.086 140.795 100.008 141.874 100.008 143.246V151.286C100.008 152.659 101.086 153.737 102.459 153.737H113.146V156.581ZM116.676 150.011C115.793 149.129 114.617 148.639 113.44 148.639H104.812V145.501H115.793C116.088 145.501 116.382 145.501 116.676 145.403V150.011ZM138.736 156.581H128.049C126.677 156.581 125.598 157.659 125.598 159.032V172.562H121.676V137.658H141.188V140.795H128.049C126.677 140.795 125.598 141.874 125.598 143.246V151.286C125.598 152.659 126.677 153.737 128.049 153.737H138.736V156.581ZM142.266 150.011C141.384 149.129 140.207 148.639 139.03 148.639H130.402V145.501H141.384C141.678 145.501 141.972 145.501 142.266 145.403V150.011ZM166.189 172.464H147.168V137.559H166.189V140.697H153.639C152.267 140.697 151.188 141.775 151.188 143.148V151.09C151.188 152.463 152.267 153.541 153.639 153.541H164.719V156.384H153.639C152.267 156.384 151.188 157.463 151.188 158.836V166.974C151.188 168.346 152.267 169.425 153.639 169.425H166.189V172.464ZM167.856 164.718C167.464 164.62 166.974 164.522 166.484 164.522H155.993V161.287H164.915C165.993 161.287 166.974 160.895 167.758 160.306L167.856 164.718ZM167.856 149.521C167.072 148.835 166.091 148.541 165.013 148.541H156.091V145.501H166.582C167.072 145.501 167.464 145.403 167.954 145.305L167.856 149.521ZM191.486 172.464L182.955 159.032C182.465 158.345 181.681 157.855 180.896 157.855H179.23C177.857 157.855 176.779 158.934 176.779 160.306V172.366H172.857V137.461H184.23C188.152 137.461 191.191 138.442 193.054 140.305C196.682 144.227 196.976 150.306 193.643 154.522C192.466 155.698 191.093 156.581 189.525 157.071C188.25 157.463 187.564 158.934 187.956 160.208C188.054 160.404 188.152 160.6 188.25 160.797L195.898 172.464H191.486Z" fill="black"/>
<path d="M183.74 140.893H179.132C177.759 140.893 176.68 141.972 176.68 143.344V152.855C176.68 154.227 177.759 155.306 179.132 155.306H183.74C189.132 155.306 191.878 152.855 191.878 148.149C191.878 143.442 189.132 140.893 183.74 140.893ZM183.74 150.404H181.583V145.795H183.74C186.975 145.795 186.975 146.58 186.975 148.05C186.975 149.521 186.975 150.404 183.74 150.404Z" fill="black"/>
<path d="M166.876 29.414L159.62 16.6679C158.934 15.4913 157.463 15.0991 156.287 15.7855C155.11 16.4718 154.718 17.9425 155.404 19.1191L162.66 31.7671C163.346 32.9437 164.817 33.3359 165.993 32.6495C167.17 32.0613 167.562 30.5905 166.876 29.414Z" fill="black"/>
<path d="M156.483 38.4344L143.835 31.0809C142.658 30.3946 141.188 30.7867 140.501 31.9633C139.815 33.1399 140.207 34.6106 141.384 35.2969L154.032 42.6504C155.208 43.3367 156.679 42.9446 157.365 41.768C158.052 40.5914 157.66 39.1207 156.483 38.4344Z" fill="black"/>
<path d="M151.973 51.4746H137.364C135.991 51.4746 134.913 52.5531 134.913 53.9258C134.913 55.2984 135.991 56.377 137.364 56.377H151.973C153.345 56.377 154.424 55.2984 154.424 53.9258C154.424 52.5531 153.247 51.4746 151.973 51.4746Z" fill="black"/>
</g>
<defs>
<clipPath id="clip0">
<rect width="251" height="251" fill="white"/>
</clipPath>
</defs>
</svg>
