<svg width="236" height="250" viewBox="0 0 236 250" fill="none" xmlns="http://www.w3.org/2000/svg">
<path d="M137.164 232.558H93.8754L99.9418 185.978H131.098L137.164 232.558Z" fill="#C1BCC4"/>
<path d="M70.6876 239.475C70.6876 230.729 77.7779 223.638 86.524 223.638H144.515C153.261 223.638 160.351 230.729 160.351 239.475C160.351 243.265 157.279 246.337 153.489 246.337H77.5499C73.7598 246.337 70.6876 243.265 70.6876 239.475Z" fill="#F7F4F7"/>
<path d="M144.515 223.638H112.617C121.363 223.638 128.453 230.729 128.453 239.475C128.453 243.265 125.381 246.337 121.591 246.337H153.489C157.279 246.337 160.351 243.265 160.351 239.475C160.351 230.729 153.261 223.638 144.515 223.638Z" fill="#EDEAED"/>
<path d="M216.761 202.191H18.5426C10.3243 202.191 3.66223 195.529 3.66223 187.311V54.0005C3.66223 45.7822 10.3243 39.1201 18.5426 39.1201H216.76C224.979 39.1201 231.641 45.7822 231.641 54.0005V187.311C231.641 195.529 224.979 202.191 216.761 202.191Z" fill="#BED8FB"/>
<path d="M3.66272 175.585V187.31C3.66272 195.528 10.3248 202.19 18.5431 202.19H216.761C224.979 202.19 231.641 195.528 231.641 187.31V175.585H3.66272Z" fill="#F7F4F7"/>
<path d="M216.761 39.1191H184.863C193.081 39.1191 199.743 45.7812 199.743 53.9995V187.31C199.743 195.529 193.081 202.191 184.863 202.191H216.761C224.979 202.191 231.641 195.529 231.641 187.31V53.9995C231.641 45.7812 224.979 39.1191 216.761 39.1191Z" fill="#9DC6FB"/>
<path d="M199.743 175.585V187.31C199.743 195.528 193.081 202.19 184.862 202.19H216.761C224.979 202.19 231.641 195.528 231.641 187.31V175.585H199.743Z" fill="#EDEAED"/>
<path d="M35.5605 11.6162V175.585H199.742V11.6162C199.742 7.22265 196.181 3.66113 191.787 3.66113H43.5155C39.122 3.66113 35.5605 7.22265 35.5605 11.6162Z" fill="#EDEAED"/>
<path d="M191.788 3.66113H159.889C164.283 3.66113 167.844 7.22265 167.844 11.6162V175.585H199.743V11.6162C199.743 7.22265 196.181 3.66113 191.788 3.66113Z" fill="#E0DDE0"/>
<path d="M76.6164 52.0458H59.2175C57.1931 52.0458 55.5519 50.4047 55.5519 48.3803V30.9814C55.5519 28.957 57.1931 27.3159 59.2175 27.3159H76.6164C78.6408 27.3159 80.2819 28.957 80.2819 30.9814V48.3803C80.2819 50.4047 78.6408 52.0458 76.6164 52.0458Z" fill="#ECBE6B"/>
<path d="M76.6165 101.988H59.2176C57.1932 101.988 55.5521 100.347 55.5521 98.3227V80.9238C55.5521 78.8994 57.1932 77.2583 59.2176 77.2583H76.6165C78.6409 77.2583 80.2821 78.8994 80.2821 80.9238V98.3227C80.2821 100.348 78.6409 101.988 76.6165 101.988Z" fill="#9BC4F9"/>
<path d="M76.6165 151.93H59.2176C57.1932 151.93 55.5521 150.289 55.5521 148.265V130.866C55.5521 128.841 57.1932 127.2 59.2176 127.2H76.6165C78.6409 127.2 80.2821 128.841 80.2821 130.866V148.265C80.2821 150.289 78.6409 151.93 76.6165 151.93Z" fill="#B3E59F"/>
<path d="M176.729 27.0591H105.121C103.098 27.0591 101.458 28.6987 101.458 30.7212C101.458 32.7436 103.098 34.3833 105.121 34.3833H176.729C178.752 34.3833 180.391 32.7436 180.391 30.7212C180.391 28.6987 178.752 27.0591 176.729 27.0591Z" fill="black"/>
<path d="M105.121 51.1802H156.711C158.734 51.1802 160.373 49.5405 160.373 47.5181C160.373 45.4956 158.734 43.856 156.711 43.856H105.121C103.098 43.856 101.458 45.4956 101.458 47.5181C101.458 49.5405 103.098 51.1802 105.121 51.1802Z" fill="black"/>
<path d="M176.729 77.5635H105.121C103.098 77.5635 101.458 79.2031 101.458 81.2256C101.458 83.248 103.098 84.8877 105.121 84.8877H176.729C178.752 84.8877 180.391 83.248 180.391 81.2256C180.391 79.2031 178.752 77.5635 176.729 77.5635Z" fill="black"/>
<path d="M105.121 101.685H156.711C158.734 101.685 160.373 100.045 160.373 98.0229C160.373 96.0005 158.734 94.3608 156.711 94.3608H105.121C103.098 94.3608 101.458 96.0005 101.458 98.0229C101.458 100.045 103.098 101.685 105.121 101.685Z" fill="black"/>
<path d="M176.729 128.76H105.121C103.098 128.76 101.458 130.399 101.458 132.422C101.458 134.444 103.098 136.084 105.121 136.084H176.729C178.752 136.084 180.391 134.444 180.391 132.422C180.391 130.399 178.752 128.76 176.729 128.76Z" fill="black"/>
<path d="M156.711 145.558H105.121C103.098 145.558 101.458 147.198 101.458 149.22C101.458 151.243 103.098 152.882 105.121 152.882H156.711C158.734 152.882 160.373 151.243 160.373 149.22C160.373 147.198 158.734 145.558 156.711 145.558Z" fill="black"/>
<path d="M216.761 35.4579H203.405V11.6172C203.405 5.21142 198.193 0 191.788 0H43.5155C37.1098 0 31.8984 5.21142 31.8984 11.6172V35.4579H18.5424C8.31834 35.4579 0 43.7758 0 54.0004V187.311C0 197.535 8.31785 205.854 18.5424 205.854H93.6595L91.8201 219.977H86.5238C75.7723 219.977 67.0253 228.724 67.0253 239.476C67.0253 245.279 71.7464 250 77.5497 250H153.489C159.292 250 164.013 245.279 164.013 239.476C164.013 228.724 155.266 219.977 144.515 219.977H139.217L137.379 205.854H216.76C226.984 205.854 235.303 197.536 235.303 187.311V53.9999C235.303 43.7758 226.985 35.4579 216.761 35.4579ZM144.515 227.301C151.228 227.301 156.69 232.762 156.69 239.475C156.69 241.24 155.254 242.675 153.489 242.675H77.5497C75.7855 242.675 74.3495 241.24 74.3495 239.475C74.3495 232.762 79.8109 227.301 86.5238 227.301H144.515ZM99.2068 219.977L101.046 205.853H129.992L131.831 219.977H99.2068ZM227.979 187.311C227.979 193.496 222.946 198.529 216.76 198.529H18.5424C12.3569 198.529 7.3242 193.497 7.3242 187.311V179.248H227.978V187.311H227.979ZM227.979 171.924H203.405V121.019C203.405 118.997 201.766 117.357 199.743 117.357C197.72 117.357 196.081 118.997 196.081 121.019V171.924H39.2226V73.1786C39.2226 71.1561 37.5834 69.5165 35.5605 69.5165C33.5375 69.5165 31.8984 71.1561 31.8984 73.1786V171.924H7.32469V53.9999C7.32469 47.8144 12.3574 42.7817 18.5429 42.7817H31.8989V56.0595C31.8989 58.0819 33.538 59.7216 35.561 59.7216C37.5839 59.7216 39.2231 58.0819 39.2231 56.0595V11.6172C39.2231 9.24998 41.1488 7.3242 43.516 7.3242H191.788C194.155 7.3242 196.081 9.24998 196.081 11.6172V103.924C196.081 105.947 197.72 107.586 199.743 107.586C201.766 107.586 203.405 105.947 203.405 103.924V42.7821H216.761C222.947 42.7821 227.98 47.8149 227.98 54.0004V171.924H227.979Z" fill="black"/>
<path d="M76.6162 23.6548H59.2173C55.1773 23.6548 51.8897 26.9419 51.8897 30.9824V48.3813C51.8897 52.4213 55.1768 55.7084 59.2173 55.7084H76.6162C80.6563 55.7084 83.9438 52.4213 83.9438 48.3813V30.9824C83.9438 26.9419 80.6563 23.6548 76.6162 23.6548ZM76.6162 48.3842L59.2139 48.3813L59.2173 30.979L76.6196 30.9824L76.6216 48.3842C76.6216 48.3837 76.6201 48.3842 76.6162 48.3842Z" fill="black"/>
<path d="M76.6162 73.5972H59.2173C55.1773 73.5972 51.8897 76.8843 51.8897 80.9248V98.3237C51.8897 102.364 55.1768 105.651 59.2173 105.651H76.6162C80.6563 105.651 83.9438 102.364 83.9438 98.3237V80.9248C83.9438 76.8843 80.6563 73.5972 76.6162 73.5972ZM76.6162 98.3271L59.2139 98.3237L59.2173 80.9214L76.6196 80.9248L76.6216 98.3266C76.6216 98.3266 76.6201 98.3271 76.6162 98.3271Z" fill="black"/>
<path d="M76.6162 123.54H59.2173C55.1773 123.54 51.8897 126.827 51.8897 130.867V148.266C51.8897 152.306 55.1768 155.593 59.2173 155.593H76.6162C80.6563 155.593 83.9438 152.306 83.9438 148.266V130.867C83.9438 126.827 80.6563 123.54 76.6162 123.54ZM76.6162 148.269L59.2139 148.266L59.2173 130.864L76.6196 130.867L76.6216 148.268C76.6216 148.268 76.6201 148.269 76.6162 148.269Z" fill="black"/>
</svg>
