<svg width="224" height="250" viewBox="0 0 224 250" fill="none" xmlns="http://www.w3.org/2000/svg">
<path d="M25.8748 3.66211C13.6073 3.66211 3.66199 13.6069 3.66199 25.875V224.125C3.66199 236.393 13.6068 246.338 25.8748 246.338H172.498C184.765 246.338 194.71 236.393 194.71 224.125V61.0971C194.71 57.2333 193.176 53.5282 190.444 50.7963L147.577 7.92919C144.845 5.19726 141.139 3.6626 137.276 3.6626H25.8748V3.66211Z" fill="#F7F4F7"/>
<path d="M190.444 50.7958L162.788 23.1401V224.125C162.788 236.392 152.843 246.337 140.575 246.337H172.497C184.765 246.337 194.71 236.393 194.71 224.125V61.0971C194.71 57.2333 193.176 53.5278 190.444 50.7958Z" fill="#E0DDE0"/>
<path d="M190.444 50.7958L147.577 7.92871C146.332 6.68359 144.882 5.69043 143.31 4.97412V43.163C143.31 49.7348 148.638 55.0624 155.209 55.0624H193.398C192.682 53.4901 191.689 52.0414 190.444 50.7958Z" fill="#EFD133"/>
<path d="M50.59 110.574H32.7209C30.9841 110.574 29.5764 109.166 29.5764 107.43V89.5605C29.5764 87.8237 30.9841 86.416 32.7209 86.416H50.59C52.3269 86.416 53.7346 87.8237 53.7346 89.5605V107.43C53.7346 109.166 52.3269 110.574 50.59 110.574Z" fill="#E49542"/>
<path d="M50.5897 156.144H32.7206C30.9838 156.144 29.576 154.736 29.576 152.999V135.13C29.576 133.394 30.9838 131.986 32.7206 131.986H50.5897C52.3265 131.986 53.7342 133.394 53.7342 135.13V152.999C53.7342 154.736 52.3265 156.144 50.5897 156.144Z" fill="#95D6A4"/>
<path d="M50.5897 201.713H32.7206C30.9838 201.713 29.576 200.306 29.576 198.569V180.7C29.576 178.963 30.9838 177.555 32.7206 177.555H50.5897C52.3265 177.555 53.7342 178.963 53.7342 180.7V198.569C53.7342 200.306 52.3265 201.713 50.5897 201.713Z" fill="#E07F84"/>
<path d="M196.515 142.589L181.032 127.106L178.232 127.272L103.189 202.314C102.03 203.474 100.994 204.744 100.083 206.097L117.84 223.854C119.193 222.943 120.463 221.908 121.623 220.748L196.665 145.706L196.515 142.589Z" fill="#E07F84"/>
<path d="M119.257 222.827L101.11 204.681C99.5804 206.646 98.3372 208.824 97.4378 211.159L89.7186 231.192C88.9886 233.086 90.8509 234.948 92.7449 234.218L112.778 226.499C115.113 225.6 117.292 224.357 119.257 222.827Z" fill="#A87F7F"/>
<path d="M207.884 134.487L196.665 145.706L178.232 127.272L189.45 116.054L192.148 116.174L207.661 131.687L207.884 134.487Z" fill="#D1CCD3"/>
<path d="M118.48 34.6846H33.2296C31.212 34.6846 29.5758 36.3203 29.5758 38.3384V51.4091C29.5758 53.4267 31.2115 55.0629 33.2296 55.0629H118.48C120.498 55.0629 122.134 53.4272 122.134 51.4091V38.3379C122.134 36.3203 120.498 34.6846 118.48 34.6846Z" fill="#BED8FB"/>
<path d="M118.48 34.6846H86.558C88.5756 34.6846 90.2113 36.3203 90.2113 38.3384V51.4091C90.2113 53.4272 88.5756 55.0629 86.558 55.0629H118.48C120.498 55.0629 122.134 53.4272 122.134 51.4091V38.3379C122.134 36.3203 120.498 34.6846 118.48 34.6846Z" fill="#9DC6FB"/>
<path d="M215.891 108.046C220.982 113.137 220.982 121.389 215.891 126.48L207.884 134.488L189.45 116.054L197.458 108.046C202.548 102.956 210.801 102.956 215.891 108.046Z" fill="#88A8D8"/>
<path d="M168.796 86.9727H75.4724C73.4499 86.9727 71.8103 88.6123 71.8103 90.6348C71.8103 92.6572 73.4499 94.2969 75.4724 94.2969H168.796C170.819 94.2969 172.459 92.6572 172.459 90.6348C172.459 88.6123 170.819 86.9727 168.796 86.9727Z" fill="black"/>
<path d="M168.796 102.694H75.4724C73.4499 102.694 71.8103 104.334 71.8103 106.356C71.8103 108.379 73.4499 110.019 75.4724 110.019H168.796C170.819 110.019 172.459 108.379 172.459 106.356C172.459 104.334 170.819 102.694 168.796 102.694Z" fill="black"/>
<path d="M58.6385 55.0634C58.6385 57.0859 60.2781 58.7255 62.3006 58.7255H118.481C122.514 58.7255 125.796 55.4438 125.796 51.4096V38.3393C125.796 34.3057 122.514 31.0239 118.481 31.0239H33.2298C29.1962 31.0239 25.9144 34.3057 25.9144 38.3393V51.4101C25.9144 55.4443 29.1962 58.726 33.2298 58.726H45.1688C47.1912 58.726 48.8309 57.0864 48.8309 55.0639C48.8309 53.0415 47.1912 51.4018 45.1688 51.4018L33.2386 51.4101L33.2298 38.3476L118.472 38.3389L118.481 51.4008H62.3006C60.2781 51.4013 58.6385 53.041 58.6385 55.0634Z" fill="black"/>
<path d="M194.711 162.625C192.688 162.625 191.048 164.265 191.048 166.287V224.125C191.048 234.354 182.727 242.676 172.498 242.676H25.8749C15.646 242.676 7.3242 234.354 7.3242 224.125V25.875C7.3242 15.646 15.646 7.3242 25.8749 7.3242C143.884 7.4243 137.353 7.08348 139.648 7.59032V43.1635C139.648 51.744 146.629 58.725 155.209 58.725H190.782C190.953 59.496 191.048 60.2885 191.048 61.0971V92.4158C191.048 94.4383 192.688 96.0779 194.711 96.0779C196.733 96.0779 198.373 94.4383 198.373 92.4158V61.0971C198.373 56.2274 196.477 51.6493 193.033 48.2065L150.166 5.33935C146.723 1.89599 142.145 0 137.276 0H25.8749C11.6074 0 0 11.6074 0 25.875V224.125C0 238.393 11.6074 250 25.8749 250H172.498C186.766 250 198.373 238.393 198.373 224.125V166.287C198.373 164.265 196.733 162.625 194.711 162.625ZM185.87 51.4008H155.209C150.667 51.4008 146.972 47.7055 146.972 43.1635V12.5029L185.87 51.4008Z" fill="black"/>
<path d="M57.3968 89.5615C57.3968 85.8081 54.3436 82.7549 50.5902 82.7549H32.7211C28.9676 82.7549 25.9144 85.8081 25.9144 89.5615V107.431C25.9144 111.184 28.9676 114.237 32.7211 114.237H50.5902C54.3436 114.237 57.3968 111.184 57.3968 107.431V89.5615ZM50.0726 106.913H33.2386V90.0791H50.0726V106.913Z" fill="black"/>
<path d="M57.3968 135.131C57.3968 131.377 54.3436 128.324 50.5902 128.324H32.7211C28.9676 128.324 25.9144 131.377 25.9144 135.131V153C25.9144 156.753 28.9676 159.807 32.7211 159.807H50.5902C54.3436 159.807 57.3968 156.753 57.3968 153V135.131ZM50.0726 152.482H33.2386V135.648H50.0726V152.482Z" fill="black"/>
<path d="M50.5902 173.894H32.7211C28.9676 173.894 25.9144 176.947 25.9144 180.7V198.569C25.9144 202.323 28.9676 205.376 32.7211 205.376H50.5902C54.3436 205.376 57.3968 202.323 57.3968 198.569V180.7C57.3968 176.947 54.3436 173.894 50.5902 173.894ZM50.0726 198.051H33.2386V181.217H50.0726V198.051Z" fill="black"/>
<path d="M218.481 105.456C211.971 98.9462 201.378 98.9462 194.869 105.456L167.784 132.541H75.4724C73.4499 132.541 71.8103 134.181 71.8103 136.203C71.8103 138.226 73.4499 139.866 75.4724 139.866H160.46L152.062 148.263H75.4724C73.4499 148.263 71.8103 149.903 71.8103 151.926C71.8103 153.948 73.4499 155.588 75.4724 155.588H144.737L122.215 178.111H75.4724C73.4499 178.111 71.8103 179.75 71.8103 181.773C71.8103 183.795 73.4499 185.435 75.4724 185.435H114.89L106.492 193.833H75.4729C73.4504 193.833 71.8108 195.472 71.8108 197.495C71.8108 199.517 73.4504 201.157 75.4729 201.157H99.2731C97.0158 203.764 95.2614 206.623 94.0217 209.841L86.3025 229.875C85.4499 232.087 85.9826 234.601 87.6594 236.278C89.3449 237.963 91.8606 238.483 94.0632 237.635L114.096 229.916C118.048 228.393 121.54 226.009 124.213 223.336L146.393 201.156H168.796C170.819 201.156 172.459 199.517 172.459 197.494C172.459 195.472 170.819 193.832 168.796 193.832H153.717L162.115 185.434H168.796C170.819 185.434 172.459 183.795 172.459 181.772C172.459 179.951 171.128 178.445 169.387 178.162L218.481 129.068C224.991 122.559 224.991 111.967 218.481 105.456ZM111.462 223.082L94.2067 229.731L100.856 212.475C101.116 211.799 101.411 211.136 101.739 210.489L113.449 222.198C112.801 222.526 112.138 222.821 111.462 223.082ZM119.4 217.792L106.146 204.537L178.232 132.451L191.486 145.705L119.4 217.792ZM196.666 140.527L183.411 127.272L189.451 121.233L202.705 134.487L196.666 140.527ZM213.302 123.89L207.884 129.308L194.629 116.053L200.047 110.635C203.702 106.981 209.647 106.981 213.302 110.635C216.956 114.289 216.956 120.236 213.302 123.89Z" fill="black"/>
</svg>
