<svg width="289" height="250" viewBox="0 0 289 250" fill="none" xmlns="http://www.w3.org/2000/svg">
<path d="M241.628 234.919H24.3419V93.7087C24.3419 85.859 30.7054 79.4956 38.555 79.4956H227.414C235.264 79.4956 241.628 85.859 241.628 93.7087V234.919H241.628Z" fill="#F4F4F4"/>
<path d="M227.414 79.4956H190.551C198.401 79.4956 204.764 85.859 204.764 93.7087V234.919H241.627V93.7087C241.627 85.859 235.264 79.4956 227.414 79.4956Z" fill="#DDDDDD"/>
<path d="M41.9576 217.302V100.787C41.9576 98.7571 43.603 97.1123 45.6319 97.1123H220.337C222.366 97.1123 224.011 98.7576 224.011 100.787V217.302H41.9576Z" fill="#BED8FB"/>
<path d="M220.338 97.1118H204.765V217.302H224.012V100.787C224.012 98.7571 222.367 97.1118 220.338 97.1118Z" fill="#9DC6FB"/>
<path d="M240.467 245.769H25.5019C13.754 245.769 4.23083 236.245 4.23083 224.498C4.23083 220.524 7.45205 217.303 11.426 217.303H254.543C258.517 217.303 261.738 220.524 261.738 224.498C261.739 236.245 252.215 245.769 240.467 245.769Z" fill="#D1CCD3"/>
<path d="M254.543 217.302H217.559C221.533 217.302 224.754 220.523 224.754 224.497C224.754 236.245 215.231 245.768 203.483 245.768H240.468C252.216 245.768 261.739 236.245 261.739 224.497C261.739 220.524 258.517 217.302 254.543 217.302Z" fill="#C1BCC4"/>
<path d="M99.5657 217.302C99.5657 225.163 105.938 231.535 113.799 231.535H152.17C160.031 231.535 166.404 225.163 166.404 217.302H99.5657Z" fill="#F4F4F4"/>
<path d="M271.047 4.23242H158.162C150.646 4.23242 144.553 10.3256 144.553 17.8412V94.3046C144.553 101.821 150.646 107.913 158.162 107.913H161.023C163.076 107.913 164.74 109.577 164.74 111.63V138.003C164.74 140.453 167.817 141.544 169.36 139.641L193.975 109.288C194.681 108.418 195.741 107.913 196.861 107.913H271.046C278.562 107.913 284.655 101.82 284.655 94.304V17.8418C284.656 10.3256 278.563 4.23242 271.047 4.23242Z" fill="#F4E066"/>
<path d="M164.739 116.016V138.003C164.739 140.453 167.817 141.544 169.36 139.641L193.975 109.288C194.68 108.418 195.741 107.913 196.861 107.913H172.842C168.367 107.913 164.739 111.541 164.739 116.016Z" fill="#EFD133"/>
<path d="M271.047 4.23145H234.25C241.767 4.23145 247.859 10.3246 247.859 17.8402V94.3042C247.859 101.82 241.766 107.913 234.25 107.913H271.047C278.563 107.913 284.655 101.82 284.655 94.3042V17.8408C284.655 10.3246 278.562 4.23145 271.047 4.23145Z" fill="#EFD133"/>
<path d="M240.586 79.5716H188.622C184.605 79.5716 181.349 76.3154 181.349 72.2987V46.7783H247.86V72.2987C247.86 76.3154 244.604 79.5716 240.586 79.5716Z" fill="#756E78"/>
<path d="M209.53 33.3172L169.186 45.4065C167.668 45.8612 167.668 48.011 169.186 48.4658L209.53 60.555C212.84 61.547 216.368 61.547 219.678 60.555L260.022 48.4658C261.54 48.011 261.54 45.8612 260.022 45.4065L219.678 33.3172C216.368 32.3253 212.84 32.3253 209.53 33.3172Z" fill="#665E66"/>
<path d="M271.048 0H158.162C148.324 0 140.321 8.00311 140.321 17.8405V92.8792H45.6336C41.2738 92.8792 37.727 96.426 37.727 100.786V213.07H28.5745V93.7081C28.5745 88.2046 33.0523 83.7268 38.5558 83.7268H124.664C127.002 83.7268 128.896 81.8321 128.896 79.495C128.896 77.158 127.002 75.2633 124.664 75.2633H38.5558C28.3855 75.2633 20.111 83.5378 20.111 93.7081V213.07H11.4274C5.12664 213.07 0 218.196 0 224.497C0 238.56 11.4404 250 25.5028 250H240.468C254.531 250 265.971 238.56 265.971 224.497C265.971 218.196 260.845 213.07 254.544 213.07H245.86V127.697C245.86 125.36 243.965 123.465 241.628 123.465C239.29 123.465 237.396 125.36 237.396 127.697V213.07H228.244V112.146H271.046C280.884 112.146 288.887 104.142 288.887 94.3045V17.8411C288.888 8.00367 280.884 0 271.048 0ZM46.1905 101.343H141.771C144.507 107.69 150.823 112.146 158.162 112.146H160.509V138.004C160.509 144.432 168.593 147.309 172.648 142.307L197.109 112.145H219.782V213.069H46.1905V101.343ZM161.22 221.533C159.623 224.936 156.173 227.303 152.171 227.303H113.8C109.798 227.303 106.348 224.936 104.75 221.533H161.22ZM254.544 221.533C256.178 221.533 257.508 222.863 257.508 224.497C257.508 233.893 249.865 241.536 240.469 241.536H25.5028C16.1072 241.536 8.46352 233.892 8.46352 224.497C8.46352 222.863 9.79286 221.533 11.4274 221.533H95.8296C97.7486 229.681 105.075 235.767 113.8 235.767H152.171C160.897 235.767 168.223 229.681 170.141 221.533H254.544ZM280.425 94.3045C280.425 99.4752 276.218 103.682 271.048 103.682H196.863C194.455 103.682 192.205 104.754 190.689 106.624L168.972 133.403V111.63C168.972 107.247 165.407 103.682 161.024 103.682H158.162C152.992 103.682 148.785 99.4752 148.785 94.3045V17.8411C148.785 12.6705 152.992 8.46409 158.162 8.46409H271.048C276.218 8.46409 280.425 12.671 280.425 17.8411V94.3045Z" fill="black"/>
<path d="M261.237 41.3528L220.893 29.2635C216.779 28.0307 212.43 28.0307 208.317 29.2635L167.972 41.3528C165.487 42.0976 163.817 44.3416 163.817 46.9365C163.817 49.5314 165.487 51.7748 167.972 52.5201L177.118 55.2606V72.2988C177.118 78.6431 182.278 83.8041 188.623 83.8041H240.587C246.931 83.8041 252.092 78.6431 252.092 72.2988V55.2606L256.85 53.8348V59.9319C256.85 62.269 258.744 64.1637 261.082 64.1637C263.419 64.1637 265.313 62.269 265.313 59.9319C265.314 59.8749 265.394 46.9951 265.394 46.9365C265.393 44.3416 263.723 42.0982 261.237 41.3528ZM243.628 72.2988C243.628 73.9757 242.264 75.3406 240.587 75.3406H188.622C186.945 75.3406 185.581 73.9763 185.581 72.2988V57.7969L208.316 64.6094C212.429 65.8417 216.778 65.8423 220.892 64.6094L243.628 57.7969V72.2988H243.628ZM218.464 56.5019C215.939 57.2586 213.271 57.2586 210.746 56.5019C202.521 54.0374 186.491 49.234 178.825 46.937L210.746 37.3716C213.271 36.6149 215.939 36.6149 218.464 37.3716L250.385 46.937C243.019 49.1443 226.992 53.9465 218.464 56.5019Z" fill="black"/>
<path d="M63.3822 142.15H140.871C143.208 142.15 145.103 140.255 145.103 137.918C145.103 135.581 143.208 133.687 140.871 133.687H63.3822C61.0445 133.687 59.1504 135.581 59.1504 137.918C59.1504 140.255 61.0445 142.15 63.3822 142.15Z" fill="black"/>
<path d="M63.3822 164.917H140.871C143.208 164.917 145.103 163.022 145.103 160.685C145.103 158.348 143.208 156.453 140.871 156.453H63.3822C61.0445 156.453 59.1504 158.348 59.1504 160.685C59.1504 163.022 61.0445 164.917 63.3822 164.917Z" fill="black"/>
<path d="M203.484 179.219H63.3822C61.0445 179.219 59.1504 181.114 59.1504 183.451C59.1504 185.788 61.0445 187.683 63.3822 187.683H203.484C205.822 187.683 207.716 185.788 207.716 183.451C207.716 181.114 205.821 179.219 203.484 179.219Z" fill="black"/>
</svg>
