<svg width="410" height="410" viewBox="0 0 410 410" fill="none" xmlns="http://www.w3.org/2000/svg">
<g clip-path="url(#clip0)">
<path d="M369.641 211.727L340.012 92.5704C339.531 90.9688 337.93 89.8478 336.328 90.1681L241.516 104.902C239.914 105.223 238.633 106.664 238.633 108.266L246.641 230.785C246.801 234.469 249.844 237.191 253.527 237.031H254.328L364.516 219.895C368.039 219.414 370.602 215.891 369.961 212.367C369.641 212.207 369.641 211.887 369.641 211.727Z" fill="#FC657E"/>
<path d="M246.48 230.785L238.473 108.266C238.473 106.504 239.594 105.063 241.355 104.902L284.277 98.1759L274.988 61.0197C274.348 58.9376 272.266 57.4962 270.184 57.8165L145.262 77.1954C143.019 77.5158 141.418 79.4376 141.578 81.6798L151.988 242.957C152.148 247.762 156.312 251.445 160.957 251.285C161.277 251.285 161.598 251.285 161.918 251.125L254.008 236.871C250.484 237.352 246.961 234.949 246.48 231.426C246.641 231.266 246.48 231.106 246.48 230.785Z" fill="#F5C84C"/>
<path d="M174.41 395.105C189.712 395.105 202.117 382.701 202.117 367.398C202.117 352.096 189.712 339.691 174.41 339.691C159.108 339.691 146.703 352.096 146.703 367.398C146.703 382.701 159.108 395.105 174.41 395.105Z" fill="#29589F"/>
<path d="M311.184 395.105C326.486 395.105 338.891 382.701 338.891 367.398C338.891 352.096 326.486 339.691 311.184 339.691C295.881 339.691 283.477 352.096 283.477 367.398C283.477 382.701 295.881 395.105 311.184 395.105Z" fill="#29589F"/>
<path d="M61.4999 87.445C61.1796 87.445 60.8593 87.445 60.539 87.445L13.2929 82.8004C7.68739 82.32 3.52333 77.3551 4.0038 71.7496C4.48427 66.1442 9.44911 61.9801 15.0546 62.4606L62.4608 67.1051C68.0663 67.5856 72.2304 72.7106 71.5897 78.3161C71.1093 83.4411 66.785 87.445 61.4999 87.445Z" fill="#FC657E"/>
<path d="M345.778 320.473H153.75L170.406 296.289C176.332 287.641 185.461 281.875 195.871 280.113L323.836 259.133C329.121 258.332 332.645 253.367 331.844 248.082C331.043 243.437 327.039 239.914 322.235 239.914L188.824 261.695C174.891 265.059 162.719 273.387 154.551 285.078L132.61 317.109C128.125 323.676 129.727 332.645 136.293 337.129C138.696 338.73 141.578 339.691 144.461 339.691H345.778C351.063 339.691 355.387 335.367 355.387 330.082C355.547 324.797 351.223 320.473 345.778 320.473Z" fill="#DAE6F1"/>
<path d="M174.41 377.328C179.894 377.328 184.34 372.882 184.34 367.398C184.34 361.914 179.894 357.469 174.41 357.469C168.926 357.469 164.48 361.914 164.48 367.398C164.48 372.882 168.926 377.328 174.41 377.328Z" fill="#5290DB"/>
<path d="M311.184 377.328C316.668 377.328 321.113 372.882 321.113 367.398C321.113 361.914 316.668 357.469 311.184 357.469C305.7 357.469 301.254 361.914 301.254 367.398C301.254 372.882 305.7 377.328 311.184 377.328Z" fill="#5290DB"/>
<path d="M405.516 254.168H402.152V250.805C402.152 248.402 400.07 246.32 397.668 246.32C395.266 246.32 393.184 248.402 393.184 250.805V254.168H389.82C387.418 254.168 385.336 256.25 385.336 258.652C385.336 261.055 387.418 263.137 389.82 263.137H393.184V266.5C393.184 268.902 395.266 270.984 397.668 270.984C400.07 270.984 402.152 268.902 402.152 266.5V263.137H405.516C407.918 263.137 410 261.055 410 258.652C410 256.25 407.918 254.168 405.516 254.168Z" fill="#70D6F9"/>
<path d="M141.418 48.8476C135.012 47.7265 130.047 42.7616 128.766 36.5156C128.766 36.3554 128.606 36.1952 128.445 36.3554C128.285 36.3554 128.285 36.5156 128.285 36.5156C127.004 42.9218 122.039 47.7265 115.633 48.8476C115.473 48.8476 115.313 49.0077 115.473 49.1679C115.473 49.3281 115.633 49.3281 115.633 49.3281C122.039 50.4492 127.004 55.414 128.285 61.6601C128.285 61.8202 128.445 61.9804 128.606 61.8202C128.766 61.8202 128.766 61.6601 128.766 61.6601C130.047 55.2538 135.012 50.4492 141.418 49.3281C141.578 49.3281 141.738 49.1679 141.578 49.0077C141.578 48.8476 141.578 48.8476 141.418 48.8476Z" fill="#F5C84C"/>
<path d="M102.5 89.3672C105.154 89.3672 107.305 87.2161 107.305 84.5625C107.305 81.9089 105.154 79.7578 102.5 79.7578C99.8464 79.7578 97.6953 81.9089 97.6953 84.5625C97.6953 87.2161 99.8464 89.3672 102.5 89.3672Z" fill="#FC657E"/>
<path d="M91.2891 228.703C93.9426 228.703 96.0938 226.552 96.0938 223.898C96.0938 221.245 93.9426 219.094 91.2891 219.094C88.6355 219.094 86.4844 221.245 86.4844 223.898C86.4844 226.552 88.6355 228.703 91.2891 228.703Z" fill="#87D147"/>
<path d="M381.172 294.367C383.825 294.367 385.977 292.216 385.977 289.562C385.977 286.909 383.825 284.758 381.172 284.758C378.518 284.758 376.367 286.909 376.367 289.562C376.367 292.216 378.518 294.367 381.172 294.367Z" fill="#F5C84C"/>
<path d="M12.8126 86.8046L60.0587 91.289C60.8594 91.4491 61.8204 91.4491 62.6212 91.289L132.93 252.566C138.055 264.418 150.387 271.625 163.199 270.023C158.555 273.707 154.551 278.031 151.188 282.996L129.246 314.707C123.481 323.035 125.563 334.566 134.051 340.332C137.094 342.414 140.777 343.535 144.461 343.535H153.27C140.137 355.066 139.016 375.086 150.547 388.219C162.078 401.351 182.098 402.473 195.231 390.941C208.363 379.41 209.484 359.391 197.953 346.258C197.152 345.297 196.191 344.336 195.231 343.535H290.043C276.91 355.066 275.789 375.086 287.32 388.219C298.852 401.351 318.871 402.473 332.004 390.941C345.137 379.41 346.258 359.391 334.727 346.258C333.926 345.297 332.965 344.336 332.004 343.535H345.617C353.145 343.535 359.231 337.449 359.231 329.922C359.231 322.394 353.145 316.309 345.617 316.309H161.438L173.77 298.531C179.055 290.844 187.383 285.559 196.512 284.117L324.477 263.137C331.844 261.855 336.969 254.969 335.688 247.441C335.367 245.519 334.727 243.758 333.606 242.156L370.762 236.07C379.09 234.789 385.176 227.582 385.176 219.094V123.801C385.176 116.273 379.09 110.348 371.723 110.348C371.563 110.348 371.402 110.348 371.402 110.348L348.5 110.988L343.695 91.4491C342.734 87.9257 339.211 85.5233 335.527 86.164L325.758 87.6054L325.438 85.5233C322.234 64.8632 302.856 50.6093 282.195 53.8124C279.953 54.1327 277.871 54.7733 275.629 55.414C273.867 54.1327 271.625 53.4921 269.383 53.8124L255.289 56.0546L254.649 52.0507C250.645 25.6249 225.66 7.52725 199.234 11.6913C172.809 15.8554 154.711 40.6796 158.715 67.1054L159.356 71.1093L144.781 73.3515C140.617 73.9921 137.414 77.8358 137.734 81.9999L139.977 116.594L83.2813 118.195L70.3087 88.5663C76.5548 83.7616 77.6759 74.7929 72.8712 68.5468C70.4688 65.5038 66.9454 63.4218 62.9415 63.1015L15.5352 58.6171C7.68757 57.8163 0.800855 63.5819 7.32318e-05 71.4296C-0.800708 79.2772 4.96492 86.164 12.8126 86.8046ZM153.109 197.793L148.945 133.41L196.352 241.996L173.93 245.519L153.109 197.793ZM165.602 246.801L161.438 247.441C158.875 247.762 156.473 246.16 156.152 243.598C156.152 243.437 156.152 243.117 156.152 242.957L154.711 221.496L165.602 246.801ZM258.492 96.0937C256.57 84.2421 262.016 72.5507 272.106 66.1444L279.313 94.9726L258.813 98.1757L258.492 96.0937ZM338.731 119.156L347.379 139.016L365.637 212.527V212.687C365.957 214.129 365.156 215.57 363.875 215.891C363.715 215.891 363.715 215.891 363.555 215.891L357.309 216.851L315.027 119.797L338.731 119.156ZM306.539 120.117L349.301 218.293L326.879 221.816L282.836 120.918L306.539 120.117ZM332.324 234.309L330.082 229.184L352.504 225.66L354.586 230.625L332.324 234.309ZM271.305 244.398L268.902 238.793L291.324 235.269L293.727 240.715L271.305 244.398ZM265.699 231.266L248.082 190.746L243.918 126.203L288.121 227.902L265.699 231.266ZM253.527 233.027C252.086 233.187 250.805 232.226 250.645 230.785C250.645 230.625 250.645 230.465 250.645 230.465L249.524 214.129L257.531 232.387L253.527 233.027ZM260.734 240.074L263.137 245.68L240.875 249.363L238.313 243.598L260.734 240.074ZM232.707 250.644L210.445 254.328L207.883 248.242L230.305 244.719L232.707 250.644ZM301.895 239.434L299.492 234.148L321.914 230.625L324.156 235.75L301.895 239.434ZM274.188 120.918L318.551 222.937L296.129 226.461L250.484 121.559L274.188 120.918ZM242.957 113.871L242.637 108.746L252.246 107.305L253.207 113.551L242.957 113.871ZM238.473 168.965L218.293 122.519L235.43 122.039L238.473 168.965ZM209.645 122.68L240.074 192.508L242.637 230.945C242.637 232.226 242.957 233.348 243.438 234.629L235.109 235.91L185.941 123.32L209.645 122.68ZM177.293 123.641L226.781 237.191L204.359 240.715L153.75 124.281L177.293 123.641ZM199.555 249.523L202.277 255.609L180.016 259.293L177.293 253.047L199.555 249.523ZM198.113 367.398C198.113 380.531 187.543 391.101 174.41 391.101C161.277 391.101 150.707 380.531 150.707 367.398C150.707 354.266 161.277 343.695 174.41 343.695C187.543 343.695 198.113 354.266 198.113 367.398ZM334.887 367.398C334.887 380.531 324.316 391.101 311.184 391.101C298.051 391.101 287.481 380.531 287.481 367.398C287.481 354.266 298.051 343.695 311.184 343.695C324.316 343.695 334.887 354.266 334.887 367.398ZM327.84 248.723C328.32 251.766 326.238 254.648 323.195 255.129L195.231 276.109C183.859 278.031 173.77 284.437 167.203 293.887L150.547 318.23C149.266 319.992 149.746 322.555 151.508 323.836C152.149 324.316 152.949 324.477 153.75 324.477H345.777C348.82 324.477 351.383 327.039 351.383 330.082C351.383 333.125 348.82 335.687 345.777 335.687H144.621C138.856 335.687 134.211 331.043 134.211 325.277C134.211 323.195 134.852 321.113 136.133 319.351L158.074 287.641C165.602 276.75 176.973 268.902 189.945 265.859L322.875 244.078C325.277 244.238 327.52 246.16 327.84 248.723ZM369.641 228.223L362.914 229.344L360.832 224.539L364.996 223.898C370.762 222.937 374.766 217.492 373.805 211.726C373.805 211.406 373.645 210.926 373.645 210.605L366.758 183.219L377.488 207.883V219.254C377.328 223.738 374.125 227.582 369.641 228.223ZM371.723 118.355C374.766 118.195 377.328 120.598 377.328 123.641V123.801V187.863L355.066 136.613L350.742 118.996L371.723 118.355ZM336.328 94.1718L340.492 111.148L261.215 113.23L260.094 105.863L319.191 96.7343L320.473 104.902C320.793 107.144 322.875 108.586 325.117 108.266C327.359 107.945 328.801 105.863 328.481 103.621L327.199 95.453L336.328 94.1718ZM283.477 61.8202C299.813 59.2577 315.027 70.4687 317.59 86.8046L317.91 88.8866L287.16 93.6913L279.473 62.7812C280.914 62.3007 282.195 61.9804 283.477 61.8202ZM262.816 63.1015C260.895 64.8632 258.973 66.7851 257.371 69.0272L256.57 64.0624L262.816 63.1015ZM166.563 65.9843C163.039 43.8827 178.094 22.9023 200.356 19.3788C222.617 15.8554 243.438 30.9101 246.961 53.1718V53.4921L247.602 57.496L167.203 69.9882L166.563 65.9843ZM145.902 81.3593L160.477 79.1171L162.399 91.1288C163.199 96.414 171.047 95.1327 170.246 89.8476L168.324 77.8358L248.723 65.3437L250.645 77.3554C250.805 78.3163 251.285 79.1171 252.086 79.7577C250.164 85.3632 249.684 91.4491 250.645 97.3749L250.965 99.4569L240.875 101.058C237.191 101.699 234.469 104.902 234.629 108.746L234.949 114.191L147.824 116.594L145.582 81.6796C145.582 81.5194 145.742 81.3593 145.902 81.3593ZM143.66 176.172L121.399 125.082L140.297 124.601L143.66 176.172ZM112.75 125.402L145.102 199.875L147.984 243.437C148.305 250.484 154.231 255.93 161.277 255.609C161.758 255.609 162.238 255.609 162.719 255.449L168.965 254.488L171.688 260.894L163.359 262.336C153.75 263.937 144.301 258.812 140.297 249.844L86.6446 126.043L112.75 125.402ZM14.7344 66.4647L61.9805 70.9491C65.3438 71.2694 67.9063 74.3124 67.586 77.6757C67.2657 81.039 64.2227 83.6015 60.8594 83.2812L13.6134 78.9569C10.2501 78.6366 7.68757 75.5937 8.00789 72.0702C8.3282 68.7069 11.3712 66.1444 14.7344 66.4647Z" fill="black"/>
<path d="M174.41 381.332C182.098 381.332 188.344 375.086 188.344 367.398C188.344 359.711 182.098 353.465 174.41 353.465C166.723 353.465 160.476 359.711 160.476 367.398C160.476 375.086 166.723 381.332 174.41 381.332ZM174.41 361.473C177.773 361.473 180.336 364.195 180.336 367.398C180.336 370.602 177.613 373.324 174.41 373.324C171.047 373.324 168.484 370.602 168.484 367.398C168.484 364.035 171.207 361.473 174.41 361.473Z" fill="black"/>
<path d="M311.184 381.332C318.871 381.332 325.117 375.086 325.117 367.398C325.117 359.711 318.871 353.465 311.184 353.465C303.496 353.465 297.25 359.711 297.25 367.398C297.25 375.086 303.496 381.332 311.184 381.332ZM311.184 361.473C314.547 361.473 317.109 364.195 317.109 367.398C317.109 370.762 314.387 373.324 311.184 373.324C307.82 373.324 305.258 370.602 305.258 367.398C305.258 364.035 307.981 361.473 311.184 361.473Z" fill="black"/>
</g>
<defs>
<clipPath id="clip0">
<rect width="410" height="410" fill="white"/>
</clipPath>
</defs>
</svg>
