<svg width="24" height="24" viewBox="0 0 24 24" fill="none" xmlns="http://www.w3.org/2000/svg">
<path d="M4.8 2.4C4.16348 2.4 3.55303 2.65286 3.10294 3.10294C2.65286 3.55303 2.4 4.16348 2.4 4.8V19.2C2.4 19.8365 2.65286 20.447 3.10294 20.8971C3.55303 21.3471 4.16348 21.6 4.8 21.6H19.2C19.8365 21.6 20.447 21.3471 20.8971 20.8971C21.3471 20.447 21.6 19.8365 21.6 19.2V4.8C21.6 4.16348 21.3471 3.55303 20.8971 3.10294C20.447 2.65286 19.8365 2.4 19.2 2.4H4.8ZM4.8 0H19.2C20.473 0 21.6939 0.505713 22.5941 1.40589C23.4943 2.30606 24 3.52696 24 4.8V19.2C24 20.473 23.4943 21.6939 22.5941 22.5941C21.6939 23.4943 20.473 24 19.2 24H4.8C3.52696 24 2.30606 23.4943 1.40589 22.5941C0.505713 21.6939 0 20.473 0 19.2V4.8C0 3.52696 0.505713 2.30606 1.40589 1.40589C2.30606 0.505713 3.52696 0 4.8 0Z" fill="#9C307C"/>
<path d="M13.67 12C13.67 12.3797 13.5574 12.751 13.3464 13.0667C13.1354 13.3824 12.8356 13.6285 12.4848 13.7738C12.1339 13.9192 11.7479 13.9572 11.3754 13.8831C11.003 13.809 10.6609 13.6262 10.3924 13.3576C10.1238 13.0891 9.94098 12.747 9.86689 12.3746C9.79281 12.0021 9.83083 11.6161 9.97615 11.2652C10.1215 10.9144 10.3676 10.6146 10.6833 10.4036C10.999 10.1926 11.3703 10.08 11.75 10.08C12.259 10.0806 12.7471 10.2831 13.107 10.643C13.4669 11.0029 13.6694 11.491 13.67 12ZM17.75 9.36V14.64C17.749 15.5308 17.3947 16.3849 16.7648 17.0148C16.1349 17.6447 15.2808 17.999 14.39 18H9.11C8.21918 17.999 7.36515 17.6447 6.73524 17.0148C6.10534 16.3849 5.75102 15.5308 5.75 14.64V9.36C5.75102 8.46918 6.10534 7.61515 6.73524 6.98524C7.36515 6.35534 8.21918 6.00102 9.11 6H14.39C15.2808 6.00102 16.1349 6.35534 16.7648 6.98524C17.3947 7.61515 17.749 8.46918 17.75 9.36ZM14.63 12C14.63 11.4304 14.4611 10.8736 14.1446 10.4C13.8282 9.92634 13.3784 9.55721 12.8521 9.33923C12.3259 9.12125 11.7468 9.06421 11.1881 9.17534C10.6295 9.28646 10.1163 9.56076 9.71353 9.96353C9.31076 10.3663 9.03646 10.8795 8.92534 11.4381C8.81421 11.9968 8.87125 12.5759 9.08923 13.1021C9.30721 13.6284 9.67634 14.0782 10.15 14.3946C10.6236 14.7111 11.1804 14.88 11.75 14.88C12.5136 14.8791 13.2456 14.5754 13.7855 14.0355C14.3254 13.4956 14.6291 12.7636 14.63 12ZM15.59 8.88C15.59 8.7376 15.5478 8.59839 15.4687 8.47999C15.3895 8.36159 15.2771 8.2693 15.1455 8.21481C15.014 8.16031 14.8692 8.14605 14.7295 8.17383C14.5899 8.20162 14.4616 8.27019 14.3609 8.37088C14.2602 8.47158 14.1916 8.59987 14.1638 8.73953C14.1361 8.8792 14.1503 9.02397 14.2048 9.15553C14.2593 9.28709 14.3516 9.39954 14.47 9.47866C14.5884 9.55777 14.7276 9.6 14.87 9.6C15.061 9.6 15.2441 9.52414 15.3791 9.38912C15.5141 9.25409 15.59 9.07096 15.59 8.88Z" fill="#9C307C"/>
</svg>
