<svg width="24" height="24" viewBox="0 0 24 24" fill="none" xmlns="http://www.w3.org/2000/svg">
<path d="M18 8.33636C17.5584 8.52836 17.0844 8.66036 16.5864 8.71796C17.0952 8.41796 17.484 7.94276 17.6688 7.37756C17.184 7.66012 16.6549 7.85891 16.104 7.96556C15.8723 7.72265 15.5935 7.52949 15.2846 7.39787C14.9758 7.26624 14.6433 7.1989 14.3076 7.19996C12.948 7.19996 11.8464 8.28596 11.8464 9.62396C11.8464 9.81356 11.868 9.99836 11.91 10.176C10.9348 10.1297 9.97994 9.88058 9.10638 9.44462C8.23281 9.00866 7.45971 8.3954 6.8364 7.64396C6.61748 8.01248 6.50221 8.43332 6.5028 8.86196C6.5028 9.70196 6.9384 10.446 7.5984 10.8792C7.20773 10.8669 6.82543 10.7629 6.4824 10.5756V10.6056C6.48611 11.1689 6.68496 11.7136 7.0451 12.1468C7.40524 12.58 7.9044 12.875 8.4576 12.9816C8.09443 13.0776 7.71443 13.0915 7.3452 13.0224C7.50615 13.507 7.81401 13.9295 8.22603 14.2312C8.63805 14.5329 9.13378 14.6988 9.6444 14.706C8.76836 15.381 7.69277 15.7458 6.5868 15.7428C6.3888 15.7428 6.1932 15.7308 6 15.7092C7.12857 16.4235 8.43716 16.8019 9.7728 16.8C14.3016 16.8 16.7772 13.1064 16.7772 9.90236L16.7688 9.58796C17.2516 9.2487 17.6687 8.82463 18 8.33636Z" fill="#9C307C"/>
<path d="M4.8 2.4C4.16348 2.4 3.55303 2.65286 3.10294 3.10294C2.65286 3.55303 2.4 4.16348 2.4 4.8V19.2C2.4 19.8365 2.65286 20.447 3.10294 20.8971C3.55303 21.3471 4.16348 21.6 4.8 21.6H19.2C19.8365 21.6 20.447 21.3471 20.8971 20.8971C21.3471 20.447 21.6 19.8365 21.6 19.2V4.8C21.6 4.16348 21.3471 3.55303 20.8971 3.10294C20.447 2.65286 19.8365 2.4 19.2 2.4H4.8ZM4.8 0H19.2C20.473 0 21.6939 0.505713 22.5941 1.40589C23.4943 2.30606 24 3.52696 24 4.8V19.2C24 20.473 23.4943 21.6939 22.5941 22.5941C21.6939 23.4943 20.473 24 19.2 24H4.8C3.52696 24 2.30606 23.4943 1.40589 22.5941C0.505713 21.6939 0 20.473 0 19.2V4.8C0 3.52696 0.505713 2.30606 1.40589 1.40589C2.30606 0.505713 3.52696 0 4.8 0Z" fill="#9C307C"/>
</svg>
