<svg width="24" height="24" viewBox="0 0 24 24" fill="none" xmlns="http://www.w3.org/2000/svg">
<path d="M4.8 2.4C4.16348 2.4 3.55303 2.65286 3.10294 3.10294C2.65286 3.55303 2.4 4.16348 2.4 4.8V19.2C2.4 19.8365 2.65286 20.447 3.10294 20.8971C3.55303 21.3471 4.16348 21.6 4.8 21.6H19.2C19.8365 21.6 20.447 21.3471 20.8971 20.8971C21.3471 20.447 21.6 19.8365 21.6 19.2V4.8C21.6 4.16348 21.3471 3.55303 20.8971 3.10294C20.447 2.65286 19.8365 2.4 19.2 2.4H4.8ZM4.8 0H19.2C20.473 0 21.6939 0.505713 22.5941 1.40589C23.4943 2.30606 24 3.52696 24 4.8V19.2C24 20.473 23.4943 21.6939 22.5941 22.5941C21.6939 23.4943 20.473 24 19.2 24H4.8C3.52696 24 2.30606 23.4943 1.40589 22.5941C0.505713 21.6939 0 20.473 0 19.2V4.8C0 3.52696 0.505713 2.30606 1.40589 1.40589C2.30606 0.505713 3.52696 0 4.8 0Z" fill="#9C307C"/>
<path d="M17.3277 6.99469C16.3071 6.52622 15.2299 6.19217 14.1233 6.0009C14.1132 5.99893 14.1027 6.00022 14.0934 6.00458C14.0841 6.00894 14.0764 6.01615 14.0715 6.02517C13.9337 6.27116 13.7802 6.59193 13.6726 6.84513C12.4797 6.66394 11.2662 6.66394 10.0733 6.84513C9.95359 6.56457 9.81847 6.29084 9.66858 6.02517C9.66341 6.01635 9.65569 6.00932 9.64643 6.00498C9.63718 6.00065 9.62683 5.99923 9.61676 6.0009C8.51003 6.19177 7.43284 6.52584 6.41233 6.99469C6.40369 6.99832 6.39636 7.0045 6.39134 7.01241C4.34995 10.062 3.7904 13.0362 4.06526 15.973C4.06592 15.9803 4.06807 15.9874 4.07157 15.9938C4.07507 16.0002 4.07984 16.0059 4.08559 16.0104C5.27395 16.8908 6.60329 17.5629 8.01684 17.998C8.0268 18.0009 8.03741 18.0007 8.04725 17.9974C8.05709 17.9941 8.0657 17.9879 8.07194 17.9796C8.375 17.5663 8.64526 17.1301 8.87616 16.6716C8.87939 16.6653 8.88125 16.6585 8.88162 16.6514C8.882 16.6444 8.88088 16.6374 8.87834 16.6308C8.87579 16.6242 8.87189 16.6183 8.86688 16.6133C8.86187 16.6084 8.85587 16.6045 8.84927 16.6021C8.42513 16.4398 8.01452 16.2441 7.62129 16.0169C7.61408 16.0128 7.60801 16.0069 7.60363 15.9998C7.59924 15.9927 7.59668 15.9847 7.59616 15.9764C7.59564 15.9681 7.59718 15.9597 7.60065 15.9522C7.60412 15.9446 7.6094 15.938 7.61604 15.933C7.69885 15.871 7.78021 15.8072 7.86006 15.7414C7.86704 15.7358 7.87547 15.7322 7.88438 15.731C7.8933 15.7298 7.90237 15.7312 7.91057 15.7349C10.4872 16.911 13.2764 16.911 15.8229 15.7349C15.8312 15.731 15.8404 15.7296 15.8494 15.7308C15.8585 15.732 15.867 15.7356 15.8741 15.7414C15.9528 15.8057 16.0354 15.8713 16.1188 15.933C16.1253 15.9379 16.1306 15.9444 16.1341 15.9518C16.1375 15.9593 16.1392 15.9675 16.1388 15.9757C16.1384 15.9839 16.136 15.9919 16.1318 15.9989C16.1277 16.006 16.1218 16.012 16.1148 16.0163C15.7225 16.2456 15.3115 16.4413 14.8862 16.6014C14.8796 16.604 14.8736 16.6079 14.8685 16.6129C14.8635 16.6179 14.8596 16.6239 14.8571 16.6305C14.8545 16.6371 14.8534 16.6442 14.8538 16.6513C14.8542 16.6584 14.8561 16.6653 14.8593 16.6716C15.0954 17.1295 15.3657 17.565 15.6629 17.979C15.669 17.9874 15.6776 17.9937 15.6875 17.997C15.6973 18.0003 15.708 18.0004 15.718 17.9973C17.1339 17.5636 18.4654 16.8914 19.6551 16.0097C19.6609 16.0056 19.6658 16.0004 19.6694 15.9943C19.673 15.9881 19.6753 15.9814 19.6761 15.9743C20.0041 12.5783 19.1264 9.62842 17.3481 7.01372C17.3439 7.0049 17.3367 6.9979 17.3277 6.99404V6.99469ZM9.26122 14.1842C8.4852 14.1842 7.84628 13.4724 7.84628 12.5974C7.84628 11.7229 8.47339 11.0106 9.26122 11.0106C10.0549 11.0106 10.6886 11.7295 10.6762 12.598C10.6762 13.4724 10.049 14.1842 9.26122 14.1842ZM14.4926 14.1842C13.7166 14.1842 13.0777 13.4724 13.0777 12.5974C13.0777 11.7229 13.7041 11.0106 14.4926 11.0106C15.2863 11.0106 15.92 11.7295 15.9075 12.598C15.9075 13.4724 15.287 14.1842 14.4926 14.1842Z" fill="#9C307C"/>
</svg>
