<svg width="24" height="24" viewBox="0 0 24 24" fill="none" xmlns="http://www.w3.org/2000/svg">
<path d="M9.81557 18.0096C9.95957 18.0096 10.0688 18.0048 10.1408 17.9952C10.2252 17.9781 10.3014 17.9328 10.3568 17.8668C10.4288 17.7912 10.4648 17.682 10.4648 17.538L10.46 16.8696C10.4564 16.4436 10.4552 16.1052 10.4552 15.8568L10.2296 15.8964C10.049 15.9248 9.86622 15.936 9.68357 15.93C9.45408 15.9259 9.22532 15.903 8.99957 15.8616C8.76 15.8169 8.53456 15.7157 8.34197 15.5664C8.14008 15.4136 7.98942 15.2031 7.90997 14.9628L7.81157 14.736C7.7288 14.5573 7.62486 14.3893 7.50197 14.2356C7.39164 14.0779 7.24461 13.9494 7.07357 13.8612L7.00517 13.8132C6.95807 13.7785 6.91535 13.7382 6.87797 13.6932C6.84169 13.6523 6.81175 13.6061 6.78917 13.5564C6.76997 13.5108 6.78557 13.4724 6.83717 13.4436C6.92773 13.4072 7.02543 13.392 7.12277 13.3992L7.31957 13.4292C7.45157 13.4544 7.61357 13.5336 7.80677 13.6644C7.99877 13.7964 8.15837 13.9656 8.28317 14.1756C8.43437 14.4444 8.61557 14.6496 8.82917 14.79C9.01771 14.9229 9.24171 14.9965 9.47237 15.0012C9.68837 15.0012 9.87557 14.9856 10.0328 14.9532C10.1858 14.9214 10.3344 14.8715 10.4756 14.8044C10.5344 14.3664 10.694 14.028 10.9556 13.7928C10.616 13.7592 10.2794 13.6998 9.94877 13.6152C9.62596 13.5262 9.31555 13.3972 9.02477 13.2312C8.72025 13.0659 8.45115 12.8425 8.23277 12.5736C8.02397 12.3108 7.85237 11.9676 7.71677 11.5416C7.57539 11.063 7.50781 10.5657 7.51637 10.0668C7.51637 9.27476 7.77557 8.59916 8.29277 8.04236C8.05037 7.44596 8.07317 6.77756 8.36117 6.03716C8.55197 5.97716 8.83397 6.02156 9.20717 6.16916C9.58037 6.31676 9.85517 6.44276 10.028 6.54836C10.202 6.65276 10.34 6.74036 10.4456 6.81236C11.0602 6.64167 11.6953 6.55607 12.3332 6.55796C12.9812 6.55796 13.6112 6.64196 14.2208 6.81356L14.5928 6.57716C14.8496 6.42116 15.1508 6.27596 15.4976 6.14516C15.8456 6.01316 16.1108 5.97716 16.2944 6.03716C16.5896 6.77756 16.616 7.44596 16.3724 8.04116C16.8908 8.59916 17.15 9.27356 17.15 10.0668C17.15 10.6236 17.0828 11.1168 16.9484 11.5464C16.814 11.976 16.64 12.3192 16.4276 12.5784C16.2056 12.8447 15.9352 13.0666 15.6308 13.2324C15.34 13.3984 15.0296 13.5274 14.7068 13.6164C14.3757 13.7007 14.0388 13.7596 13.6988 13.7928C14.0396 14.0868 14.21 14.5524 14.21 15.1884V17.5368C14.21 17.6484 14.2268 17.7384 14.2592 17.808C14.2744 17.8411 14.2962 17.8708 14.3232 17.8954C14.3502 17.9199 14.3819 17.9388 14.4164 17.9508C14.4884 17.976 14.5532 17.9928 14.6084 17.9988C14.6648 18.006 14.744 18.0096 14.8484 18.0096H9.81677H9.81557Z" fill="#9C307C"/>
<path d="M4.8 2.4C4.16348 2.4 3.55303 2.65286 3.10294 3.10294C2.65286 3.55303 2.4 4.16348 2.4 4.8V19.2C2.4 19.8365 2.65286 20.447 3.10294 20.8971C3.55303 21.3471 4.16348 21.6 4.8 21.6H19.2C19.8365 21.6 20.447 21.3471 20.8971 20.8971C21.3471 20.447 21.6 19.8365 21.6 19.2V4.8C21.6 4.16348 21.3471 3.55303 20.8971 3.10294C20.447 2.65286 19.8365 2.4 19.2 2.4H4.8ZM4.8 0H19.2C20.473 0 21.6939 0.505713 22.5941 1.40589C23.4943 2.30606 24 3.52696 24 4.8V19.2C24 20.473 23.4943 21.6939 22.5941 22.5941C21.6939 23.4943 20.473 24 19.2 24H4.8C3.52696 24 2.30606 23.4943 1.40589 22.5941C0.505713 21.6939 0 20.473 0 19.2V4.8C0 3.52696 0.505713 2.30606 1.40589 1.40589C2.30606 0.505713 3.52696 0 4.8 0Z" fill="#9C307C"/>
</svg>
