<svg width="32" height="33" viewBox="0 0 32 33" fill="none" xmlns="http://www.w3.org/2000/svg">
<g clip-path="url(#clip0)">
<path d="M12.3469 24.3289C19.7783 24.3289 23.8423 18.172 23.8423 12.8335C23.8423 12.6587 23.8386 12.4846 23.8306 12.311C24.6195 11.7406 25.3051 11.0292 25.846 10.2193C25.1223 10.5412 24.3432 10.7578 23.526 10.8557C24.3598 10.3553 25.0005 9.56396 25.3026 8.62058C24.5217 9.08335 23.6577 9.41996 22.7371 9.6015C21.9998 8.81627 20.95 8.3252 19.7881 8.3252C17.5568 8.3252 15.7475 10.1344 15.7475 12.3652C15.7475 12.6821 15.7832 12.9904 15.8521 13.2864C12.4946 13.1178 9.51676 11.5098 7.52476 9.0655C7.17768 9.66243 6.97768 10.356 6.97768 11.0963C6.97768 12.4981 7.69091 13.7357 8.77584 14.4593C8.11307 14.439 7.4903 14.2569 6.94568 13.9541C6.94507 13.9707 6.94507 13.988 6.94507 14.0058C6.94507 15.9627 8.33768 17.596 10.1863 17.9664C9.84722 18.0587 9.48968 18.1086 9.12107 18.1086C8.86076 18.1086 8.60784 18.0827 8.36168 18.036C8.87614 19.6409 10.3672 20.8089 12.1358 20.8421C10.7531 21.9258 9.01091 22.5713 7.11799 22.5713C6.79184 22.5713 6.4706 22.5529 6.1543 22.5153C7.94199 23.66 10.0651 24.3289 12.3469 24.3289Z" fill="#63A4FF"/>
<path d="M16 32.3271C7.17723 32.3271 0 25.1499 0 16.3271C0 7.50438 7.17723 0.327148 16 0.327148C24.8228 0.327148 32 7.50438 32 16.3271C32 25.1499 24.8228 32.3271 16 32.3271ZM16 1.55792C7.85662 1.55792 1.23077 8.18376 1.23077 16.3271C1.23077 24.4705 7.85662 31.0964 16 31.0964C24.1434 31.0964 30.7692 24.4705 30.7692 16.3271C30.7692 8.18376 24.1434 1.55792 16 1.55792Z" fill="#63A4FF"/>
</g>
<defs>
<clipPath id="clip0">
<rect width="32" height="32" fill="white" transform="translate(0 0.327148)"/>
</clipPath>
</defs>
</svg>
