<svg width="200" height="200" viewBox="0 0 200 200" fill="none" xmlns="http://www.w3.org/2000/svg">
<path d="M135.119 172.605H7.27051V2.92969H103.552L135.119 34.4973V172.605Z" fill="#F4FBFF"/>
<path d="M103.552 2.92969H94.8709V35.2863C94.8709 39.6449 98.4041 43.1781 102.763 43.1781H122.887C125.066 43.1781 126.833 44.9449 126.833 47.1242V81.9504C126.833 82.8355 126.109 83.5594 125.224 83.5594H125.207C94.3107 83.5594 69.1748 108.696 69.1748 139.592C69.1748 151.926 73.1838 163.34 79.9631 172.605H135.119V34.4973L103.552 2.92969Z" fill="#E4F6FF"/>
<path d="M103.552 2.92969V34.4973H135.119L103.552 2.92969Z" fill="#D3EFFB"/>
<path d="M19.8975 51.4648H122.492V130.384H19.8975V51.4648Z" fill="#9DC6FB"/>
<path d="M122.492 130.384V83.6262C95.9519 84.8989 74.1965 104.723 69.9355 130.384H122.492V130.384Z" fill="#80B4FB"/>
<path d="M122.492 92.5027L97.6326 67.6433L70.0107 98.8164L55.4107 81.0593L19.8975 120.914V130.384H122.492V92.5027Z" fill="#95D6A4"/>
<path d="M69.9355 130.384H122.492V92.5027L114.568 84.5781C91.7141 88.9895 73.7637 107.33 69.9355 130.384Z" fill="#78C2A4"/>
<path d="M19.8975 147.352H122.492V159.979H19.8975V147.352Z" fill="#407093"/>
<path d="M73.0148 159.979H122.493V147.352H69.7148C70.3258 151.742 71.4445 155.972 73.0148 159.979Z" fill="#365E7D"/>
<path d="M149.168 180.327L165.907 163.588L175.95 173.632L159.211 190.37L149.168 180.327Z" fill="#2B4D66"/>
<path d="M192.73 197.07H172.641L162.596 187.025L172.641 176.981L192.73 197.07Z" fill="#4A80AA"/>
<path d="M125.207 186.944C151.359 186.944 172.559 165.744 172.559 139.592C172.559 113.441 151.359 92.2407 125.207 92.2407C99.0555 92.2407 77.8555 113.441 77.8555 139.592C77.8555 165.744 99.0555 186.944 125.207 186.944Z" fill="#DD636E"/>
<path d="M153.841 101.881C159.889 109.833 163.481 119.755 163.481 130.517C163.481 156.668 142.281 177.868 116.13 177.868C105.368 177.868 95.4469 174.276 87.4941 168.228C96.143 179.6 109.816 186.944 125.205 186.944C151.357 186.944 172.557 165.744 172.557 139.592C172.557 124.203 165.213 110.53 153.841 101.881Z" fill="#DA4A54"/>
<path d="M125.207 174.317C144.384 174.317 159.931 158.77 159.931 139.592C159.931 120.415 144.384 104.868 125.207 104.868C106.029 104.868 90.4824 120.415 90.4824 139.592C90.4824 158.77 106.029 174.317 125.207 174.317Z" fill="#E4F6FF"/>
<path d="M146.176 111.915C150.598 117.741 153.223 125.006 153.223 132.884C153.223 152.062 137.677 167.608 118.499 167.608C110.62 167.608 103.356 164.983 97.5293 160.561C103.87 168.918 113.908 174.316 125.207 174.316C144.385 174.316 159.931 158.77 159.931 139.592C159.931 128.293 154.533 118.256 146.176 111.915Z" fill="#D3EFFB"/>
<path d="M194.802 194.998L176.784 176.981L178.061 175.704C179.205 174.56 179.205 172.705 178.061 171.561L169.652 163.153C173.465 155.982 175.488 147.943 175.488 139.592C175.488 126.162 170.258 113.535 160.761 104.038C154.247 97.5238 146.375 93.1773 138.048 90.9922V34.4961C138.048 33.7191 137.739 32.9742 137.19 32.4242L105.623 0.857813C105.073 0.308594 104.328 0 103.551 0H7.26953C5.65156 0 4.33984 1.31133 4.33984 2.92969V22.2969C4.33984 23.9152 5.65156 25.2266 7.26953 25.2266C8.8875 25.2266 10.1992 23.9152 10.1992 22.2969V5.85938H100.622V34.4973C100.622 36.1156 101.933 37.427 103.552 37.427H132.188V89.8199C129.944 89.5078 127.684 89.3469 125.422 89.3375V75.3164C125.422 73.698 124.111 72.3867 122.493 72.3867C120.874 72.3867 119.563 73.698 119.563 75.3164V85.4297L99.7043 65.5715C99.1332 65.0004 98.3449 64.6816 97.5445 64.7152C96.7371 64.7395 95.9758 65.0961 95.4402 65.7004L70.0945 94.3047L57.6742 79.1984C57.1305 78.5375 56.325 78.1473 55.4691 78.1305C54.6117 78.1063 53.793 78.4715 53.2234 79.1105L22.8281 113.221V54.3945H119.562V61.6445C119.562 63.2629 120.874 64.5742 122.492 64.5742C124.111 64.5742 125.422 63.2629 125.422 61.6445V51.4648C125.422 49.8465 124.111 48.5352 122.492 48.5352H19.8988C18.2809 48.5352 16.9691 49.8465 16.9691 51.4648V130.383C16.9691 132.001 18.2809 133.312 19.8988 133.312H75.3422C74.882 136.999 74.8266 140.726 75.1801 144.421H19.8988C18.2809 144.421 16.9691 145.733 16.9691 147.351V159.976C16.9691 161.595 18.2809 162.906 19.8988 162.906H80.6535C81.8773 165.248 83.3004 167.512 84.918 169.675H10.1992V35.9688C10.1992 34.3504 8.8875 33.0391 7.26953 33.0391C5.65156 33.0391 4.33984 34.3504 4.33984 35.9688V172.605C4.33984 174.224 5.65156 175.535 7.26953 175.535H90.0516C99.8031 185.076 112.504 189.85 125.207 189.85C133.311 189.85 141.415 187.907 148.753 184.023L157.176 192.446C157.748 193.018 158.498 193.304 159.248 193.304C159.997 193.304 160.747 193.018 161.32 192.446L162.596 191.169L170.569 199.142C171.141 199.714 171.891 200 172.641 200C173.391 200 174.141 199.714 174.713 199.142C175.857 197.998 175.857 196.143 174.713 194.999L166.74 187.026L172.641 181.125L190.659 199.142C191.231 199.714 191.981 200 192.731 200C193.48 200 194.23 199.714 194.803 199.142C195.946 197.998 195.946 196.143 194.802 194.998ZM106.481 10.0031L128.046 31.5676H106.481V10.0031ZM22.8285 127.453V122.028L55.3219 85.5633L67.7484 100.677C68.293 101.339 69.1 101.729 69.9574 101.745C70.8207 101.766 71.6355 101.4 72.2043 100.759L97.7621 71.9152L116.024 90.1769C106.357 91.959 97.1145 96.577 89.6535 104.037C82.9566 110.734 78.5488 118.866 76.4273 127.453H22.8285V127.453ZM22.8285 157.047V150.281H76.0906C76.5852 152.571 77.2422 154.832 78.0586 157.047H22.8285ZM93.7961 171.003C76.4762 153.683 76.4762 125.502 93.7961 108.182C102.456 99.5215 113.832 95.1914 125.207 95.1914C136.582 95.1914 147.958 99.5215 156.618 108.182C165.008 116.572 169.629 127.727 169.629 139.592C169.629 151.458 165.008 162.613 156.618 171.003C139.298 188.323 111.116 188.323 93.7961 171.003ZM153.904 180.886C156.316 179.209 158.612 177.295 160.761 175.146C162.896 173.012 164.813 170.718 166.505 168.293L171.845 173.632L159.247 186.23L153.904 180.886Z" fill="black"/>
<path d="M160.013 141.141C158.411 140.938 156.941 142.069 156.735 143.674C155.835 150.693 152.708 157.055 147.69 162.073C141.684 168.079 133.7 171.387 125.207 171.387C116.715 171.387 108.73 168.079 102.724 162.073C96.7197 156.069 93.4131 148.084 93.4131 139.591C93.4131 131.099 96.7197 123.114 102.724 117.111C108.73 111.104 116.714 107.796 125.207 107.796C133.699 107.796 141.684 111.104 147.689 117.109C151.617 121.04 154.455 125.933 155.895 131.257C156.317 132.819 157.926 133.744 159.488 133.32C161.05 132.897 161.973 131.289 161.551 129.727C159.844 123.417 156.484 117.622 151.833 112.967C144.721 105.855 135.265 101.938 125.207 101.938C115.149 101.938 105.694 105.855 98.5807 112.967C91.4697 120.078 87.5537 129.534 87.5537 139.591C87.5537 149.65 91.4697 159.105 98.5807 166.216C105.921 173.557 115.564 177.227 125.207 177.227C134.85 177.227 144.492 173.557 151.833 166.216C157.776 160.273 161.481 152.736 162.547 144.419C162.753 142.814 161.618 141.346 160.013 141.141Z" fill="black"/>
</svg>
