<svg width="70" height="70" viewBox="0 0 70 70" fill="none" xmlns="http://www.w3.org/2000/svg">
<path d="M20.3027 53.6622C17.2825 53.6622 14.834 51.2137 14.834 48.1935V33.9292L55.166 34.0431V48.1935C55.166 51.2137 52.7175 53.6622 49.6973 53.6622H20.3027Z" fill="#6F6571"/>
<path d="M55.166 34.043V48.1934C55.166 51.2135 52.7174 53.6621 49.6973 53.6621H45.5957C48.6158 53.6621 51.0645 51.2135 51.0645 48.1934V34.043H55.166Z" fill="#5D5360"/>
<path d="M39.7852 6.97266V3.41797C39.7852 2.09658 38.714 1.02539 37.3926 1.02539C36.0712 1.02539 35 2.09658 35 3.41797L33.6328 5.60547L39.7852 6.97266Z" fill="#514A54"/>
<path d="M35 5.60547V3.41797C35 2.09658 33.9288 1.02539 32.6074 1.02539C31.286 1.02539 30.2148 2.09658 30.2148 3.41797V6.97266L35 5.60547Z" fill="#5D5360"/>
<path d="M24.8145 53.6621H21.5332C15.4926 53.6621 10.5957 58.559 10.5957 64.5996V66.2402C10.5957 67.7504 11.8199 68.9746 13.3301 68.9746H56.6699C58.1801 68.9746 59.4043 67.7504 59.4043 66.2402V64.5996C59.4043 58.559 54.5074 53.6621 48.4668 53.6621H44.3652L43.9322 59.7461L26.8652 61.0449L24.8145 53.6621Z" fill="#FFC269"/>
<path d="M59.4043 64.5996V66.2402C59.4043 67.751 58.1807 68.9746 56.6699 68.9746H52.5683C54.0791 68.9746 55.3027 67.751 55.3027 66.2402V64.5996C55.3027 58.8793 50.9099 54.183 45.3127 53.7031L45.3223 53.6621H48.4668C54.507 53.6621 59.4043 58.5594 59.4043 64.5996Z" fill="#FFA95F"/>
<path d="M44.3652 53.6621H41.6309C41.2534 53.6621 40.9473 53.356 40.9473 52.9785V45.3223H29.0527V52.9785C29.0527 53.356 28.7466 53.6621 28.3691 53.6621H25.6348L25.2246 59.5068L37.1191 60.7031L45.3223 58.7207L44.3652 53.6621Z" fill="#BC845E"/>
<path d="M20.3027 27.1387H16.6797C14.3767 27.1387 12.5098 29.0056 12.5098 31.3086C12.5098 33.6116 14.3767 35.4785 16.6797 35.4785H20.3027V27.1387Z" fill="#BC845E"/>
<path d="M49.6973 35.4785H53.3203C55.6233 35.4785 57.4902 33.6116 57.4902 31.3086C57.4902 29.0056 55.6233 27.1387 53.3203 27.1387H49.6973V35.4785Z" fill="#BC845E"/>
<path d="M18.9355 18.9355V32.8125C18.9355 41.6846 26.1278 48.877 35 48.877C43.8721 48.877 51.0645 41.6847 51.0645 32.8125V18.9355L35.2734 12.2363L18.9355 18.9355Z" fill="#D19A6E"/>
<path d="M51.0645 18.9355V32.8125C51.0645 37.2477 49.2666 41.2645 46.3586 44.1711C43.452 47.0791 39.4352 48.877 35 48.877C34.3055 48.877 33.6205 48.8332 32.9492 48.7471C36.5654 48.2863 39.8057 46.6238 42.257 44.1711C45.165 41.2645 46.9629 37.2477 46.9629 32.8125V18.9355H51.0645Z" fill="#BC845E"/>
<path d="M55.166 25.293V27.5693C54.6096 27.2932 53.9834 27.1387 53.3203 27.1387H44.5703C39.2848 27.1387 35 22.8539 35 17.5684C35 20.2111 33.9281 22.6037 32.1973 24.3359C30.465 26.0668 28.0725 27.1387 25.4297 27.1387H16.6797C16.0166 27.1387 15.3904 27.2932 14.834 27.5693V25.293C14.834 14.1559 23.8629 5.12695 35 5.12695C40.5686 5.12695 45.6094 7.38418 49.2598 11.0332C52.9088 14.6836 55.166 19.7244 55.166 25.293Z" fill="#6F6571"/>
<path d="M55.166 25.293V27.5693C54.6096 27.2932 53.9834 27.1387 53.3203 27.1387H51.0645V25.293C51.0645 19.7244 48.8072 14.6836 45.1582 11.0332C41.9617 7.83809 37.6988 5.70938 32.9492 5.22949C33.6232 5.1625 34.3082 5.12695 35 5.12695C40.5686 5.12695 45.6094 7.38418 49.2598 11.0332C52.9088 14.6836 55.166 19.7244 55.166 25.293Z" fill="#5D5360"/>
<path d="M23.2471 6.20143C22.4038 6.46406 21.7786 6.94299 21.3699 7.52705C21.0998 7.91301 20.5264 7.91301 20.2562 7.52705C19.8474 6.94299 19.2223 6.46406 18.3791 6.20143C17.8781 6.04543 17.3369 6.04447 16.8361 6.20074C14.1808 7.02953 13.6769 10.0112 15.3241 11.6572C15.4598 11.793 15.6048 11.9139 15.7568 12.0203C16.1434 12.2909 16.1444 12.8647 15.7576 13.1351C15.1736 13.5436 14.6946 14.168 14.432 15.0104C14.2759 15.5109 14.2749 16.0519 14.4313 16.5524C15.2607 19.2057 18.2444 19.7094 19.8915 18.0633C20.0275 17.9272 20.1489 17.7822 20.2555 17.6299C20.526 17.2437 21.0995 17.2427 21.3698 17.6291C21.7786 18.2131 22.4037 18.6921 23.2469 18.9548C23.7479 19.1108 24.2891 19.1118 24.7899 18.9555C27.4452 18.1267 27.9491 15.145 26.3019 13.4991C26.1662 13.3633 26.0212 13.2423 25.8692 13.1359C25.4822 12.8651 25.4822 12.2914 25.8692 12.0206C26.0212 11.9142 26.1662 11.7931 26.3019 11.6575C27.9491 10.0114 27.4452 7.02967 24.7899 6.20102C24.2893 6.04447 23.748 6.04543 23.2471 6.20143Z" fill="#90D8F9"/>
<path d="M26.302 13.4996C27.9494 15.1457 27.4449 18.1262 24.7899 18.9561C24.2895 19.1119 23.7481 19.1105 23.2477 18.9547C22.7432 18.7975 22.3166 18.5637 21.968 18.2738C23.4569 17.0434 23.5348 14.8326 22.2004 13.4996C22.0651 13.3629 21.9201 13.2426 21.7684 13.1359C21.3801 12.8652 21.3801 12.291 21.7684 12.0203C21.9201 11.9137 22.0651 11.7934 22.2004 11.6566C23.5348 10.3236 23.4569 8.11289 21.968 6.88242C22.3166 6.59258 22.7432 6.35879 23.2477 6.20156C23.7481 6.04571 24.2895 6.04434 24.7899 6.2002C27.4449 7.03008 27.9494 10.0105 26.302 11.6566C26.1666 11.7934 26.0217 11.9137 25.8699 12.0203C25.4817 12.291 25.4817 12.8652 25.8699 13.1359C26.0217 13.2426 26.1666 13.3629 26.302 13.4996Z" fill="#75CEF9"/>
<path d="M48.4668 53.6643V54.2774C48.4668 58.997 44.6414 62.8224 39.9219 62.8224H30.0781C25.3586 62.8224 21.5332 58.997 21.5332 54.2774V53.6622H25.6348V54.6192C25.6348 56.8847 27.4709 58.7208 29.7363 58.7208H40.2637C42.5291 58.7208 44.3652 56.8847 44.3652 54.6192V53.6602C44.3652 53.6602 48.3766 53.6615 48.4668 53.6643Z" fill="white"/>
<path d="M48.4668 53.6635V54.2773C48.4668 54.3375 48.4668 54.3977 48.4641 54.4578C47.4769 54.0572 46.4187 53.7988 45.3127 53.7031L45.3223 53.6621H46.3818C47.3963 53.6621 48.4217 53.6621 48.4668 53.6635Z" fill="#FAF2F3"/>
<path d="M29.0613 39.7957C30.7221 41.2063 32.7172 41.9113 34.7163 41.9113C36.7134 41.9113 38.7146 41.2071 40.3884 39.7988C40.8216 39.4341 40.8773 38.7873 40.5128 38.354C40.1479 37.9208 39.5016 37.8649 39.0679 38.2296C36.5002 40.3905 32.9309 40.3917 30.3887 38.2326C29.9573 37.8661 29.31 37.9189 28.9435 38.3505C28.5769 38.7821 28.6296 39.4292 29.0613 39.7957Z" fill="black"/>
<path d="M53.2405 53.6316C55.0154 52.4712 56.1914 50.4675 56.1914 48.1934V35.6357C57.5911 34.704 58.5156 33.1125 58.5156 31.3086C58.5156 29.5047 57.5911 27.9133 56.1914 26.9814V25.293C56.1914 15.622 49.6796 7.44365 40.8105 4.91148V3.41797C40.8105 1.5333 39.2772 0 37.3926 0C36.4617 0 35.617 0.374473 35 0.980137C34.383 0.374473 33.5383 0 32.6074 0C30.7228 0 29.1895 1.5333 29.1895 3.41797V4.90848C28.2639 5.17234 27.3546 5.50006 26.4645 5.8923C26.0621 5.60766 25.6032 5.38029 25.0955 5.22184C24.3923 5.0024 23.6477 5.00254 22.9421 5.22238C22.0868 5.48871 21.3589 5.95342 20.813 6.57768C20.2669 5.95342 19.5392 5.48885 18.684 5.22238C17.9782 5.00254 17.2337 5.0024 16.5305 5.22184C14.9588 5.71238 13.8455 6.8548 13.4761 8.35611C13.1169 9.81559 13.5368 11.3207 14.5992 12.3823C14.6666 12.4499 14.7365 12.5151 14.8084 12.578C14.1842 13.1236 13.7196 13.8507 13.4533 14.7049C13.2331 15.4104 13.2329 16.155 13.4526 16.8582C13.7175 17.706 14.1739 18.4189 14.773 18.9548C14.133 20.9996 13.8086 23.1297 13.8086 25.293V26.9814C12.4089 27.9132 11.4844 29.5047 11.4844 31.3086C11.4844 33.1125 12.4089 34.7039 13.8086 35.6357V48.1934C13.8086 50.4675 14.9846 52.4712 16.7595 53.6316C12.5323 55.4786 9.57031 59.6993 9.57031 64.5996V66.2402C9.57031 68.3134 11.257 70 13.3301 70H48.7402C49.3067 70 49.7656 69.5409 49.7656 68.9746C49.7656 68.4083 49.3067 67.9492 48.7402 67.9492H13.3301C12.3877 67.9492 11.6211 67.1826 11.6211 66.2402V64.5996C11.6211 59.4762 15.5284 55.2483 20.5196 54.7389C20.7613 59.8024 24.956 63.8477 30.0781 63.8477H39.9219C45.044 63.8477 49.2387 59.8024 49.4804 54.7389C54.4716 55.2483 58.3789 59.4762 58.3789 64.5996V66.2402C58.3789 67.1826 57.6123 67.9492 56.6699 67.9492H53.5254C52.959 67.9492 52.5 68.4083 52.5 68.9746C52.5 69.5409 52.959 70 53.5254 70H56.6699C58.743 70 60.4297 68.3134 60.4297 66.2402V64.5996C60.4297 59.6993 57.4677 55.4786 53.2405 53.6316ZM54.1406 48.1934C54.1406 50.6434 52.1474 52.6367 49.6973 52.6367H41.9727V48.414C46.8424 46.2291 50.5099 41.8291 51.6871 36.5039H53.3203C53.5995 36.5039 53.8733 36.4811 54.1406 36.4386V48.1934ZM19.9609 28.1641H25.4297C29.6461 28.1641 33.2954 25.6881 35 22.1141C36.7046 25.6881 40.3539 28.1641 44.5703 28.1641H50.0391V32.8125C50.0391 41.105 43.2925 47.8516 35 47.8516C26.7075 47.8516 19.9609 41.105 19.9609 32.8125V28.1641ZM30.0781 52.9785V49.1788C31.6375 49.6486 33.2895 49.9023 35 49.9023C36.7105 49.9023 38.3625 49.6486 39.9219 49.1788V52.9785C39.9219 53.9209 40.6885 54.6875 41.6309 54.6875H43.3381C43.3014 56.3522 41.9368 57.6953 40.2637 57.6953H29.7363C28.063 57.6953 26.6986 56.3522 26.6619 54.6875H28.3691C29.3115 54.6875 30.0781 53.9209 30.0781 52.9785ZM53.3203 34.4531H52.0107C52.0624 33.9131 52.0898 33.3659 52.0898 32.8125V32.334H53.3887C53.9551 32.334 54.4141 31.8749 54.4141 31.3086C54.4141 30.7423 53.9551 30.2832 53.3887 30.2832H52.0898V28.1641H53.3203C55.0543 28.1641 56.4648 29.5747 56.4648 31.3086C56.4648 33.0425 55.0543 34.4531 53.3203 34.4531ZM37.3926 2.05078C38.1464 2.05078 38.7598 2.6641 38.7598 3.41797V4.4357C37.8663 4.27506 36.9536 4.17115 36.0254 4.12672V3.41797C36.0254 2.6641 36.6387 2.05078 37.3926 2.05078ZM31.2402 3.41797C31.2402 2.6641 31.8536 2.05078 32.6074 2.05078C33.3613 2.05078 33.9746 2.6641 33.9746 3.41797V4.12672C33.0518 4.1702 32.1396 4.27287 31.2402 4.43365V3.41797ZM16.3447 11.1803C16.24 11.107 16.1406 11.0235 16.049 10.932C15.4988 10.3823 15.2815 9.60258 15.4675 8.84639C15.6614 8.05875 16.2716 7.45117 17.1415 7.17979C17.4409 7.08627 17.7722 7.08668 18.0741 7.18061C18.6497 7.35984 19.1137 7.68305 19.4161 8.11508C19.7345 8.57035 20.2568 8.84215 20.8131 8.84215C21.3691 8.84215 21.8915 8.57035 22.2101 8.11508C22.5124 7.68305 22.9764 7.35984 23.552 7.18061C23.8539 7.08654 24.1851 7.08627 24.4846 7.17965C25.3545 7.45131 25.9647 8.05875 26.1585 8.84652C26.3445 9.60272 26.1272 10.3823 25.5771 10.9322C25.4857 11.0234 25.3862 11.1069 25.2811 11.1804C24.8255 11.4994 24.5536 12.0218 24.5536 12.5783C24.5536 13.1347 24.8255 13.6571 25.2812 13.9761C25.3862 14.0496 25.4857 14.133 25.5771 14.2244C26.1271 14.7741 26.3445 15.5538 26.1585 16.31C25.9647 17.0976 25.3545 17.7052 24.4846 17.9767C24.1851 18.0703 23.8539 18.0698 23.552 17.9759C22.9764 17.7967 22.5124 17.4735 22.21 17.0413C21.8915 16.5863 21.3697 16.3146 20.8138 16.3146C20.8137 16.3146 20.8137 16.3146 20.8135 16.3146C20.2572 16.3146 19.7345 16.5866 19.4157 17.0419C19.3419 17.1473 19.2582 17.2468 19.1666 17.3383C18.6159 17.8886 17.8347 18.1059 17.0773 17.9193C16.6142 17.8053 15.7817 17.4364 15.4101 16.247C15.3166 15.948 15.3169 15.6175 15.4111 15.3161C15.5903 14.7414 15.9134 14.2781 16.3455 13.9758C16.8008 13.6574 17.0726 13.1353 17.0728 12.5792C17.0728 12.0222 16.8007 11.4993 16.3447 11.1803ZM15.8594 25.293C15.8594 23.4612 16.1167 21.6568 16.6243 19.9183C18.0726 20.2616 19.5625 19.8416 20.6161 18.789C20.6839 18.7212 20.7498 18.6509 20.813 18.5784C21.3589 19.2027 22.0868 19.6674 22.9421 19.9337C23.2952 20.0438 23.6581 20.0987 24.0208 20.0987C24.3827 20.0987 24.7443 20.0439 25.0955 19.9343C26.6673 19.4437 27.7806 18.3013 28.15 16.7999C28.509 15.3404 28.0893 13.8353 27.0268 12.7736C26.9594 12.7062 26.8894 12.6409 26.8177 12.578C26.8894 12.5151 26.9594 12.4499 27.0268 12.3825C28.0893 11.3207 28.509 9.81572 28.15 8.35625C28.0789 8.06723 27.9795 7.79174 27.8554 7.53143C30.1235 6.61705 32.5232 6.15234 35 6.15234C45.5541 6.15234 54.1406 14.7388 54.1406 25.293V26.1786C53.8733 26.136 53.5995 26.1133 53.3203 26.1133H44.5703C39.8586 26.1133 36.0254 22.28 36.0254 17.5684C36.0254 17.0021 35.5664 16.543 35 16.543C34.4336 16.543 33.9746 17.0021 33.9746 17.5684C33.9746 22.28 30.1414 26.1133 25.4297 26.1133H16.6797C16.4005 26.1133 16.1267 26.1361 15.8594 26.1786V25.293ZM16.6797 28.1641H17.9102V30.2832H16.6113C16.0449 30.2832 15.5859 30.7423 15.5859 31.3086C15.5859 31.8749 16.0449 32.334 16.6113 32.334H17.9102V32.8125C17.9102 33.3659 17.9376 33.9131 17.9893 34.4531H16.6797C14.9457 34.4531 13.5352 33.0425 13.5352 31.3086C13.5352 29.5747 14.9457 28.1641 16.6797 28.1641ZM20.3027 52.6367C17.8526 52.6367 15.8594 50.6434 15.8594 48.1934V36.4386C16.1267 36.4812 16.4005 36.5039 16.6797 36.5039H18.3129C19.4901 41.829 23.1577 46.229 28.0273 48.414V52.6367H20.3027ZM39.9219 61.7969H30.0781C26.0695 61.7969 22.7839 58.6437 22.5702 54.6875H24.6112C24.6481 57.483 26.9322 59.7461 29.7363 59.7461H40.2637C43.0678 59.7461 45.3521 57.483 45.3888 54.6875H47.4298C47.2161 58.6437 43.9305 61.7969 39.9219 61.7969Z" fill="black"/>
<path d="M43.1348 34.3848C43.7012 34.3848 44.1602 33.9257 44.1602 33.3594V31.3086C44.1602 30.7423 43.7012 30.2832 43.1348 30.2832C42.5683 30.2832 42.1094 30.7423 42.1094 31.3086V33.3594C42.1094 33.9257 42.5683 34.3848 43.1348 34.3848Z" fill="black"/>
<path d="M26.8652 34.3848C27.4317 34.3848 27.8906 33.9257 27.8906 33.3594V31.3086C27.8906 30.7423 27.4317 30.2832 26.8652 30.2832C26.2988 30.2832 25.8398 30.7423 25.8398 31.3086V33.3594C25.8398 33.9257 26.2988 34.3848 26.8652 34.3848Z" fill="black"/>
<path d="M21.0205 24.0625H24.7803C28.738 24.0625 31.958 20.8426 31.958 16.8848C31.958 16.3185 31.499 15.8594 30.9326 15.8594C30.3662 15.8594 29.9072 16.3185 29.9072 16.8848C29.9072 19.7118 27.6073 22.0117 24.7803 22.0117H21.0205C20.4541 22.0117 19.9951 22.4708 19.9951 23.0371C19.9951 23.6034 20.4541 24.0625 21.0205 24.0625Z" fill="black"/>
<path d="M45.2197 24.0625H48.9795C49.5459 24.0625 50.0049 23.6034 50.0049 23.0371C50.0049 22.4708 49.5459 22.0117 48.9795 22.0117H45.2197C42.3927 22.0117 40.0928 19.7118 40.0928 16.8848C40.0928 16.3185 39.6338 15.8594 39.0674 15.8594C38.501 15.8594 38.042 16.3185 38.042 16.8848C38.042 20.8426 41.262 24.0625 45.2197 24.0625Z" fill="black"/>
<path d="M20.7812 13.9453C21.5363 13.9453 22.1484 13.3332 22.1484 12.5781C22.1484 11.823 21.5363 11.2109 20.7812 11.2109C20.0262 11.2109 19.4141 11.823 19.4141 12.5781C19.4141 13.3332 20.0262 13.9453 20.7812 13.9453Z" fill="black"/>
</svg>
