<svg width="70" height="70" viewBox="0 0 70 70" fill="none" xmlns="http://www.w3.org/2000/svg">
<g clip-path="url(#clip0)">
<path d="M56.7089 68.9605H13.2057C13.2057 66.7667 14.3872 64.426 15.2995 62.9477L16.3951 57.9043L20.6703 47.4113L20.9712 46.6722L22.4744 46.3047L47.041 40.2935L49.3457 47.188L54.6151 62.9477C55.5275 64.426 56.7089 66.7669 56.7089 68.9605Z" fill="#FC3552"/>
<path d="M49.3457 47.1876C47.5083 51.3171 44.5894 54.7409 40.1505 56.2315C38.61 56.7501 36.8849 57.0345 34.9574 57.0345C33.0577 57.0345 31.3547 56.7586 29.8293 56.2552C25.4349 54.802 22.5215 51.4614 20.6703 47.4108L20.9712 46.6717L22.4744 46.3042L47.041 40.293L49.3457 47.1876Z" fill="#E21E43"/>
<path d="M33.0923 49.1109C26.909 51.2727 24.5766 65.392 24.5766 68.96H13.2057C13.2057 66.7662 14.3872 64.4256 15.2995 62.9472L16.3951 57.9038L20.9712 46.6717L22.4744 46.3042C29.8932 47.1238 35.878 48.1375 33.0923 49.1109Z" fill="#E21E43"/>
<path d="M51.2288 60.2423C51.2649 60.3685 52.6917 65.3397 48.2738 65.3397C43.8003 65.3397 42.2791 59.3436 42.2791 59.3436C41.4582 56.6867 40.6968 53.6374 40.199 51.5212L40.1505 51.3826C45.3908 49.6229 38.4517 48.8741 33.0922 49.1112C28.9572 49.2929 25.7636 50.0625 29.8293 51.4061C29.3315 53.5264 28.5577 56.6394 27.7215 59.345C27.7215 59.345 26.2004 65.3397 21.7268 65.3397C17.3089 65.3397 18.7357 60.3669 18.7718 60.2423C17.3365 63.372 7.72408 65.8749 11.2129 60.7761C18.1921 48.8312 6.86001 21.8046 15.3729 10.1759C18.1075 6.44152 23.829 7.08902 23.829 7.08902C23.829 7.08902 25.2118 0.757297 32.5529 1.04988C49.3374 1.71542 57.9405 14.1028 57.2775 19.6829L57.3455 19.6912C58.6448 32.8995 53.3337 51.4409 58.7876 60.776C62.2753 65.8751 52.6641 63.3722 51.2288 60.2423Z" fill="#FEC755"/>
<path d="M29.8293 51.4064C29.3315 53.5267 28.5577 56.6398 27.7215 59.3453C27.7215 59.3453 26.2004 65.34 21.7268 65.34C17.3089 65.34 18.7357 60.3673 18.7718 60.2426C17.3365 63.3723 7.72408 65.8752 11.2129 60.7765C18.1921 48.8315 6.86001 21.8049 15.3729 10.1762C18.1075 6.44182 23.829 7.08932 23.829 7.08932C20.8185 7.2017 18.7524 22.96 25.8244 27.2588C29.7626 29.6522 31.9383 40.2187 33.0921 49.1116C28.957 49.293 25.7636 50.0626 29.8293 51.4064Z" fill="#E5AA41"/>
<path d="M52.069 27.8906C52.069 36.6947 49.4343 48.2652 40.1504 51.3826C38.6099 51.9011 36.8848 52.1855 34.9573 52.1855C33.0576 52.1855 31.3546 51.9096 29.8292 51.4062C20.4941 48.3194 17.8468 36.7156 17.8468 27.8907L17.8482 27.8894C20.2235 28.4745 29.4215 23.0166 29.8694 17.2896C30.2536 18.5251 31.0648 19.7218 32.1339 20.8214C33.8006 22.5339 36.0942 24.0135 38.374 25.0384C41.7826 26.5734 45.1632 27.0949 46.378 25.8801C48.928 23.3301 40.9643 23.3744 41.9488 20.5109C43.1331 17.0636 47.3223 20.1477 51.1384 21.6882L51.3727 22.67C51.825 24.3766 52.069 26.1337 52.069 27.8906Z" fill="#FFE2C7"/>
<path d="M34.9573 52.1853C33.0576 52.1853 31.3546 51.9094 29.8292 51.406C20.4941 48.3192 17.8468 36.7154 17.8468 27.8905L17.8482 27.8892C19.1516 28.2109 22.5116 26.7105 25.3516 24.3447C21.7781 33.9726 22.545 48.903 34.9573 52.1853Z" fill="#E8C5A7"/>
<path d="M46.3153 37.0381C48.0202 37.0381 49.4024 36.3571 49.4024 35.5171C49.4024 34.6771 48.0202 33.9961 46.3153 33.9961C44.6103 33.9961 43.2281 34.6771 43.2281 35.5171C43.2281 36.3571 44.6103 37.0381 46.3153 37.0381Z" fill="#FC3552"/>
<path d="M24.6624 37.0381C26.3673 37.0381 27.7495 36.3571 27.7495 35.5171C27.7495 34.6771 26.3673 33.9961 24.6624 33.9961C22.9574 33.9961 21.5753 34.6771 21.5753 35.5171C21.5753 36.3571 22.9574 37.0381 24.6624 37.0381Z" fill="#FC3552"/>
<path d="M29.4627 31.9049C29.1967 31.9049 28.9304 31.8035 28.7273 31.6003C28.1512 31.0243 27.385 30.707 26.5703 30.707C25.7555 30.707 24.9896 31.0243 24.4134 31.6003C24.0071 32.0065 23.3485 32.0066 22.9428 31.6003C22.5364 31.1941 22.5364 30.5357 22.9426 30.1296C23.9116 29.1606 25.1999 28.627 26.5703 28.627C27.9407 28.627 29.2291 29.1606 30.1979 30.1296C30.6042 30.5358 30.6042 31.1943 30.198 31.6003C29.9951 31.8035 29.7289 31.9049 29.4627 31.9049Z" fill="black"/>
<path d="M47.2993 31.9044C47.0332 31.9044 46.7669 31.803 46.5639 31.5998C45.3746 30.4108 43.4396 30.4105 42.2499 31.5998C41.8437 32.0062 41.1851 32.006 40.7792 31.5998C40.373 31.1936 40.373 30.5351 40.7793 30.1292C42.7796 28.1287 46.0346 28.129 48.0346 30.1292C48.4409 30.5353 48.4409 31.1938 48.0347 31.5998C47.8317 31.803 47.5655 31.9044 47.2993 31.9044Z" fill="black"/>
<path d="M35.4887 46.326C31.2023 46.326 27.3177 43.7902 25.5926 39.866C25.3613 39.3402 25.6003 38.7266 26.1261 38.4954C26.6523 38.2643 27.2655 38.503 27.4968 39.0289C28.8901 42.198 32.0273 44.2459 35.4889 44.2459C38.9506 44.2459 42.0877 42.198 43.4812 39.0289C43.7122 38.503 44.3262 38.2645 44.8518 38.4954C45.3776 38.7266 45.6166 39.3402 45.3853 39.866C43.6599 43.7902 39.7751 46.326 35.4887 46.326Z" fill="black"/>
<path d="M21.7268 66.3796C19.823 66.3796 18.8174 65.5729 18.309 64.8962C17.8655 64.306 17.6422 63.6172 17.5466 62.9437C15.897 64.0141 13.7644 64.6773 12.3171 64.7309C10.6768 64.7923 9.96667 64.1433 9.6611 63.5889C9.18136 62.7187 9.40735 61.5858 10.3327 60.2211C13.4844 54.7875 12.6268 45.5897 11.7975 36.6938C11.7137 35.7948 11.6299 34.8945 11.5495 33.9962C11.4985 33.4242 11.9208 32.9189 12.493 32.8679C13.0642 32.8172 13.5703 33.2391 13.6214 33.8113C13.7013 34.7068 13.7851 35.6043 13.8685 36.5009C14.7695 46.1656 15.6204 55.2942 12.1107 61.3006C12.0983 61.3219 12.0849 61.3429 12.071 61.3632C11.5847 62.0739 11.5076 62.4432 11.4972 62.5691C11.6735 62.644 12.2685 62.7561 13.4453 62.469C15.4073 61.99 17.3718 60.7972 17.8258 59.8097C17.8294 59.8018 17.8332 59.794 17.8369 59.7863C17.8372 59.7859 17.8373 59.7856 17.8374 59.7852C17.8858 59.6862 17.9501 59.5945 18.0282 59.5144L18.0283 59.5145C18.2768 59.2605 18.6457 59.1443 19.0065 59.2273C19.4783 59.3362 19.8132 59.755 19.8132 60.2393C19.8132 60.347 19.7963 60.4534 19.7641 60.5544C19.5977 61.1467 19.327 62.7882 19.9716 63.6464C20.3018 64.0857 20.8759 64.2993 21.7267 64.2993C25.3492 64.2993 26.7001 59.1409 26.7134 59.0888C26.7176 59.0716 26.7225 59.0545 26.7277 59.0375C27.1347 57.721 27.5657 56.1795 28.009 54.4559C28.1522 53.8998 28.7192 53.5647 29.2753 53.7078C29.8316 53.8509 30.1667 54.4179 30.0236 54.9741C29.5745 56.7203 29.1366 58.2865 28.7217 59.6299C28.6591 59.8656 28.2349 61.3754 27.2828 62.8943C25.8537 65.1744 23.9322 66.3796 21.7268 66.3796ZM11.2129 60.7758H11.2142H11.2129Z" fill="black"/>
<path d="M34.9574 53.2254C33.011 53.2254 31.1759 52.9455 29.5035 52.3936C24.9786 50.8974 21.572 47.4679 19.3775 42.2C17.7199 38.2208 16.8072 33.139 16.8072 27.8905C16.8072 27.6147 16.9167 27.35 17.1117 27.1551C17.3694 26.8976 17.7444 26.7923 18.0971 26.8793C18.6153 27.006 20.8256 26.3934 23.5885 24.3974C26.6958 22.1527 28.6562 19.4652 28.8326 17.2082C28.8714 16.711 29.2578 16.3113 29.7535 16.2557C30.2493 16.1999 30.7146 16.5041 30.8626 16.9803C31.9682 20.5339 37.4869 24.0994 41.9476 25.2001C44.102 25.7318 45.2846 25.5023 45.6426 25.1443C45.7024 25.0844 45.7461 25.0347 45.7775 24.995C45.4755 24.7552 44.7059 24.4251 44.2201 24.2168C43.3952 23.863 42.5419 23.497 41.8915 22.9773C40.6011 21.9463 40.7573 20.7775 40.9654 20.1724C41.3104 19.1684 41.9006 18.4852 42.7192 18.1426C44.4806 17.405 46.7482 18.4915 49.1484 19.642C51.7298 20.879 54.399 22.1581 55.7083 20.8486C56.4953 20.0618 56.4644 18.2451 55.6282 16.1074C54.3741 12.9012 51.6444 9.64303 48.1392 7.16801C43.7614 4.07721 38.3575 2.32078 32.5114 2.0889C29.8112 1.98117 27.7019 2.83197 26.2434 4.61752C25.1676 5.93412 24.8479 7.29734 24.845 7.3106C24.7313 7.83164 24.2428 8.18219 23.7119 8.12217C23.6628 8.11642 18.5496 7.59744 16.2118 10.7898C12.7472 15.5228 12.7983 23.1987 13.3698 30.7884C13.413 31.3611 12.9836 31.8604 12.4109 31.9036C11.8341 31.9455 11.3389 31.5172 11.2957 30.9445C10.6942 22.9571 10.6703 14.8385 14.5336 9.56086C16.9427 6.27086 21.2389 5.97049 23.0812 6.00603C23.3406 5.31492 23.8171 4.29924 24.6324 3.30119C25.935 1.70691 28.3742 -0.157931 32.5941 0.0100966C45.8341 0.535507 54.8195 8.32984 57.5654 15.3493C58.7417 18.3567 58.6013 20.8972 57.1794 22.3189C54.8286 24.6705 51.3335 22.9953 48.2497 21.5173C46.4563 20.6579 44.4232 19.6838 43.5225 20.061C43.4302 20.0997 43.1495 20.2171 42.9324 20.8484C42.8874 20.9789 42.8521 21.0821 43.1897 21.352C43.6202 21.696 44.3421 22.0055 45.0398 22.305C46.389 22.8838 47.6637 23.4304 47.8925 24.6206C48.0226 25.2968 47.7605 25.9678 47.1132 26.615C45.786 27.9423 43.3004 27.6764 41.449 27.2194C37.914 26.3472 32.7366 23.7087 30.1542 20.0994C29.8182 20.8179 29.3734 21.5404 28.8214 22.2633C27.7961 23.6056 26.4077 24.9265 24.8061 26.0835C22.963 27.415 20.6409 28.6411 18.9002 28.9131C19.0394 34.2227 20.4025 47.1936 30.1553 50.4184C31.6164 50.9006 33.2322 51.1452 34.9569 51.1452C40.6157 51.1452 44.8931 48.5372 47.6709 43.3934C50.5926 37.983 51.0287 31.3581 51.0287 27.8905C51.0287 27.0717 50.9717 26.2338 50.8595 25.4003C50.7826 24.831 51.182 24.3075 51.7513 24.2308C52.3202 24.1544 52.8442 24.5532 52.9209 25.1226C53.0456 26.0479 53.1088 26.9792 53.1088 27.8906C53.1088 31.5545 52.6401 38.5692 49.5012 44.3818C48.0357 47.0955 46.1547 49.2217 43.9105 50.7012C41.3701 52.376 38.3578 53.2254 34.9574 53.2254Z" fill="black"/>
<path d="M48.2736 66.3797C43.1703 66.3797 41.4209 60.1698 41.2782 59.628C40.8268 58.1651 40.3495 56.4451 39.8597 54.5152C39.7184 53.9584 40.0553 53.3924 40.612 53.2513C41.1683 53.1101 41.7346 53.4467 41.8758 54.0035C42.3594 55.9091 42.8293 57.6025 43.2724 59.0367C43.2776 59.0537 43.2824 59.0708 43.2867 59.088C43.2997 59.1383 44.6705 64.2997 48.2734 64.2997C49.1234 64.2997 49.6972 64.0867 50.0272 63.6485C50.6726 62.7921 50.3982 61.1327 50.2329 60.5442C50.2024 60.4444 50.1878 60.3424 50.1878 60.2415C50.188 59.8563 50.4025 59.4861 50.7715 59.3062C51.2879 59.0544 51.9099 59.2674 52.1616 59.7836C52.165 59.7911 52.17 59.8012 52.1735 59.8089C52.6267 60.797 54.592 61.9904 56.5549 62.4696C57.7313 62.7568 58.3259 62.6443 58.5022 62.5694C58.4918 62.4436 58.4149 62.0745 57.9286 61.3634C57.9147 61.3432 57.9016 61.3222 57.8891 61.3009C54.3506 55.2444 55.1251 45.5848 55.874 36.2432C56.1795 32.4326 56.4954 28.4922 56.5162 24.8602C56.5193 24.2879 56.9845 23.8262 57.5561 23.8262C57.5581 23.8262 57.56 23.8262 57.5622 23.8262C58.1366 23.8295 58.5995 24.2979 58.5962 24.8722C58.5752 28.5815 58.2561 32.561 57.9474 36.4096C57.2255 45.4145 56.4789 54.7251 59.6674 60.2215C60.5923 61.5862 60.8182 62.7194 60.3384 63.5894C60.0327 64.144 59.3273 64.7935 57.682 64.7313C56.2362 64.6777 54.1065 64.0156 52.4578 62.9469C52.3498 63.71 52.0924 64.3642 51.6884 64.9006C51.1801 65.5751 50.1748 66.3797 48.2736 66.3797Z" fill="black"/>
<path d="M45.0526 70.0003H13.2059C12.6314 70.0003 12.1658 69.5346 12.1658 68.9602C12.1658 68.0211 12.3534 66.9935 12.7232 65.9061C12.9082 65.3623 13.4987 65.0715 14.0428 65.2562C14.5867 65.4412 14.8776 66.032 14.6927 66.5759C14.5331 67.0451 14.4158 67.4946 14.3416 67.9202H45.0528C45.6273 67.9202 46.0929 68.3859 46.0929 68.9602C46.0929 69.5346 45.6271 70.0003 45.0526 70.0003Z" fill="black"/>
<path d="M56.7092 69.9998H48.5209C47.9464 69.9998 47.4808 69.5341 47.4808 68.9598C47.4808 68.3854 47.9464 67.9197 48.5209 67.9197H55.5738C55.4995 67.494 55.3822 67.0446 55.2227 66.5754C55.0377 66.0317 55.3286 65.4408 55.8725 65.2558C56.4161 65.0711 57.0073 65.3617 57.1921 65.9056C57.5619 66.9931 57.7495 68.0206 57.7495 68.9598C57.7492 69.5341 57.2836 69.9998 56.7092 69.9998Z" fill="black"/>
<path d="M37.222 38.0049H33.7552C33.1807 38.0049 32.7152 37.5392 32.7152 36.9648C32.7152 36.3905 33.1807 35.9248 33.7552 35.9248H37.222C37.7965 35.9248 38.262 36.3905 38.262 36.9648C38.262 37.5392 37.7965 38.0049 37.222 38.0049Z" fill="black"/>
</g>
<defs>
<clipPath id="clip0">
<rect width="70" height="70" fill="white"/>
</clipPath>
</defs>
</svg>
