<svg width="70" height="70" viewBox="0 0 70 70" fill="none" xmlns="http://www.w3.org/2000/svg">
<g clip-path="url(#clip0)">
<path d="M57.8564 36.3833H12.1437C12.1437 36.3833 9.11536 45.1259 9.11536 48.3723C9.11536 51.6187 17.4475 58.1113 35 58.1113C52.5525 58.1113 60.8847 51.6187 60.8847 48.3723C60.8847 45.1259 57.8564 36.3833 57.8564 36.3833Z" fill="#E3A67B"/>
<path d="M34.987 3.89648C33.1991 3.89648 31.462 4.11264 29.7985 4.51719C29.213 2.48145 27.6548 1.02539 25.8239 1.02539C23.4917 1.02539 21.601 3.38762 21.601 6.30164C21.601 6.51574 21.6124 6.72629 21.6322 6.93369C19.6904 5.65209 17.329 5.63049 15.9361 7.02338C14.287 8.67248 14.6204 11.6797 16.6809 13.7402C16.6882 13.7475 16.6957 13.754 16.7029 13.7612C14.4337 17.2088 13.1119 21.3355 13.1119 25.7716V32.6411H56.8619V25.7715C56.862 13.6903 47.0683 3.89648 34.987 3.89648Z" fill="#F2B88F"/>
<path d="M24.386 24.8969C20.7595 10.7487 29.7987 4.51719 29.7987 4.51719C29.2131 2.48145 27.6549 1.02539 25.824 1.02539C23.4918 1.02539 21.6011 3.38762 21.6011 6.30164C21.6011 6.51574 21.6125 6.72629 21.6323 6.93369C19.6905 5.65209 17.3291 5.63049 15.9362 7.02338C14.2871 8.67248 14.6206 11.6797 16.681 13.7402C16.6883 13.7475 16.6958 13.754 16.7031 13.7612C14.4338 17.2088 13.112 21.3355 13.112 25.7716V32.6411H24.386V24.8969Z" fill="#E3A67B"/>
<path d="M54.2019 15.3086H59.7614V34.3345H54.2019V15.3086Z" fill="#CDE2FF"/>
<path d="M54.2019 15.3085L56.2386 8.91743C56.4382 8.29126 57.32 8.27991 57.5357 8.90075L59.7613 15.3086C58.3345 17.086 55.6288 17.086 54.2019 15.3085Z" fill="#FFEEE5"/>
<path d="M54.8288 39.2673C57.5532 39.2673 59.7618 37.0587 59.7618 34.3343C59.7618 31.6099 57.5532 29.4014 54.8288 29.4014C52.1044 29.4014 49.8959 31.6099 49.8959 34.3343C49.8959 37.0587 52.1044 39.2673 54.8288 39.2673Z" fill="#FFDECF"/>
<path d="M15.145 39.2673C17.8694 39.2673 20.0779 37.0587 20.0779 34.3343C20.0779 31.6099 17.8694 29.4014 15.145 29.4014C12.4206 29.4014 10.212 31.6099 10.212 34.3343C10.212 37.0587 12.4206 39.2673 15.145 39.2673Z" fill="#FFCDBE"/>
<path d="M54.2017 29.4411C45.4129 27.2882 41.8508 20.9354 41.8508 20.9354L43.1795 27.6848C43.3571 28.587 42.6109 29.4019 41.6959 29.3092C29.0154 28.0259 24.1105 19.6787 24.1105 19.6787C21.7366 27.2702 15.8004 29.43 15.772 29.4404C15.3707 31.0206 15.1586 32.6763 15.1627 34.3824C15.1888 45.3031 24.341 54.3042 35.2609 54.1563C46.0832 54.0097 54.8111 45.1911 54.8111 34.334C54.8108 32.6453 54.599 31.0061 54.2017 29.4411Z" fill="#FFEEE5"/>
<path d="M21.9983 34.334C21.9983 29.7625 23.5465 25.5532 26.1461 22.1997C24.7445 20.7578 24.1104 19.6787 24.1104 19.6787C21.7365 27.2702 15.8003 29.43 15.7719 29.4404C15.3706 31.0206 15.1584 32.6763 15.1625 34.3824C15.1886 45.3031 24.3409 54.3042 35.2607 54.1563C36.3311 54.1418 37.3806 54.0412 38.4035 53.8635C29.0843 52.2433 21.9983 44.1166 21.9983 34.334Z" fill="#FFDECF"/>
<path d="M55.6596 60.7715H50.3462V68.9746H55.6596C57.9249 68.9746 59.7612 67.1383 59.7612 64.873C59.7612 62.6078 57.9249 60.7715 55.6596 60.7715Z" fill="#FFDECF"/>
<path d="M19.6269 60.7715H15.5283C13.2631 60.7715 11.4267 62.6078 11.4267 64.873C11.4267 67.1383 13.2631 68.9746 15.5283 68.9746H19.6269V60.7715Z" fill="#FFDECF"/>
<path d="M50.3462 68.9746H19.627C18.248 68.9746 17.0848 67.9477 16.9137 66.5794L14.8629 50.1732C14.6589 48.5412 15.9315 47.0996 17.5762 47.0996H52.397C54.0417 47.0996 55.3143 48.5412 55.1103 50.1732L53.0595 66.5794C52.8883 67.9477 51.7251 68.9746 50.3462 68.9746Z" fill="#F2F6FC"/>
<path d="M25.117 66.5794L23.0662 50.1732C22.8622 48.5412 24.1348 47.0996 25.7795 47.0996H17.5764C15.9317 47.0996 14.6591 48.5412 14.8631 50.1732L16.9138 66.5794C17.0849 67.9478 18.2481 68.9746 19.6272 68.9746H27.8303C26.4512 68.9746 25.288 67.9477 25.117 66.5794Z" fill="#E9EDF5"/>
<path d="M34.9869 62.1387C37.2521 62.1387 39.0885 60.3023 39.0885 58.0371C39.0885 55.7719 37.2521 53.9355 34.9869 53.9355C32.7217 53.9355 30.8853 55.7719 30.8853 58.0371C30.8853 60.3023 32.7217 62.1387 34.9869 62.1387Z" fill="#CDE2FF"/>
<path d="M34.9869 58.0371C34.9869 56.5193 35.8121 55.1949 37.0377 54.4856C36.4342 54.1364 35.7342 53.9355 34.9869 53.9355C32.7216 53.9355 30.8853 55.7718 30.8853 58.0371C30.8853 60.3024 32.7216 62.1387 34.9869 62.1387C35.7342 62.1387 36.4342 61.9378 37.0377 61.5887C35.812 60.8794 34.9869 59.555 34.9869 58.0371Z" fill="#B2D3FF"/>
<path d="M24.1101 41.4937C26.3266 41.4937 28.1234 40.0628 28.1234 38.2976C28.1234 36.5325 26.3266 35.1016 24.1101 35.1016C21.8935 35.1016 20.0967 36.5325 20.0967 38.2976C20.0967 40.0628 21.8935 41.4937 24.1101 41.4937Z" fill="#FFA1AC"/>
<path d="M45.864 41.4937C48.0805 41.4937 49.8773 40.0628 49.8773 38.2976C49.8773 36.5325 48.0805 35.1016 45.864 35.1016C43.6474 35.1016 41.8506 36.5325 41.8506 38.2976C41.8506 40.0628 43.6474 41.4937 45.864 41.4937Z" fill="#FFA1AC"/>
<path d="M26.4492 36.2466C25.8827 36.2466 25.4238 35.7875 25.4238 35.2212V33.5806C25.4238 33.0143 25.8827 32.5552 26.4492 32.5552C27.0156 32.5552 27.4745 33.0143 27.4745 33.5806V35.2212C27.4745 35.7875 27.0156 36.2466 26.4492 36.2466Z" fill="black"/>
<path d="M43.5249 36.2466C42.9585 36.2466 42.4995 35.7875 42.4995 35.2212V33.5806C42.4995 33.0143 42.9585 32.5552 43.5249 32.5552C44.0913 32.5552 44.5503 33.0143 44.5503 33.5806V35.2212C44.5503 35.7875 44.0913 36.2466 43.5249 36.2466Z" fill="black"/>
<path d="M34.987 37.2232C33.8278 37.2232 32.7257 36.7213 31.963 35.8461C31.5908 35.4191 31.6354 34.7715 32.0624 34.3993C32.4892 34.0273 33.1368 34.0717 33.5091 34.4987C33.8822 34.9269 34.421 35.1725 34.9872 35.1725C35.5533 35.1725 36.0919 34.9269 36.4651 34.4987C36.837 34.0719 37.4848 34.0273 37.9119 34.3993C38.3387 34.7715 38.3833 35.4191 38.0113 35.8461C37.2482 36.7213 36.1461 37.2232 34.987 37.2232Z" fill="black"/>
<path d="M55.6598 59.7461H54.9472L55.5267 55.11C59.4764 53.1162 61.9101 50.5583 61.9101 48.3723C61.9101 45.9931 60.456 41.0655 59.4861 38.0438C60.299 37.0251 60.7867 35.736 60.7867 34.3343V24.4508C60.7867 23.8845 60.3278 23.4254 59.7613 23.4254C59.1949 23.4254 58.7359 23.8845 58.7359 24.4508V29.8419C57.783 29.0119 56.5651 28.4796 55.2272 28.3907V17.3195C55.7758 17.5461 56.37 17.6669 56.9813 17.6669H56.9997C57.6049 17.6645 58.1929 17.5444 58.7359 17.3201V20.3492C58.7359 20.9155 59.1949 21.3746 59.7613 21.3746C60.3278 21.3746 60.7867 20.9155 60.7867 20.3492V15.3084C60.7867 15.1938 60.7674 15.0802 60.73 14.9719L58.5043 8.56406C58.2649 7.87486 57.6183 7.4159 56.8901 7.4159C56.8827 7.4159 56.8752 7.4159 56.8677 7.41604C56.1306 7.42561 55.4853 7.90385 55.2616 8.60604L53.9048 12.8636C49.6614 6.64918 42.6026 2.87109 34.9869 2.87109C33.4629 2.87109 31.9415 3.02258 30.4522 3.32186C29.5517 1.30156 27.7814 0 25.8239 0C23.2131 0 21.0416 2.30084 20.6417 5.30236C18.6445 4.60346 16.5659 4.94375 15.2111 6.29822C13.3244 8.18508 13.4614 11.4468 15.4203 13.8698C13.2369 17.4516 12.0865 21.5493 12.0865 25.7715V29.2231C10.3508 30.2656 9.18633 32.1662 9.18633 34.3343C9.18633 35.747 9.68152 37.0457 10.5061 38.0681C9.53701 41.0893 8.08984 45.9989 8.08984 48.3723C8.08984 50.5528 10.5124 53.104 14.4449 55.0955L15.0294 59.7708C12.4357 60.0225 10.4015 62.2146 10.4015 64.8732C10.4015 67.7003 12.7014 70.0001 15.5284 70.0001H55.6598C58.4868 70.0001 60.7867 67.7003 60.7867 64.8732C60.7867 62.0461 58.4868 59.7461 55.6598 59.7461ZM19.6273 67.9492C18.7672 67.9492 18.0382 67.3055 17.9315 66.4521L15.8808 50.0459C15.8191 49.5526 15.9663 49.0756 16.2953 48.7029C16.6242 48.3302 17.0792 48.1249 17.5765 48.1249H32.9359C33.5023 48.1249 33.9613 47.6658 33.9613 47.0995C33.9613 46.5332 33.5023 46.0741 32.9359 46.0741H20.3804C17.6846 42.7417 16.1979 38.6034 16.1878 34.3798C16.1846 32.9629 16.3395 31.5525 16.6488 30.1801C18.0918 29.5075 22.1024 27.2249 24.4154 21.814C25.1123 22.6447 26.1297 23.712 27.5077 24.8134C30.1804 26.9499 34.7936 29.641 41.5926 30.329C42.3561 30.4061 43.0909 30.1253 43.6073 29.558C44.1226 28.9922 44.3333 28.2371 44.1854 27.4863L43.6526 24.7793C45.635 26.7263 48.784 29.0339 53.3465 30.2784C53.638 31.605 53.7855 32.9664 53.7855 34.3336C53.7855 38.6001 52.3264 42.7533 49.6693 46.0739H37.0374C36.471 46.0739 36.0121 46.533 36.0121 47.0993C36.0121 47.6656 36.471 48.1247 37.0374 48.1247H52.3972C52.8945 48.1247 53.3495 48.3299 53.6784 48.7028C54.0074 49.0756 54.1546 49.5523 54.093 50.0458L52.0422 66.452C51.9355 67.3054 51.2066 67.9491 50.3465 67.9491H19.6273V67.9492ZM55.8398 52.6046L56.1279 50.3003C56.2616 49.2308 55.9291 48.1538 55.2157 47.3458C54.5023 46.5378 53.4751 46.0744 52.3971 46.0744H52.216C53.4277 44.2954 54.3534 42.3415 54.9652 40.2894C55.994 40.266 56.9589 39.9811 57.7963 39.4978C59.1137 43.6997 59.8595 46.8963 59.8595 48.3725C59.8594 49.1914 58.7558 50.8833 55.8398 52.6046ZM58.7359 34.3343C58.7359 36.2687 57.3228 37.8783 55.4748 38.1875C55.713 36.9234 55.8361 35.6336 55.8361 34.334C55.8361 33.0389 55.7162 31.7484 55.4797 30.4821C57.3253 30.7932 58.7359 32.4017 58.7359 34.3343ZM56.9918 15.6162H56.9816C56.384 15.6162 55.816 15.4082 55.3653 15.035L56.2287 12.326C56.6901 12.4488 57.1768 12.4477 57.6392 12.3233L58.5849 15.0458C58.1388 15.4098 57.5801 15.6138 56.9918 15.6162ZM14.1373 25.7715C14.1373 21.6844 15.3206 17.7261 17.5594 14.3247C17.8279 13.9169 17.7714 13.3762 17.4246 13.0324L17.4013 13.0102C15.7481 11.353 15.4159 8.99377 16.6613 7.74826C17.6779 6.73148 19.4897 6.74816 21.0676 7.78941C21.3974 8.00707 21.8226 8.01596 22.1609 7.81225C22.4995 7.60867 22.6907 7.22873 22.6531 6.83566C22.6352 6.64945 22.6266 6.47473 22.6266 6.3015C22.6266 3.9576 24.0609 2.05078 25.824 2.05078C27.1389 2.05078 28.3402 3.15588 28.8133 4.80061C28.9653 5.32902 29.507 5.64348 30.041 5.51346C31.6548 5.12094 33.319 4.92188 34.9869 4.92188C42.5357 4.92188 49.4825 8.99992 53.1764 15.5781V28.0917C45.8732 25.8169 42.7759 20.4884 42.745 20.434C42.4985 19.9944 41.9693 19.7992 41.4964 19.9732C41.0235 20.1473 40.7473 20.6392 40.8445 21.1336L42.1731 27.883C42.2019 28.0293 42.1339 28.1304 42.0908 28.1777C42.047 28.2259 41.9518 28.3042 41.7988 28.289C35.5452 27.6562 31.3137 25.2122 28.8651 23.2732C26.203 21.1654 25.0047 19.177 24.9942 19.1594C24.7888 18.8096 24.3956 18.614 23.9935 18.6602C23.5905 18.7064 23.2526 18.9857 23.1315 19.3729C21.1529 25.7004 16.6275 27.9624 15.618 28.397C15.4605 28.3846 15.3023 28.3761 15.1445 28.3761C14.8011 28.3761 14.4649 28.407 14.1372 28.4631V25.7715H14.1373ZM14.4933 30.4821C14.2537 31.7648 14.1339 33.0724 14.1371 34.3849C14.1402 35.6657 14.2665 36.9391 14.5076 38.1891C12.655 37.8838 11.2372 36.2719 11.2372 34.3343C11.2371 32.4017 12.6478 30.7932 14.4933 30.4821ZM10.1408 48.3723C10.1408 46.8977 10.8851 43.7062 12.1999 39.5109C13.0374 39.9893 14.0013 40.27 15.0283 40.2898C15.6512 42.3365 16.5921 44.2902 17.8224 46.0744H17.5765C16.4985 46.0744 15.4713 46.5378 14.7579 47.3458C14.0445 48.1538 13.7121 49.2308 13.8457 50.3003L14.1316 52.5878C11.2368 50.8721 10.1408 49.1885 10.1408 48.3723ZM12.4523 64.873C12.4523 63.2592 13.7017 61.9325 15.284 61.8075L15.8963 66.7066C15.9519 67.1511 16.085 67.5691 16.2797 67.9492H15.5284C13.8323 67.9492 12.4523 66.5693 12.4523 64.873ZM55.6598 67.9492H53.6937C53.8884 67.5691 54.0215 67.1511 54.0771 66.7066L54.6908 61.7969H55.6598C57.3559 61.7969 58.7359 63.1768 58.7359 64.873C58.7359 66.5693 57.356 67.9492 55.6598 67.9492Z" fill="black"/>
<path d="M34.9867 52.9102C32.1596 52.9102 29.8597 55.21 29.8597 58.0371C29.8597 60.8642 32.1596 63.1641 34.9867 63.1641C37.8138 63.1641 40.1137 60.8642 40.1137 58.0371C40.1137 55.21 37.8138 52.9102 34.9867 52.9102ZM34.9867 61.1133C33.2906 61.1133 31.9105 59.7334 31.9105 58.0371C31.9105 56.3408 33.2906 54.9609 34.9867 54.9609C36.6828 54.9609 38.0629 56.3408 38.0629 58.0371C38.0629 59.7334 36.683 61.1133 34.9867 61.1133Z" fill="black"/>
</g>
<defs>
<clipPath id="clip0">
<rect width="70" height="70" fill="white"/>
</clipPath>
</defs>
</svg>
